<svg width="297" height="362" viewBox="0 0 297 362" fill="none" xmlns="http://www.w3.org/2000/svg">
<path d="M7.35714 202.559C9.04151 204.499 9.04151 207.636 7.35714 209.576C5.67277 211.515 2.94789 211.515 1.26352 209.576C-0.420848 207.636 -0.420848 204.499 1.26352 202.559C2.94789 200.626 5.67277 200.626 7.35714 202.559Z" fill="#9F41EA"/>
<path d="M23.1948 184.322C24.8792 186.261 24.8792 189.399 23.1948 191.339C21.5104 193.278 18.7855 193.278 17.1012 191.339C15.4168 189.399 15.4168 186.261 17.1012 184.322C18.7855 182.382 21.5162 182.382 23.1948 184.322Z" fill="#9F41EA"/>
<path d="M39.0383 166.084C40.7227 168.023 40.7227 171.161 39.0383 173.1C37.3539 175.04 34.629 175.04 32.9447 173.1C31.2603 171.161 31.2603 168.023 32.9447 166.084C34.629 164.144 37.3539 164.144 39.0383 166.084Z" fill="#9F41EA"/>
<path d="M54.8759 147.847C56.5603 149.78 56.5603 152.925 54.8759 154.864C53.1916 156.804 50.4667 156.804 48.7823 154.864C47.098 152.925 47.098 149.787 48.7823 147.847C50.4667 145.908 53.1916 145.908 54.8759 147.847Z" fill="#9F41EA"/>
<path d="M70.7136 129.603C72.398 131.542 72.398 134.68 70.7136 136.619C69.0292 138.552 66.3043 138.552 64.62 136.619C62.9356 134.68 62.9356 131.542 64.62 129.603C66.3043 127.67 69.035 127.663 70.7136 129.603Z" fill="#9F41EA"/>
<path d="M86.5511 111.367C88.2355 113.306 88.2355 116.444 86.5511 118.384C84.8667 120.323 82.1419 120.323 80.4575 118.384C78.7731 116.444 78.7731 113.306 80.4575 111.367C82.1419 109.427 84.8725 109.427 86.5511 111.367Z" fill="#9F41EA"/>
<path d="M102.395 93.1285C104.073 95.0681 104.079 98.2058 102.395 100.145C100.71 102.085 97.9855 102.085 96.3011 100.145C94.6167 98.2058 94.6167 95.0681 96.3011 93.1285C97.9855 91.1889 100.71 91.1889 102.395 93.1285Z" fill="#9F41EA"/>
<path d="M118.232 74.8922C119.917 76.8317 119.917 79.9694 118.232 81.909C116.548 83.8486 113.823 83.8486 112.139 81.909C110.454 79.9694 110.454 76.8317 112.139 74.8922C113.823 72.9526 116.548 72.9526 118.232 74.8922Z" fill="#9F41EA"/>
<path d="M134.07 56.6489C135.754 58.5819 135.754 61.7262 134.07 63.6658C132.386 65.6053 129.661 65.6053 127.976 63.6658C126.292 61.7262 126.292 58.5885 127.976 56.6489C129.661 54.716 132.391 54.716 134.07 56.6489Z" fill="#9F41EA"/>
<path d="M149.908 38.4117C151.592 40.3513 151.592 43.489 149.908 45.4285C148.223 47.3681 145.498 47.3681 143.814 45.4285C142.13 43.489 142.135 40.3513 143.814 38.4117C145.498 36.4721 148.229 36.4721 149.908 38.4117Z" fill="#9F41EA"/>
<path d="M165.751 20.1734C167.435 22.113 167.435 25.2507 165.751 27.1902C164.067 29.1298 161.342 29.1298 159.657 27.1902C157.973 25.2507 157.973 22.113 159.657 20.1734C161.342 18.2339 164.067 18.2339 165.751 20.1734Z" fill="#9F41EA"/>
<path d="M181.589 1.93709C183.273 3.87003 183.273 7.01436 181.589 8.95392C179.904 10.8935 177.179 10.8935 175.495 8.95392C173.811 7.01436 173.811 3.87665 175.495 1.93709C177.179 -0.00246763 179.904 -0.00246763 181.589 1.93709Z" fill="#9F41EA"/>
<path d="M7.96651 222.901C9.65088 224.84 9.65088 227.978 7.96651 229.918C6.28215 231.857 3.55726 231.857 1.8729 229.918C0.188527 227.978 0.188527 224.84 1.8729 222.901C3.55726 220.968 6.28215 220.968 7.96651 222.901Z" fill="#9F41EA"/>
<path d="M23.804 204.664C25.4884 206.603 25.4884 209.741 23.804 211.68C22.1197 213.62 19.3948 213.62 17.7104 211.68C16.0261 209.741 16.0261 206.603 17.7104 204.664C19.3948 202.724 22.1254 202.724 23.804 204.664Z" fill="#9F41EA"/>
<path d="M39.6474 186.425C41.3318 188.365 41.3318 191.503 39.6474 193.442C37.9631 195.382 35.2382 195.382 33.5538 193.442C31.8694 191.503 31.8694 188.365 33.5538 186.425C35.2382 184.486 37.9631 184.486 39.6474 186.425Z" fill="#9F41EA"/>
<path d="M55.4852 168.189C57.1696 170.129 57.1696 173.266 55.4852 175.206C53.8008 177.145 51.0759 177.145 49.3916 175.206C47.7072 173.266 47.7072 170.129 49.3916 168.189C51.0759 166.249 53.8008 166.249 55.4852 168.189Z" fill="#9F41EA"/>
<path d="M71.3228 149.946C73.0072 151.885 73.0072 155.023 71.3228 156.963C69.6385 158.902 66.9136 158.902 65.2292 156.963C63.5449 155.023 63.5449 151.885 65.2292 149.946C66.9136 148.013 69.6385 148.013 71.3228 149.946Z" fill="#9F41EA"/>
<path d="M87.1605 131.709C88.8449 133.648 88.8449 136.786 87.1605 138.725C85.4761 140.665 82.7512 140.665 81.0669 138.725C79.3825 136.786 79.3825 133.648 81.0669 131.709C82.7512 129.769 85.4819 129.769 87.1605 131.709Z" fill="#9F41EA"/>
<path d="M103.004 113.47C104.688 115.41 104.688 118.548 103.004 120.487C101.319 122.427 98.5945 122.427 96.9102 120.487C95.2258 118.548 95.2315 115.41 96.9102 113.47C98.5945 111.531 101.319 111.531 103.004 113.47Z" fill="#9F41EA"/>
<path d="M118.842 95.234C120.526 97.1735 120.526 100.311 118.842 102.251C117.157 104.19 114.432 104.19 112.748 102.251C111.064 100.311 111.064 97.1735 112.748 95.234C114.432 93.2944 117.157 93.2944 118.842 95.234Z" fill="#9F41EA"/>
<path d="M134.679 76.9907C136.364 78.9303 136.364 82.068 134.679 84.0075C132.995 85.9471 130.27 85.9471 128.586 84.0075C126.901 82.068 126.907 78.9303 128.586 76.9907C130.27 75.0578 132.995 75.0578 134.679 76.9907Z" fill="#9F41EA"/>
<path d="M150.517 58.7535C152.201 60.6931 152.201 63.8308 150.517 65.7703C148.832 67.7099 146.108 67.7099 144.423 65.7703C142.739 63.8308 142.739 60.6931 144.423 58.7535C146.108 56.8139 148.838 56.8139 150.517 58.7535Z" fill="#9F41EA"/>
<path d="M166.36 40.5152C168.045 42.4548 168.045 45.5925 166.36 47.532C164.682 49.4716 161.951 49.4716 160.267 47.532C158.582 45.5925 158.582 42.4548 160.267 40.5152C161.945 38.5757 164.676 38.5757 166.36 40.5152Z" fill="#9F41EA"/>
<path d="M182.198 22.272C183.882 24.2115 183.882 27.3492 182.198 29.2888C180.514 31.2284 177.789 31.2284 176.104 29.2888C174.42 27.3492 174.42 24.2115 176.104 22.272C177.789 20.339 180.514 20.339 182.198 22.272Z" fill="#9F41EA"/>
<path d="M26.2417 224.305C27.926 226.245 27.926 229.382 26.2417 231.322C24.5573 233.262 21.8324 233.262 20.148 231.322C18.4637 229.382 18.4637 226.245 20.148 224.305C21.8324 222.372 24.563 222.372 26.2417 224.305Z" fill="#9F41EA"/>
<path d="M42.085 206.067C43.7694 208.007 43.7694 211.145 42.085 213.084C40.4007 215.024 37.6758 215.024 35.9914 213.084C34.3071 211.151 34.3071 208.007 35.9914 206.067C37.67 204.128 40.4007 204.134 42.085 206.067Z" fill="#9F41EA"/>
<path d="M57.9227 187.83C59.6071 189.763 59.6071 192.907 57.9227 194.847C56.2383 196.786 53.5134 196.786 51.8291 194.847C50.1447 192.907 50.1447 189.769 51.8291 187.83C53.5134 185.89 56.2383 185.89 57.9227 187.83Z" fill="#9F41EA"/>
<path d="M73.7603 169.593C75.4447 171.533 75.4447 174.671 73.7603 176.61C72.076 178.55 69.3511 178.543 67.6667 176.61C65.9824 174.671 65.9824 171.533 67.6667 169.593C69.3511 167.654 72.076 167.654 73.7603 169.593Z" fill="#9F41EA"/>
<path d="M89.5981 151.35C91.2825 153.29 91.2825 156.427 89.5981 158.367C87.9137 160.306 85.1889 160.3 83.5045 158.367C81.8201 156.427 81.8201 153.29 83.5045 151.35C85.1889 149.417 87.9195 149.417 89.5981 151.35Z" fill="#9F41EA"/>
<path d="M105.441 133.113C107.126 135.046 107.12 138.19 105.441 140.13C103.757 142.069 101.032 142.069 99.3477 140.13C97.6634 138.19 97.6634 135.052 99.3477 133.113C101.026 131.173 103.757 131.173 105.441 133.113Z" fill="#9F41EA"/>
<path d="M121.279 114.875C122.963 116.814 122.963 119.952 121.279 121.891C119.595 123.831 116.87 123.831 115.185 121.891C113.501 119.952 113.501 116.814 115.185 114.875C116.87 112.935 119.595 112.935 121.279 114.875Z" fill="#9F41EA"/>
<path d="M137.117 96.6383C138.801 98.5778 138.801 101.716 137.117 103.655C135.432 105.595 132.708 105.595 131.023 103.655C129.339 101.722 129.339 98.5778 131.023 96.6383C132.708 94.6987 135.432 94.6987 137.117 96.6383Z" fill="#9F41EA"/>
<path d="M152.954 78.3939C154.639 80.3334 154.639 83.4712 152.954 85.4041C151.27 87.3437 148.545 87.3437 146.861 85.4041C145.176 83.4645 145.176 80.3268 146.861 78.3873C148.545 76.461 151.276 76.461 152.954 78.3939Z" fill="#9F41EA"/>
<path d="M168.792 60.1581C170.476 62.091 170.476 65.2354 168.792 67.1683C167.108 69.1079 164.383 69.1079 162.698 67.1683C161.014 65.2287 161.014 62.091 162.698 60.1515C164.383 58.2185 167.113 58.2252 168.792 60.1581Z" fill="#9F41EA"/>
<path d="M184.635 41.9195C186.314 43.8591 186.32 46.9968 184.635 48.9363C182.951 50.8693 180.226 50.8693 178.542 48.9363C176.857 46.9968 176.857 43.8591 178.542 41.9195C180.226 39.98 182.951 39.98 184.635 41.9195Z" fill="#9F41EA"/>
<path d="M200.473 23.6832C202.152 25.6227 202.152 28.7605 200.473 30.7C198.789 32.6396 196.064 32.6396 194.379 30.7C192.695 28.7605 192.695 25.6227 194.379 23.6832C196.064 21.7436 198.789 21.7436 200.473 23.6832Z" fill="#9F41EA"/>
<path d="M26.8512 244.654C28.5355 246.593 28.5355 249.731 26.8512 251.671C25.1668 253.61 22.4419 253.61 20.7575 251.671C19.0732 249.731 19.0732 246.593 20.7575 244.654C22.4419 242.714 25.1725 242.714 26.8512 244.654Z" fill="#9F41EA"/>
<path d="M42.6945 226.409C44.3789 228.349 44.3789 231.486 42.6945 233.426C41.0102 235.366 38.2853 235.366 36.6009 233.426C34.9166 231.486 34.9166 228.349 36.6009 226.409C38.2795 224.47 41.0102 224.476 42.6945 226.409Z" fill="#9F41EA"/>
<path d="M58.5321 208.173C60.2164 210.113 60.2164 213.251 58.5321 215.19C56.8477 217.13 54.1228 217.13 52.4384 215.19C50.7541 213.251 50.7541 210.113 52.4384 208.173C54.1228 206.234 56.8477 206.234 58.5321 208.173Z" fill="#9F41EA"/>
<path d="M74.3698 189.935C76.0542 191.875 76.0542 195.012 74.3698 196.952C72.6855 198.892 69.9606 198.892 68.2762 196.952C66.5918 195.012 66.5918 191.875 68.2762 189.935C69.9606 187.996 72.6855 187.996 74.3698 189.935Z" fill="#9F41EA"/>
<path d="M90.2075 171.699C91.8861 173.632 91.8919 176.776 90.2075 178.716C88.5231 180.655 85.7982 180.655 84.1139 178.716C82.4295 176.776 82.4295 173.638 84.1139 171.699C85.7982 169.759 88.5289 169.759 90.2075 171.699Z" fill="#9F41EA"/>
<path d="M106.045 153.454C107.729 155.394 107.729 158.531 106.045 160.471C104.361 162.411 101.636 162.411 99.9515 160.471C98.2671 158.531 98.2671 155.394 99.9515 153.454C101.636 151.515 104.367 151.521 106.045 153.454Z" fill="#9F41EA"/>
<path d="M121.889 135.216C123.573 137.156 123.573 140.294 121.889 142.233C120.204 144.173 117.479 144.173 115.795 142.233C114.111 140.294 114.111 137.156 115.795 135.216C117.479 133.277 120.204 133.277 121.889 135.216Z" fill="#9F41EA"/>
<path d="M137.726 116.98C139.411 118.92 139.411 122.057 137.726 123.997C136.042 125.936 133.317 125.936 131.633 123.997C129.948 122.057 129.948 118.92 131.633 116.98C133.317 115.041 136.042 115.041 137.726 116.98Z" fill="#9F41EA"/>
<path d="M153.564 98.7368C155.248 100.676 155.248 103.814 153.564 105.754C151.88 107.693 149.155 107.693 147.47 105.754C145.786 103.814 145.786 100.676 147.47 98.7368C149.155 96.8039 151.885 96.8039 153.564 98.7368Z" fill="#9F41EA"/>
<path d="M169.407 80.4985C171.092 82.4381 171.092 85.5758 169.407 87.5154C167.723 89.4549 164.998 89.4549 163.314 87.5154C161.629 85.5758 161.629 82.4381 163.314 80.4985C164.992 78.5656 167.723 78.5656 169.407 80.4985Z" fill="#9F41EA"/>
<path d="M185.245 62.2613C186.923 64.2009 186.923 67.3386 185.245 69.2781C183.56 71.2177 180.836 71.2177 179.151 69.2781C177.467 67.3386 177.467 64.2009 179.151 62.2613C180.836 60.3218 183.56 60.3218 185.245 62.2613Z" fill="#9F41EA"/>
<path d="M201.083 44.025C202.767 45.9645 202.767 49.1023 201.083 51.0418C199.398 52.9814 196.673 52.9814 194.989 51.0418C193.305 49.1023 193.305 45.9645 194.989 44.025C196.673 42.0854 199.398 42.0854 201.083 44.025Z" fill="#9F41EA"/>
<path d="M45.1261 246.049C46.8104 247.989 46.8104 251.127 45.1261 253.066C43.4417 255.006 40.7168 255.006 39.0324 253.066C37.3481 251.127 37.3481 247.989 39.0324 246.049C40.7168 244.116 43.4474 244.116 45.1261 246.049Z" fill="#9F41EA"/>
<path d="M60.9694 227.813C62.6538 229.753 62.6538 232.89 60.9694 234.83C59.2851 236.769 56.5602 236.769 54.8758 234.83C53.1915 232.89 53.1915 229.753 54.8758 227.813C56.5602 225.88 59.2851 225.88 60.9694 227.813Z" fill="#9F41EA"/>
<path d="M76.8072 209.576C78.4916 211.515 78.4916 214.653 76.8072 216.593C75.1228 218.532 72.398 218.532 70.7136 216.593C69.0292 214.653 69.0292 211.515 70.7136 209.576C72.398 207.636 75.1228 207.636 76.8072 209.576Z" fill="#9F41EA"/>
<path d="M92.6447 191.339C94.3291 193.279 94.3291 196.417 92.6447 198.356C90.9604 200.296 88.2355 200.296 86.5511 198.356C84.8667 196.417 84.8667 193.279 86.5511 191.339C88.2355 189.4 90.9604 189.4 92.6447 191.339Z" fill="#9F41EA"/>
<path d="M108.483 173.095C110.167 175.035 110.167 178.173 108.483 180.112C106.798 182.045 104.073 182.052 102.389 180.112C100.705 178.173 100.705 175.035 102.389 173.102C104.073 171.162 106.804 171.162 108.483 173.095Z" fill="#9F41EA"/>
<path d="M124.326 154.858C126.01 156.798 126.005 159.936 124.326 161.875C122.642 163.815 119.917 163.815 118.232 161.875C116.548 159.936 116.548 156.798 118.232 154.858C119.911 152.925 122.642 152.919 124.326 154.858Z" fill="#9F41EA"/>
<path d="M140.164 136.621C141.848 138.56 141.848 141.698 140.164 143.638C138.479 145.577 135.754 145.577 134.07 143.638C132.386 141.698 132.386 138.56 134.07 136.621C135.754 134.681 138.479 134.681 140.164 136.621Z" fill="#9F41EA"/>
<path d="M156.001 118.384C157.686 120.324 157.686 123.462 156.001 125.401C154.317 127.341 151.592 127.341 149.908 125.401C148.223 123.462 148.223 120.324 149.908 118.384C151.592 116.445 154.317 116.445 156.001 118.384Z" fill="#9F41EA"/>
<path d="M171.839 100.139C173.523 102.079 173.523 105.216 171.839 107.156C170.154 109.096 167.43 109.096 165.745 107.156C164.061 105.223 164.061 102.079 165.745 100.139C167.43 98.2062 170.16 98.2062 171.839 100.139Z" fill="#9F41EA"/>
<path d="M187.682 81.9028C189.367 83.8424 189.367 86.9801 187.682 88.9197C185.998 90.8592 183.273 90.8592 181.589 88.9197C179.904 86.9801 179.904 83.8424 181.589 81.9028C183.267 79.9699 185.998 79.9699 187.682 81.9028Z" fill="#9F41EA"/>
<path d="M203.52 63.6656C205.204 65.6052 205.204 68.7429 203.52 70.6824C201.836 72.622 199.111 72.622 197.426 70.6824C195.742 68.7429 195.742 65.6052 197.426 63.6656C199.111 61.726 201.836 61.726 203.52 63.6656Z" fill="#9F41EA"/>
<path d="M216.311 53.8948C218.689 53.8948 220.617 51.6749 220.617 48.9366C220.617 46.1983 218.689 43.9785 216.311 43.9785C213.933 43.9785 212.005 46.1983 212.005 48.9366C212.005 51.6749 213.933 53.8948 216.311 53.8948Z" fill="#9F41EA"/>
<path d="M45.7356 266.4C47.4199 268.34 47.4142 271.477 45.7356 273.417C44.0512 275.356 41.3263 275.356 39.6419 273.417C37.9576 271.484 37.9576 268.34 39.6419 266.4C41.3263 264.46 44.0569 264.46 45.7356 266.4Z" fill="#9F41EA"/>
<path d="M61.5789 248.155C63.2633 250.094 63.2633 253.232 61.5789 255.172C59.8946 257.111 57.1697 257.111 55.4853 255.172C53.801 253.232 53.801 250.094 55.4853 248.155C57.1639 246.222 59.8946 246.222 61.5789 248.155Z" fill="#9F41EA"/>
<path d="M77.4166 229.92C79.101 231.859 79.0952 234.997 77.4166 236.936C75.7322 238.876 73.0073 238.876 71.323 236.936C69.6386 235.003 69.6386 231.859 71.323 229.92C73.0073 227.98 75.7322 227.98 77.4166 229.92Z" fill="#9F41EA"/>
<path d="M93.2543 211.681C94.9386 213.621 94.9386 216.759 93.2543 218.698C91.5699 220.638 88.845 220.638 87.1607 218.698C85.482 216.759 85.4763 213.621 87.1607 211.681C88.845 209.742 91.5757 209.742 93.2543 211.681Z" fill="#9F41EA"/>
<path d="M109.092 193.445C110.776 195.384 110.776 198.522 109.092 200.462C107.408 202.401 104.683 202.401 102.998 200.462C101.314 198.522 101.314 195.384 102.998 193.445C104.683 191.505 107.413 191.505 109.092 193.445Z" fill="#9F41EA"/>
<path d="M124.935 175.2C126.62 177.133 126.62 180.277 124.935 182.217C123.251 184.156 120.526 184.156 118.842 182.217C117.157 180.277 117.157 177.139 118.842 175.2C120.52 173.267 123.251 173.267 124.935 175.2Z" fill="#9F41EA"/>
<path d="M140.773 156.964C142.457 158.903 142.457 162.041 140.773 163.981C139.089 165.92 136.364 165.92 134.679 163.981C132.995 162.041 132.995 158.903 134.679 156.964C136.364 155.024 139.089 155.031 140.773 156.964Z" fill="#9F41EA"/>
<path d="M156.611 138.727C158.295 140.667 158.295 143.804 156.611 145.737C154.926 147.677 152.201 147.677 150.517 145.737C148.833 143.798 148.833 140.66 150.517 138.72C152.201 136.787 154.932 136.787 156.611 138.727Z" fill="#9F41EA"/>
<path d="M172.448 120.49C174.133 122.429 174.127 125.567 172.448 127.507C170.77 129.446 168.039 129.446 166.355 127.507C164.676 125.574 164.676 122.429 166.355 120.49C168.039 118.55 170.77 118.55 172.448 120.49Z" fill="#9F41EA"/>
<path d="M188.292 102.245C189.97 104.184 189.97 107.322 188.292 109.261C186.607 111.194 183.882 111.201 182.198 109.261C180.514 107.322 180.514 104.184 182.198 102.245C183.882 100.312 186.607 100.312 188.292 102.245Z" fill="#9F41EA"/>
<path d="M204.129 84.0082C205.814 85.9478 205.808 89.0855 204.129 91.0184C202.451 92.958 199.72 92.958 198.041 91.0184C196.357 89.0789 196.357 85.9412 198.041 84.0016C199.72 82.0687 202.445 82.0687 204.129 84.0082Z" fill="#9F41EA"/>
<path d="M219.967 65.7711C221.651 67.7106 221.646 70.8484 219.967 72.7879C218.283 74.7275 215.558 74.7275 213.873 72.7879C212.195 70.855 212.189 67.7106 213.873 65.7711C215.558 63.8315 218.288 63.8315 219.967 65.7711Z" fill="#9F41EA"/>
<path d="M64.0163 267.802C65.7007 269.742 65.7007 272.88 64.0163 274.819C62.3319 276.759 59.6071 276.759 57.9227 274.819C56.2383 272.88 56.2383 269.742 57.9227 267.802C59.6013 265.863 62.3319 265.863 64.0163 267.802Z" fill="#9F41EA"/>
<path d="M79.8538 249.559C81.5382 251.499 81.5382 254.636 79.8538 256.576C78.1695 258.515 75.4446 258.515 73.7602 256.576C72.0759 254.636 72.0759 251.499 73.7602 249.559C75.4446 247.626 78.1695 247.626 79.8538 249.559Z" fill="#9F41EA"/>
<path d="M95.6916 231.322C97.376 233.261 97.376 236.399 95.6916 238.339C94.0072 240.278 91.2824 240.278 89.598 238.339C87.9136 236.399 87.9136 233.261 89.598 231.322C91.2824 229.382 94.0072 229.382 95.6916 231.322Z" fill="#9F41EA"/>
<path d="M111.529 213.084C113.214 215.017 113.214 218.161 111.529 220.1C109.845 222.04 107.12 222.04 105.436 220.1C103.751 218.161 103.751 215.023 105.436 213.084C107.12 211.144 109.851 211.144 111.529 213.084Z" fill="#9F41EA"/>
<path d="M127.373 194.846C129.057 196.786 129.057 199.924 127.373 201.863C125.688 203.796 122.963 203.796 121.279 201.863C119.595 199.924 119.595 196.786 121.279 194.853C122.958 192.907 125.688 192.907 127.373 194.846Z" fill="#9F41EA"/>
<path d="M143.21 176.602C144.895 178.542 144.889 181.679 143.21 183.619C141.526 185.558 138.801 185.558 137.117 183.619C135.432 181.679 135.432 178.542 137.117 176.602C138.801 174.669 141.526 174.669 143.21 176.602Z" fill="#9F41EA"/>
<path d="M159.048 158.365C160.732 160.304 160.732 163.442 159.048 165.382C157.364 167.321 154.639 167.321 152.954 165.382C151.27 163.442 151.27 160.304 152.954 158.365C154.639 156.425 157.364 156.425 159.048 158.365Z" fill="#9F41EA"/>
<path d="M174.886 140.128C176.57 142.068 176.57 145.206 174.886 147.145C173.201 149.085 170.476 149.085 168.792 147.145C167.108 145.206 167.108 142.068 168.792 140.128C170.476 138.189 173.207 138.189 174.886 140.128Z" fill="#9F41EA"/>
<path d="M190.723 121.891C192.408 123.824 192.408 126.968 190.723 128.901C189.039 130.841 186.314 130.841 184.63 128.901C182.945 126.962 182.945 123.824 184.63 121.884C186.314 119.951 189.045 119.951 190.723 121.891Z" fill="#9F41EA"/>
<path d="M206.567 103.647C208.245 105.587 208.251 108.724 206.567 110.664C204.882 112.603 202.157 112.603 200.473 110.664C198.789 108.724 198.789 105.587 200.473 103.647C202.157 101.714 204.882 101.714 206.567 103.647Z" fill="#9F41EA"/>
<path d="M222.404 85.4097C224.089 87.3493 224.089 90.487 222.404 92.4266C220.72 94.3661 217.995 94.3661 216.311 92.4266C214.626 90.487 214.626 87.3493 216.311 85.4097C217.995 83.4702 220.72 83.4702 222.404 85.4097Z" fill="#9F41EA"/>
<path d="M238.242 67.1734C239.927 69.1064 239.927 72.2507 238.242 74.1902C236.558 76.1232 233.833 76.1232 232.149 74.1902C230.464 72.2507 230.464 69.113 232.149 67.1734C233.833 65.2339 236.564 65.2339 238.242 67.1734Z" fill="#9F41EA"/>
<path d="M64.6198 288.144C66.3042 290.084 66.3042 293.221 64.6198 295.161C62.9355 297.101 60.2106 297.101 58.5262 295.161C56.8418 293.221 56.8418 290.084 58.5262 288.144C60.2106 286.205 62.9412 286.205 64.6198 288.144Z" fill="#9F41EA"/>
<path d="M80.4632 269.899C82.1476 271.838 82.1476 274.976 80.4632 276.916C78.7789 278.855 76.054 278.855 74.3696 276.916C72.6852 274.976 72.6852 271.838 74.3696 269.899C76.054 267.966 78.7789 267.966 80.4632 269.899Z" fill="#9F41EA"/>
<path d="M96.3009 251.663C97.9852 253.602 97.9852 256.74 96.3009 258.679C94.6165 260.619 91.8916 260.619 90.2072 258.679C88.5229 256.74 88.5229 253.602 90.2072 251.663C91.8916 249.73 94.6165 249.73 96.3009 251.663Z" fill="#9F41EA"/>
<path d="M112.139 233.425C113.823 235.365 113.823 238.503 112.139 240.442C110.454 242.382 107.729 242.382 106.045 240.442C104.361 238.503 104.361 235.365 106.045 233.425C107.729 231.486 110.454 231.486 112.139 233.425Z" fill="#9F41EA"/>
<path d="M127.982 215.189C129.666 217.129 129.666 220.266 127.982 222.206C126.298 224.145 123.573 224.145 121.888 222.206C120.204 220.266 120.204 217.129 121.888 215.189C123.567 213.249 126.298 213.249 127.982 215.189Z" fill="#9F41EA"/>
<path d="M143.82 196.944C145.504 198.883 145.504 202.021 143.82 203.961C142.135 205.9 139.41 205.9 137.726 203.961C136.042 202.021 136.042 198.883 137.726 196.944C139.41 195.011 142.135 195.011 143.82 196.944Z" fill="#9F41EA"/>
<path d="M159.657 178.708C161.342 180.647 161.342 183.785 159.657 185.724C157.973 187.664 155.248 187.664 153.564 185.724C151.879 183.785 151.885 180.647 153.564 178.708C155.248 176.775 157.973 176.775 159.657 178.708Z" fill="#9F41EA"/>
<path d="M175.495 160.47C177.179 162.41 177.179 165.548 175.495 167.487C173.811 169.427 171.086 169.427 169.401 167.487C167.717 165.548 167.717 162.41 169.401 160.47C171.086 158.531 173.811 158.531 175.495 160.47Z" fill="#9F41EA"/>
<path d="M191.338 142.234C193.023 144.174 193.017 147.311 191.338 149.251C189.654 151.19 186.929 151.19 185.245 149.251C183.56 147.311 183.566 144.174 185.245 142.234C186.923 140.294 189.654 140.294 191.338 142.234Z" fill="#9F41EA"/>
<path d="M207.176 123.989C208.86 125.928 208.86 129.066 207.176 131.006C205.492 132.945 202.767 132.945 201.082 131.006C199.398 129.066 199.404 125.928 201.082 123.989C202.767 122.056 205.492 122.056 207.176 123.989Z" fill="#9F41EA"/>
<path d="M223.014 105.752C224.698 107.692 224.698 110.83 223.014 112.769C221.335 114.709 218.604 114.709 216.92 112.769C215.236 110.83 215.241 107.692 216.92 105.752C218.604 103.819 221.329 103.819 223.014 105.752Z" fill="#9F41EA"/>
<path d="M238.851 87.5152C240.536 89.4548 240.53 92.5925 238.851 94.5321C237.167 96.4716 234.442 96.4716 232.758 94.5321C231.073 92.5925 231.073 89.4548 232.758 87.5152C234.442 85.5757 237.173 85.5757 238.851 87.5152Z" fill="#9F41EA"/>
<path d="M82.9008 289.548C84.5852 291.488 84.5852 294.626 82.9008 296.565C81.2164 298.505 78.4916 298.505 76.8072 296.565C75.1286 294.632 75.1286 291.488 76.8072 289.548C78.4916 287.609 81.2164 287.609 82.9008 289.548Z" fill="#9F41EA"/>
<path d="M98.7383 271.303C100.423 273.243 100.423 276.38 98.7383 278.32C97.0539 280.26 94.329 280.26 92.6447 278.32C90.966 276.38 90.9603 273.243 92.6447 271.303C94.329 269.37 97.0539 269.37 98.7383 271.303Z" fill="#9F41EA"/>
<path d="M114.576 253.066C116.26 255.006 116.26 258.143 114.576 260.083C112.892 262.022 110.167 262.022 108.482 260.083C106.798 258.15 106.798 255.006 108.482 253.073C110.167 251.133 112.892 251.133 114.576 253.066Z" fill="#9F41EA"/>
<path d="M130.414 234.83C132.098 236.769 132.098 239.907 130.414 241.847C128.729 243.786 126.004 243.786 124.32 241.847C122.636 239.914 122.636 236.769 124.32 234.83C126.004 232.89 128.735 232.89 130.414 234.83Z" fill="#9F41EA"/>
<path d="M146.257 216.593C147.942 218.533 147.942 221.671 146.257 223.61C144.579 225.55 141.848 225.543 140.164 223.61C138.479 221.677 138.479 218.533 140.164 216.593C141.848 214.654 144.573 214.654 146.257 216.593Z" fill="#9F41EA"/>
<path d="M162.095 198.348C163.779 200.288 163.773 203.425 162.095 205.365C160.41 207.305 157.685 207.305 156.001 205.365C154.322 203.425 154.317 200.288 156.001 198.348C157.685 196.415 160.41 196.415 162.095 198.348Z" fill="#9F41EA"/>
<path d="M177.932 180.112C179.617 182.051 179.617 185.189 177.932 187.128C176.248 189.068 173.523 189.068 171.839 187.128C170.16 185.195 170.154 182.051 171.839 180.118C173.523 178.172 176.248 178.179 177.932 180.112Z" fill="#9F41EA"/>
<path d="M193.77 161.875C195.454 163.814 195.454 166.952 193.77 168.891C192.086 170.831 189.361 170.831 187.676 168.891C185.998 166.958 185.992 163.814 187.676 161.875C189.361 159.935 192.091 159.935 193.77 161.875Z" fill="#9F41EA"/>
<path d="M209.608 143.638C211.292 145.578 211.292 148.716 209.608 150.655C207.923 152.595 205.198 152.595 203.514 150.655C201.835 148.722 201.835 145.578 203.514 143.638C205.204 141.699 207.929 141.699 209.608 143.638Z" fill="#9F41EA"/>
<path d="M225.451 125.393C227.135 127.333 227.135 130.47 225.451 132.41C223.767 134.349 221.042 134.349 219.357 132.41C217.679 130.477 217.679 127.333 219.357 125.393C221.042 123.46 223.767 123.46 225.451 125.393Z" fill="#9F41EA"/>
<path d="M241.289 107.157C242.973 109.096 242.973 112.234 241.289 114.174C239.604 116.113 236.879 116.113 235.195 114.174C233.517 112.234 233.517 109.096 235.195 107.157C236.879 105.224 239.604 105.224 241.289 107.157Z" fill="#9F41EA"/>
<path d="M257.126 88.9195C258.811 90.8591 258.811 93.9968 257.126 95.9363C255.442 97.8759 252.717 97.8759 251.033 95.9363C249.354 94.0034 249.354 90.8591 251.033 88.9195C252.717 86.98 255.448 86.98 257.126 88.9195Z" fill="#9F41EA"/>
<path d="M83.5103 309.888C85.1947 311.828 85.1947 314.966 83.5103 316.905C81.826 318.845 79.1011 318.838 77.4167 316.905C75.7324 314.972 75.7324 311.828 77.4167 309.888C79.1011 307.949 81.826 307.949 83.5103 309.888Z" fill="#9F41EA"/>
<path d="M99.3479 291.652C101.032 293.591 101.032 296.729 99.3479 298.669C97.6636 300.608 94.9387 300.608 93.2543 298.669C91.5757 296.729 91.5757 293.591 93.2543 291.652C94.9387 289.712 97.6636 289.712 99.3479 291.652Z" fill="#9F41EA"/>
<path d="M115.186 273.409C116.864 275.348 116.87 278.486 115.186 280.426C113.501 282.365 110.776 282.358 109.092 280.426C107.408 278.486 107.408 275.348 109.092 273.409C110.776 271.476 113.501 271.476 115.186 273.409Z" fill="#9F41EA"/>
<path d="M131.023 255.171C132.708 257.111 132.708 260.249 131.023 262.188C129.339 264.128 126.614 264.128 124.93 262.188C123.245 260.249 123.245 257.111 124.93 255.171C126.614 253.232 129.345 253.232 131.023 255.171Z" fill="#9F41EA"/>
<path d="M146.861 236.933C148.545 238.873 148.545 242.01 146.861 243.95C145.176 245.89 142.452 245.883 140.767 243.95C139.083 242.01 139.083 238.873 140.767 236.933C142.452 234.994 145.182 234.994 146.861 236.933Z" fill="#9F41EA"/>
<path d="M162.704 218.69C164.389 220.629 164.389 223.767 162.704 225.707C161.02 227.646 158.295 227.64 156.611 225.707C154.926 223.774 154.926 220.629 156.611 218.69C158.295 216.757 161.02 216.757 162.704 218.69Z" fill="#9F41EA"/>
<path d="M178.542 200.454C180.221 202.393 180.226 205.531 178.542 207.47C176.858 209.41 174.133 209.41 172.448 207.47C170.77 205.531 170.77 202.393 172.448 200.454C174.133 198.521 176.858 198.521 178.542 200.454Z" fill="#9F41EA"/>
<path d="M194.38 182.216C196.064 184.155 196.064 187.293 194.38 189.233C192.695 191.172 189.97 191.166 188.286 189.233C186.602 187.293 186.602 184.155 188.286 182.216C189.97 180.276 192.701 180.283 194.38 182.216Z" fill="#9F41EA"/>
<path d="M210.223 163.978C211.907 165.911 211.907 169.055 210.223 170.995C208.539 172.934 205.814 172.934 204.129 170.995C202.451 169.062 202.451 165.918 204.129 163.978C205.808 162.039 208.539 162.039 210.223 163.978Z" fill="#9F41EA"/>
<path d="M226.061 145.735C227.745 147.674 227.745 150.812 226.061 152.752C224.376 154.691 221.651 154.691 219.967 152.752C218.283 150.812 218.288 147.674 219.967 145.735C221.651 143.802 224.376 143.802 226.061 145.735Z" fill="#9F41EA"/>
<path d="M241.898 127.499C243.583 129.438 243.583 132.576 241.898 134.515C240.214 136.455 237.489 136.455 235.805 134.515C234.12 132.576 234.12 129.438 235.805 127.499C237.489 125.566 240.214 125.566 241.898 127.499Z" fill="#9F41EA"/>
<path d="M257.736 109.261C259.42 111.194 259.42 114.338 257.736 116.278C256.052 118.217 253.327 118.211 251.642 116.278C249.964 114.345 249.958 111.2 251.642 109.261C253.327 107.328 256.057 107.321 257.736 109.261Z" fill="#9F41EA"/>
<path d="M101.785 311.295C103.47 313.234 103.47 316.372 101.785 318.311C100.101 320.251 97.3761 320.251 95.6917 318.311C94.0074 316.372 94.0074 313.234 95.6917 311.295C97.3761 309.355 100.101 309.355 101.785 311.295Z" fill="#9F41EA"/>
<path d="M117.623 293.056C119.307 294.996 119.307 298.133 117.623 300.073C115.939 302.013 113.214 302.013 111.529 300.073C109.845 298.133 109.845 294.996 111.529 293.056C113.214 291.117 115.939 291.117 117.623 293.056Z" fill="#9F41EA"/>
<path d="M133.461 274.814C135.145 276.753 135.145 279.891 133.461 281.83C131.776 283.77 129.051 283.77 127.367 281.83C125.683 279.891 125.683 276.753 127.367 274.814C129.051 272.881 131.776 272.874 133.461 274.814Z" fill="#9F41EA"/>
<path d="M149.298 256.576C150.983 258.515 150.983 261.653 149.298 263.593C147.614 265.532 144.889 265.532 143.205 263.593C141.52 261.653 141.52 258.515 143.205 256.576C144.889 254.636 147.62 254.636 149.298 256.576Z" fill="#9F41EA"/>
<path d="M165.142 238.339C166.826 240.279 166.826 243.417 165.142 245.356C163.463 247.296 160.732 247.296 159.048 245.356C157.364 243.417 157.364 240.279 159.048 238.339C160.732 236.4 163.457 236.4 165.142 238.339Z" fill="#9F41EA"/>
<path d="M180.979 220.094C182.664 222.034 182.658 225.171 180.979 227.111C179.295 229.051 176.57 229.051 174.886 227.111C173.201 225.171 173.201 222.034 174.886 220.094C176.57 218.161 179.295 218.161 180.979 220.094Z" fill="#9F41EA"/>
<path d="M193.77 210.324C196.148 210.324 198.076 208.105 198.076 205.366C198.076 202.628 196.148 200.408 193.77 200.408C191.392 200.408 189.464 202.628 189.464 205.366C189.464 208.105 191.392 210.324 193.77 210.324Z" fill="#9F41EA"/>
<path d="M212.655 183.621C214.339 185.56 214.339 188.698 212.655 190.638C210.97 192.577 208.245 192.577 206.561 190.638C204.877 188.698 204.877 185.56 206.561 183.621C208.245 181.681 210.976 181.681 212.655 183.621Z" fill="#9F41EA"/>
<path d="M228.498 165.384C230.183 167.324 230.183 170.462 228.498 172.401C226.814 174.341 224.089 174.341 222.405 172.401C220.72 170.462 220.72 167.324 222.405 165.384C224.089 163.445 226.814 163.445 228.498 165.384Z" fill="#9F41EA"/>
<path d="M244.336 147.146C246.02 149.086 246.02 152.223 244.336 154.163C242.651 156.102 239.927 156.102 238.242 154.163C236.558 152.223 236.564 149.086 238.242 147.146C239.927 145.207 242.651 145.207 244.336 147.146Z" fill="#9F41EA"/>
<path d="M260.173 128.903C261.858 130.842 261.858 133.98 260.173 135.92C258.489 137.859 255.764 137.859 254.08 135.92C252.395 133.98 252.395 130.842 254.08 128.903C255.764 126.97 258.489 126.97 260.173 128.903Z" fill="#9F41EA"/>
<path d="M276.011 110.666C277.696 112.605 277.696 115.743 276.011 117.682C274.327 119.622 271.602 119.622 269.918 117.682C268.233 115.743 268.233 112.605 269.918 110.666C271.602 108.726 274.333 108.726 276.011 110.666Z" fill="#9F41EA"/>
<path d="M102.395 331.636C104.079 333.576 104.079 336.714 102.395 338.653C100.71 340.593 97.9855 340.593 96.3011 338.653C94.6167 336.714 94.6167 333.576 96.3011 331.636C97.9855 329.697 100.71 329.697 102.395 331.636Z" fill="#9F41EA"/>
<path d="M118.232 313.398C119.917 315.338 119.917 318.475 118.232 320.415C116.548 322.354 113.823 322.354 112.139 320.415C110.454 318.482 110.454 315.338 112.139 313.398C113.823 311.458 116.548 311.458 118.232 313.398Z" fill="#9F41EA"/>
<path d="M134.07 295.155C135.754 297.094 135.754 300.232 134.07 302.172C132.386 304.111 129.661 304.111 127.976 302.172C126.292 300.232 126.292 297.094 127.976 295.155C129.661 293.222 132.391 293.222 134.07 295.155Z" fill="#9F41EA"/>
<path d="M149.908 276.918C151.592 278.857 151.592 281.995 149.908 283.934C148.223 285.874 145.498 285.874 143.814 283.934C142.13 281.995 142.13 278.857 143.814 276.918C145.498 274.978 148.229 274.978 149.908 276.918Z" fill="#9F41EA"/>
<path d="M165.751 258.681C167.435 260.621 167.435 263.759 165.751 265.698C164.067 267.638 161.342 267.638 159.657 265.698C157.973 263.765 157.973 260.621 159.657 258.681C161.342 256.742 164.067 256.742 165.751 258.681Z" fill="#9F41EA"/>
<path d="M181.589 240.443C183.273 242.383 183.273 245.52 181.589 247.46C179.904 249.399 177.179 249.393 175.495 247.46C173.811 245.52 173.811 242.383 175.495 240.443C177.179 238.503 179.904 238.503 181.589 240.443Z" fill="#9F41EA"/>
<path d="M197.426 222.2C199.111 224.139 199.111 227.277 197.426 229.217C195.742 231.156 193.017 231.156 191.333 229.217C189.648 227.284 189.648 224.139 191.333 222.2C193.017 220.267 195.742 220.267 197.426 222.2Z" fill="#9F41EA"/>
<path d="M213.264 203.962C214.948 205.902 214.948 209.04 213.264 210.979C211.58 212.919 208.855 212.919 207.17 210.979C205.492 209.04 205.492 205.902 207.17 203.962C208.855 202.023 211.585 202.023 213.264 203.962Z" fill="#9F41EA"/>
<path d="M229.107 185.726C230.792 187.666 230.792 190.803 229.107 192.743C227.423 194.676 224.698 194.683 223.014 192.743C221.329 190.803 221.335 187.666 223.014 185.726C224.698 183.787 227.423 183.787 229.107 185.726Z" fill="#9F41EA"/>
<path d="M244.945 167.488C246.629 169.427 246.629 172.565 244.945 174.505C243.261 176.444 240.536 176.444 238.851 174.505C237.167 172.572 237.173 169.427 238.851 167.488C240.536 165.548 243.261 165.548 244.945 167.488Z" fill="#9F41EA"/>
<path d="M260.783 149.245C262.467 151.184 262.467 154.322 260.783 156.261C259.098 158.201 256.374 158.201 254.689 156.261C253.011 154.322 253.011 151.184 254.689 149.245C256.374 147.312 259.104 147.312 260.783 149.245Z" fill="#9F41EA"/>
<path d="M276.62 131.007C278.305 132.947 278.305 136.085 276.62 138.024C274.936 139.964 272.211 139.964 270.527 138.024C268.842 136.085 268.842 132.947 270.527 131.007C272.211 129.068 274.942 129.068 276.62 131.007Z" fill="#9F41EA"/>
<path d="M120.67 333.039C122.354 334.978 122.354 338.116 120.67 340.055C118.986 341.995 116.261 341.995 114.576 340.055C112.892 338.116 112.892 334.978 114.576 333.039C116.261 331.099 118.986 331.099 120.67 333.039Z" fill="#9F41EA"/>
<path d="M136.508 314.8C138.192 316.74 138.192 319.878 136.508 321.817C134.823 323.757 132.098 323.757 130.414 321.817C128.73 319.878 128.73 316.74 130.414 314.8C132.098 312.861 134.823 312.861 136.508 314.8Z" fill="#9F41EA"/>
<path d="M152.345 296.557C154.029 298.497 154.029 301.634 152.345 303.574C150.661 305.514 147.936 305.514 146.251 303.574C144.567 301.634 144.567 298.497 146.251 296.557C147.936 294.624 150.666 294.624 152.345 296.557Z" fill="#9F41EA"/>
<path d="M168.189 278.32C169.873 280.253 169.873 283.397 168.189 285.337C166.504 287.276 163.779 287.276 162.095 285.337C160.411 283.397 160.411 280.259 162.095 278.32C163.774 276.38 166.504 276.38 168.189 278.32Z" fill="#9F41EA"/>
<path d="M184.026 260.084C185.711 262.023 185.711 265.161 184.026 267.1C182.342 269.033 179.617 269.033 177.938 267.1C176.254 265.161 176.254 262.023 177.938 260.084C179.617 258.144 182.342 258.144 184.026 260.084Z" fill="#9F41EA"/>
<path d="M199.864 241.845C201.542 243.785 201.542 246.923 199.864 248.862C198.179 250.802 195.455 250.802 193.77 248.862C192.086 246.923 192.086 243.785 193.77 241.845C195.455 239.906 198.179 239.906 199.864 241.845Z" fill="#9F41EA"/>
<path d="M215.701 223.602C217.386 225.542 217.386 228.679 215.701 230.619C214.017 232.558 211.292 232.558 209.608 230.619C207.923 228.679 207.923 225.542 209.608 223.602C211.292 221.669 214.023 221.669 215.701 223.602Z" fill="#9F41EA"/>
<path d="M231.545 205.365C233.229 207.304 233.229 210.442 231.545 212.382C229.861 214.321 227.136 214.321 225.451 212.382C223.767 210.442 223.767 207.304 225.451 205.365C227.136 203.425 229.861 203.425 231.545 205.365Z" fill="#9F41EA"/>
<path d="M247.383 187.128C249.067 189.061 249.067 192.206 247.383 194.145C245.698 196.085 242.973 196.085 241.289 194.145C239.605 192.206 239.605 189.068 241.289 187.128C242.973 185.189 245.698 185.189 247.383 187.128Z" fill="#9F41EA"/>
<path d="M263.22 168.89C264.899 170.83 264.905 173.967 263.22 175.907C261.536 177.847 258.811 177.847 257.127 175.907C255.442 173.967 255.442 170.83 257.127 168.89C258.811 166.951 261.536 166.951 263.22 168.89Z" fill="#9F41EA"/>
<path d="M279.058 150.654C280.742 152.587 280.742 155.731 279.058 157.671C277.373 159.61 274.649 159.61 272.964 157.671C271.28 155.731 271.28 152.593 272.964 150.654C274.649 148.714 277.379 148.714 279.058 150.654Z" fill="#9F41EA"/>
<path d="M294.901 132.41C296.586 134.343 296.586 137.487 294.901 139.427C293.217 141.366 290.492 141.366 288.808 139.427C287.123 137.487 287.123 134.349 288.808 132.41C290.486 130.47 293.217 130.47 294.901 132.41Z" fill="#9F41EA"/>
<path d="M121.279 353.38C122.964 355.32 122.964 358.458 121.279 360.397C119.595 362.337 116.87 362.337 115.186 360.397C113.501 358.458 113.501 355.32 115.186 353.38C116.87 351.441 119.595 351.441 121.279 353.38Z" fill="#9F41EA"/>
<path d="M137.117 335.144C138.801 337.084 138.801 340.221 137.117 342.161C135.433 344.1 132.708 344.1 131.023 342.161C129.339 340.221 129.339 337.084 131.023 335.144C132.708 333.205 135.433 333.205 137.117 335.144Z" fill="#9F41EA"/>
<path d="M152.955 316.899C154.639 318.838 154.633 321.976 152.955 323.916C151.27 325.855 148.545 325.855 146.861 323.916C145.177 321.976 145.177 318.838 146.861 316.899C148.545 314.966 151.276 314.966 152.955 316.899Z" fill="#9F41EA"/>
<path d="M168.798 298.663C170.482 300.602 170.482 303.74 168.798 305.679C167.114 307.619 164.389 307.619 162.704 305.679C161.02 303.74 161.02 300.602 162.704 298.663C164.383 296.73 167.114 296.73 168.798 298.663Z" fill="#9F41EA"/>
<path d="M184.636 280.425C186.32 282.365 186.32 285.503 184.636 287.442C182.951 289.382 180.226 289.382 178.542 287.442C176.858 285.503 176.858 282.365 178.542 280.425C180.226 278.486 182.951 278.486 184.636 280.425Z" fill="#9F41EA"/>
<path d="M197.427 270.655C199.805 270.655 201.732 268.435 201.732 265.696C201.732 262.958 199.805 260.738 197.427 260.738C195.049 260.738 193.121 262.958 193.121 265.696C193.121 268.435 195.049 270.655 197.427 270.655Z" fill="#9F41EA"/>
<path d="M216.311 243.951C217.995 245.89 217.995 249.028 216.311 250.968C214.626 252.907 211.902 252.907 210.217 250.968C208.533 249.028 208.533 245.89 210.217 243.951C211.902 242.011 214.632 242.011 216.311 243.951Z" fill="#9F41EA"/>
<path d="M232.149 225.708C233.833 227.648 233.833 230.786 232.149 232.719C230.464 234.658 227.739 234.658 226.055 232.719C224.371 230.779 224.376 227.641 226.055 225.702C227.745 223.775 230.47 223.775 232.149 225.708Z" fill="#9F41EA"/>
<path d="M247.992 207.47C249.676 209.41 249.671 212.548 247.992 214.487C246.308 216.427 243.583 216.427 241.898 214.487C240.214 212.548 240.22 209.41 241.898 207.47C243.583 205.531 246.308 205.531 247.992 207.47Z" fill="#9F41EA"/>
<path d="M263.83 189.234C265.514 191.174 265.514 194.311 263.83 196.251C262.145 198.19 259.42 198.19 257.736 196.251C256.052 194.311 256.057 191.174 257.736 189.234C259.42 187.294 262.145 187.294 263.83 189.234Z" fill="#9F41EA"/>
<path d="M279.667 170.989C281.352 172.928 281.352 176.066 279.667 178.006C277.989 179.945 275.258 179.945 273.574 178.006C271.889 176.066 271.895 172.928 273.574 170.989C275.258 169.056 277.989 169.056 279.667 170.989Z" fill="#9F41EA"/>
<path d="M295.511 152.752C297.195 154.692 297.189 157.83 295.511 159.769C293.826 161.709 291.101 161.709 289.417 159.769C287.733 157.83 287.733 154.692 289.417 152.752C291.101 150.819 293.826 150.819 295.511 152.752Z" fill="#9F41EA"/>
</svg>
