<svg width="82" height="49" viewBox="0 0 82 49" fill="white"  xmlns="http://www.w3.org/2000/svg">
<g clip-path="url(#clip0_112_12914)">
<path d="M5.02506 3.88139C5.75528 3.88139 6.34723 3.28744 6.34723 2.55477C6.34723 1.8221 5.75528 1.22815 5.02506 1.22815C4.29484 1.22815 3.70288 1.8221 3.70288 2.55477C3.70288 3.28744 4.29484 3.88139 5.02506 3.88139Z" fill="#9F41EA"/>
<path d="M13.2257 2.55477C13.2257 3.28856 12.6329 3.88139 11.9035 3.88139C11.1721 3.88139 10.5813 3.28663 10.5813 2.55477C10.5813 1.82291 11.1741 1.22815 11.9035 1.22815C12.6329 1.22815 13.2257 1.82098 13.2257 2.55477Z" fill="#9F41EA"/>
<path d="M18.7799 3.88139C19.5102 3.88139 20.1021 3.28744 20.1021 2.55477C20.1021 1.8221 19.5102 1.22815 18.7799 1.22815C18.0497 1.22815 17.4578 1.8221 17.4578 2.55477C17.4578 3.28744 18.0497 3.88139 18.7799 3.88139Z" fill="#9F41EA"/>
<path d="M25.6584 3.88139C26.3886 3.88139 26.9805 3.28744 26.9805 2.55477C26.9805 1.8221 26.3886 1.22815 25.6584 1.22815C24.9281 1.22815 24.3362 1.8221 24.3362 2.55477C24.3362 3.28744 24.9281 3.88139 25.6584 3.88139Z" fill="#9F41EA"/>
<path d="M32.5348 3.88139C33.265 3.88139 33.857 3.28744 33.857 2.55477C33.857 1.8221 33.265 1.22815 32.5348 1.22815C31.8046 1.22815 31.2126 1.8221 31.2126 2.55477C31.2126 3.28744 31.8046 3.88139 32.5348 3.88139Z" fill="#9F41EA"/>
<path d="M39.4132 3.88139C40.1435 3.88139 40.7354 3.28744 40.7354 2.55477C40.7354 1.8221 40.1435 1.22815 39.4132 1.22815C38.683 1.22815 38.0911 1.8221 38.0911 2.55477C38.0911 3.28744 38.683 3.88139 39.4132 3.88139Z" fill="#9F41EA"/>
<path d="M47.6119 2.55477C47.6119 3.28856 47.0191 3.88139 46.2897 3.88139C45.5584 3.88139 44.9675 3.28663 44.9675 2.55477C44.9675 1.82291 45.5603 1.22815 46.2897 1.22815C47.021 1.22815 47.6119 1.82098 47.6119 2.55477Z" fill="#9F41EA"/>
<path d="M54.4903 2.55477C54.4903 3.28856 53.8975 3.88139 53.1681 3.88139C52.4368 3.88139 51.8459 3.28663 51.8459 2.55477C51.8459 1.82291 52.4387 1.22815 53.1681 1.22815C53.8975 1.22815 54.4903 1.82098 54.4903 2.55477Z" fill="#9F41EA"/>
<path d="M60.0446 3.88139C60.7748 3.88139 61.3668 3.28744 61.3668 2.55477C61.3668 1.8221 60.7748 1.22815 60.0446 1.22815C59.3144 1.22815 58.7224 1.8221 58.7224 2.55477C58.7224 3.28744 59.3144 3.88139 60.0446 3.88139Z" fill="#9F41EA"/>
<path d="M66.923 3.88139C67.6532 3.88139 68.2452 3.28744 68.2452 2.55477C68.2452 1.8221 67.6532 1.22815 66.923 1.22815C66.1928 1.22815 65.6008 1.8221 65.6008 2.55477C65.6008 3.28744 66.1928 3.88139 66.923 3.88139Z" fill="#9F41EA"/>
<path d="M75.1216 2.55477C75.1216 3.28856 74.5289 3.88139 73.7995 3.88139C73.0701 3.88139 72.4773 3.28663 72.4773 2.55477C72.4773 1.82291 73.0701 1.22815 73.7995 1.22815C74.5289 1.22815 75.1216 1.82098 75.1216 2.55477Z" fill="#9F41EA"/>
<path d="M82.0001 2.55477C82.0001 3.28856 81.4073 3.88139 80.6779 3.88139C79.9485 3.88139 79.3557 3.28663 79.3557 2.55477C79.3557 1.82291 79.9485 1.22815 80.6779 1.22815C81.4073 1.22815 82.0001 1.82098 82.0001 2.55477Z" fill="#9F41EA"/>
<path d="M2.64435 6.53463C2.64435 7.26842 2.05159 7.86125 1.32218 7.86125C0.592766 7.86125 0 7.26842 0 6.53463C0 5.80083 0.592766 5.20801 1.32218 5.20801C2.05159 5.20801 2.64435 5.80277 2.64435 6.53463Z" fill="#9F41EA"/>
<path d="M9.52277 6.53463C9.52277 7.26842 8.93001 7.86125 8.20059 7.86125C7.47118 7.86125 6.87842 7.26649 6.87842 6.53463C6.87842 5.80083 7.47118 5.20801 8.20059 5.20801C8.93001 5.20801 9.52277 5.80277 9.52277 6.53463Z" fill="#9F41EA"/>
<path d="M16.3992 6.53463C16.3992 7.26842 15.8065 7.86125 15.0771 7.86125C14.3476 7.86125 13.7549 7.26649 13.7549 6.53463C13.7549 5.80083 14.3476 5.20801 15.0771 5.20801C15.8065 5.20801 16.3992 5.80277 16.3992 6.53463Z" fill="#9F41EA"/>
<path d="M23.2777 6.53463C23.2777 7.26842 22.6849 7.86125 21.9555 7.86125C21.2241 7.86125 20.6333 7.26649 20.6333 6.53463C20.6333 5.80083 21.2261 5.20801 21.9555 5.20801C22.6849 5.20801 23.2777 5.80277 23.2777 6.53463Z" fill="#9F41EA"/>
<path d="M30.1541 6.53463C30.1541 7.26842 29.5614 7.86125 28.8319 7.86125C28.1006 7.86125 27.5098 7.26649 27.5098 6.53463C27.5098 5.80083 28.1025 5.20801 28.8319 5.20801C29.5633 5.20801 30.1541 5.80277 30.1541 6.53463Z" fill="#9F41EA"/>
<path d="M37.0325 6.53463C37.0325 7.26842 36.4398 7.86125 35.7104 7.86125C34.979 7.86125 34.3882 7.26649 34.3882 6.53463C34.3882 5.80083 34.981 5.20801 35.7104 5.20801C36.4398 5.20801 37.0325 5.80277 37.0325 6.53463Z" fill="#9F41EA"/>
<path d="M43.909 6.53463C43.909 7.26842 43.3162 7.86125 42.5868 7.86125C41.8574 7.86125 41.2646 7.26649 41.2646 6.53463C41.2646 5.80083 41.8574 5.20801 42.5868 5.20801C43.3162 5.20801 43.909 5.80277 43.909 6.53463Z" fill="#9F41EA"/>
<path d="M50.7874 6.53463C50.7874 7.26842 50.1947 7.86125 49.4652 7.86125C48.7358 7.86125 48.1431 7.26649 48.1431 6.53463C48.1431 5.80083 48.7358 5.20801 49.4652 5.20801C50.1947 5.20801 50.7874 5.80277 50.7874 6.53463Z" fill="#9F41EA"/>
<path d="M57.6639 6.53463C57.6639 7.26842 57.0711 7.86125 56.3417 7.86125C55.6104 7.86125 55.0195 7.26649 55.0195 6.53463C55.0195 5.80083 55.6123 5.20801 56.3417 5.20801C57.0711 5.20801 57.6639 5.80277 57.6639 6.53463Z" fill="#9F41EA"/>
<path d="M64.5423 6.53463C64.5423 7.26842 63.9495 7.86125 63.2201 7.86125C62.4907 7.86125 61.8979 7.26649 61.8979 6.53463C61.8979 5.80083 62.4907 5.20801 63.2201 5.20801C63.9495 5.20801 64.5423 5.80277 64.5423 6.53463Z" fill="#9F41EA"/>
<path d="M71.4188 6.53463C71.4188 7.26842 70.826 7.86125 70.0966 7.86125C69.3653 7.86125 68.7744 7.26649 68.7744 6.53463C68.7744 5.80083 69.3672 5.20801 70.0966 5.20801C70.826 5.20801 71.4188 5.80277 71.4188 6.53463Z" fill="#9F41EA"/>
<path d="M78.2952 6.53463C78.2952 7.26842 77.7025 7.86125 76.9731 7.86125C76.2437 7.86125 75.6509 7.26649 75.6509 6.53463C75.6509 5.80083 76.2437 5.20801 76.9731 5.20801C77.7025 5.20801 78.2952 5.80277 78.2952 6.53463Z" fill="#9F41EA"/>
<path d="M6.34919 10.7829C6.34919 11.5167 5.75642 12.1095 5.02701 12.1095C4.2976 12.1095 3.70483 11.5148 3.70483 10.7829C3.70483 10.0491 4.2976 9.4563 5.02701 9.4563C5.75642 9.4563 6.34919 10.0491 6.34919 10.7829Z" fill="#9F41EA"/>
<path d="M13.2257 10.7829C13.2257 11.5167 12.6329 12.1095 11.9035 12.1095C11.1721 12.1095 10.5813 11.5148 10.5813 10.7829C10.5813 10.0491 11.1741 9.4563 11.9035 9.4563C12.6329 9.45437 13.2257 10.0491 13.2257 10.7829Z" fill="#9F41EA"/>
<path d="M20.1041 10.7829C20.1041 11.5167 19.5113 12.1095 18.7819 12.1095C18.0506 12.1095 17.4597 11.5148 17.4597 10.7829C17.4597 10.0491 18.0525 9.4563 18.7819 9.4563C19.5113 9.45437 20.1041 10.0491 20.1041 10.7829Z" fill="#9F41EA"/>
<path d="M26.9805 10.7829C26.9805 11.5167 26.3878 12.1095 25.6584 12.1095C24.929 12.1095 24.3362 11.5148 24.3362 10.7829C24.3362 10.0491 24.929 9.4563 25.6584 9.4563C26.3878 9.4563 26.9805 10.0491 26.9805 10.7829Z" fill="#9F41EA"/>
<path d="M33.857 10.7829C33.857 11.5167 33.2642 12.1095 32.5348 12.1095C31.8035 12.1095 31.2126 11.5148 31.2126 10.7829C31.2126 10.0491 31.8054 9.4563 32.5348 9.4563C33.2662 9.45437 33.857 10.0491 33.857 10.7829Z" fill="#9F41EA"/>
<path d="M40.7354 10.7829C40.7354 11.5167 40.1427 12.1095 39.4132 12.1095C38.6819 12.1095 38.0911 11.5148 38.0911 10.7829C38.0911 10.0491 38.6838 9.4563 39.4132 9.4563C40.1427 9.45437 40.7354 10.0491 40.7354 10.7829Z" fill="#9F41EA"/>
<path d="M47.6119 10.7829C47.6119 11.5167 47.0191 12.1095 46.2897 12.1095C45.5584 12.1095 44.9675 11.5148 44.9675 10.7829C44.9675 10.0491 45.5603 9.4563 46.2897 9.4563C47.021 9.45437 47.6119 10.0491 47.6119 10.7829Z" fill="#9F41EA"/>
<path d="M54.4903 10.7829C54.4903 11.5167 53.8975 12.1095 53.1681 12.1095C52.4368 12.1095 51.8459 11.5148 51.8459 10.7829C51.8459 10.0491 52.4387 9.4563 53.1681 9.4563C53.8975 9.45437 54.4903 10.0491 54.4903 10.7829Z" fill="#9F41EA"/>
<path d="M61.3668 10.7829C61.3668 11.5167 60.774 12.1095 60.0446 12.1095C59.3152 12.1095 58.7224 11.5148 58.7224 10.7829C58.7224 10.0491 59.3152 9.4563 60.0446 9.4563C60.7759 9.45437 61.3668 10.0491 61.3668 10.7829Z" fill="#9F41EA"/>
<path d="M68.2452 10.7829C68.2452 11.5167 67.6524 12.1095 66.923 12.1095C66.1936 12.1095 65.6008 11.5148 65.6008 10.7829C65.6008 10.0491 66.1936 9.4563 66.923 9.4563C67.6524 9.4563 68.2452 10.0491 68.2452 10.7829Z" fill="#9F41EA"/>
<path d="M75.1216 10.7829C75.1216 11.5167 74.5289 12.1095 73.7995 12.1095C73.0701 12.1095 72.4773 11.5148 72.4773 10.7829C72.4773 10.0491 73.0701 9.4563 73.7995 9.4563C74.5289 9.45437 75.1216 10.0491 75.1216 10.7829Z" fill="#9F41EA"/>
<path d="M82.0001 10.7829C82.0001 11.5167 81.4073 12.1095 80.6779 12.1095C79.9485 12.1095 79.3557 11.5148 79.3557 10.7829C79.3557 10.0491 79.9485 9.4563 80.6779 9.4563C81.4073 9.45437 82.0001 10.0491 82.0001 10.7829Z" fill="#9F41EA"/>
<path d="M2.64435 14.7628C2.64435 15.4946 2.05159 16.0894 1.32218 16.0894C0.592766 16.0894 0 15.4966 0 14.7628C0 14.029 0.592766 13.4362 1.32218 13.4362C2.05159 13.4362 2.64435 14.0309 2.64435 14.7628Z" fill="#9F41EA"/>
<path d="M9.52277 14.7628C9.52277 15.4946 8.93001 16.0894 8.20059 16.0894C7.47118 16.0894 6.87842 15.4946 6.87842 14.7628C6.87842 14.029 7.47118 13.4362 8.20059 13.4362C8.93001 13.4362 9.52277 14.0309 9.52277 14.7628Z" fill="#9F41EA"/>
<path d="M16.3992 14.7628C16.3992 15.4946 15.8065 16.0894 15.0771 16.0894C14.3476 16.0894 13.7549 15.4946 13.7549 14.7628C13.7549 14.029 14.3476 13.4362 15.0771 13.4362C15.8065 13.4362 16.3992 14.0309 16.3992 14.7628Z" fill="#9F41EA"/>
<path d="M23.2777 14.7628C23.2777 15.4946 22.6849 16.0894 21.9555 16.0894C21.2241 16.0894 20.6333 15.4946 20.6333 14.7628C20.6333 14.029 21.2261 13.4362 21.9555 13.4362C22.6849 13.4362 23.2777 14.0309 23.2777 14.7628Z" fill="#9F41EA"/>
<path d="M30.1541 14.7628C30.1541 15.4946 29.5614 16.0894 28.8319 16.0894C28.1006 16.0894 27.5098 15.4946 27.5098 14.7628C27.5098 14.029 28.1025 13.4362 28.8319 13.4362C29.5633 13.4362 30.1541 14.0309 30.1541 14.7628Z" fill="#9F41EA"/>
<path d="M37.0325 14.7628C37.0325 15.4946 36.4398 16.0894 35.7104 16.0894C34.979 16.0894 34.3882 15.4946 34.3882 14.7628C34.3882 14.029 34.981 13.4362 35.7104 13.4362C36.4398 13.4362 37.0325 14.0309 37.0325 14.7628Z" fill="#9F41EA"/>
<path d="M43.909 14.7628C43.909 15.4946 43.3162 16.0894 42.5868 16.0894C41.8574 16.0894 41.2646 15.4946 41.2646 14.7628C41.2646 14.029 41.8574 13.4362 42.5868 13.4362C43.3162 13.4362 43.909 14.0309 43.909 14.7628Z" fill="#9F41EA"/>
<path d="M50.7874 14.7628C50.7874 15.4946 50.1947 16.0894 49.4652 16.0894C48.7358 16.0894 48.1431 15.4946 48.1431 14.7628C48.1431 14.029 48.7358 13.4362 49.4652 13.4362C50.1947 13.4362 50.7874 14.0309 50.7874 14.7628Z" fill="#9F41EA"/>
<path d="M57.6639 14.7628C57.6639 15.4946 57.0711 16.0894 56.3417 16.0894C55.6104 16.0894 55.0195 15.4946 55.0195 14.7628C55.0195 14.029 55.6123 13.4362 56.3417 13.4362C57.0711 13.4362 57.6639 14.0309 57.6639 14.7628Z" fill="#9F41EA"/>
<path d="M64.5423 14.7628C64.5423 15.4946 63.9495 16.0894 63.2201 16.0894C62.4907 16.0894 61.8979 15.4946 61.8979 14.7628C61.8979 14.029 62.4907 13.4362 63.2201 13.4362C63.9495 13.4362 64.5423 14.0309 64.5423 14.7628Z" fill="#9F41EA"/>
<path d="M71.4188 14.7628C71.4188 15.4946 70.826 16.0894 70.0966 16.0894C69.3653 16.0894 68.7744 15.4946 68.7744 14.7628C68.7744 14.029 69.3672 13.4362 70.0966 13.4362C70.826 13.4362 71.4188 14.0309 71.4188 14.7628Z" fill="#9F41EA"/>
<path d="M78.2952 14.7628C78.2952 15.4946 77.7025 16.0894 76.9731 16.0894C76.2437 16.0894 75.6509 15.4946 75.6509 14.7628C75.6509 14.029 76.2437 13.4362 76.9731 13.4362C77.7025 13.4362 78.2952 14.0309 78.2952 14.7628Z" fill="#9F41EA"/>
<path d="M5.02506 20.3357C5.75528 20.3357 6.34723 19.7418 6.34723 19.0091C6.34723 18.2764 5.75528 17.6825 5.02506 17.6825C4.29484 17.6825 3.70288 18.2764 3.70288 19.0091C3.70288 19.7418 4.29484 20.3357 5.02506 20.3357Z" fill="#9F41EA"/>
<path d="M13.2257 19.0091C13.2257 19.7429 12.6329 20.3357 11.9035 20.3357C11.1721 20.3357 10.5813 19.741 10.5813 19.0091C10.5813 18.2773 11.1741 17.6825 11.9035 17.6825C12.6329 17.6825 13.2257 18.2773 13.2257 19.0091Z" fill="#9F41EA"/>
<path d="M18.7799 20.3357C19.5102 20.3357 20.1021 19.7418 20.1021 19.0091C20.1021 18.2764 19.5102 17.6825 18.7799 17.6825C18.0497 17.6825 17.4578 18.2764 17.4578 19.0091C17.4578 19.7418 18.0497 20.3357 18.7799 20.3357Z" fill="#9F41EA"/>
<path d="M25.6584 20.3357C26.3886 20.3357 26.9805 19.7418 26.9805 19.0091C26.9805 18.2764 26.3886 17.6825 25.6584 17.6825C24.9281 17.6825 24.3362 18.2764 24.3362 19.0091C24.3362 19.7418 24.9281 20.3357 25.6584 20.3357Z" fill="#9F41EA"/>
<path d="M32.5348 20.3357C33.265 20.3357 33.857 19.7418 33.857 19.0091C33.857 18.2764 33.265 17.6825 32.5348 17.6825C31.8046 17.6825 31.2126 18.2764 31.2126 19.0091C31.2126 19.7418 31.8046 20.3357 32.5348 20.3357Z" fill="#9F41EA"/>
<path d="M39.4132 20.3357C40.1435 20.3357 40.7354 19.7418 40.7354 19.0091C40.7354 18.2764 40.1435 17.6825 39.4132 17.6825C38.683 17.6825 38.0911 18.2764 38.0911 19.0091C38.0911 19.7418 38.683 20.3357 39.4132 20.3357Z" fill="#9F41EA"/>
<path d="M47.6119 19.0091C47.6119 19.7429 47.0191 20.3357 46.2897 20.3357C45.5584 20.3357 44.9675 19.741 44.9675 19.0091C44.9675 18.2773 45.5603 17.6825 46.2897 17.6825C47.021 17.6825 47.6119 18.2773 47.6119 19.0091Z" fill="#9F41EA"/>
<path d="M54.4903 19.0091C54.4903 19.7429 53.8975 20.3357 53.1681 20.3357C52.4368 20.3357 51.8459 19.741 51.8459 19.0091C51.8459 18.2773 52.4387 17.6825 53.1681 17.6825C53.8975 17.6825 54.4903 18.2773 54.4903 19.0091Z" fill="#9F41EA"/>
<path d="M60.0446 20.3357C60.7748 20.3357 61.3668 19.7418 61.3668 19.0091C61.3668 18.2764 60.7748 17.6825 60.0446 17.6825C59.3144 17.6825 58.7224 18.2764 58.7224 19.0091C58.7224 19.7418 59.3144 20.3357 60.0446 20.3357Z" fill="#9F41EA"/>
<path d="M66.923 20.3357C67.6532 20.3357 68.2452 19.7418 68.2452 19.0091C68.2452 18.2764 67.6532 17.6825 66.923 17.6825C66.1928 17.6825 65.6008 18.2764 65.6008 19.0091C65.6008 19.7418 66.1928 20.3357 66.923 20.3357Z" fill="#9F41EA"/>
<path d="M75.1216 19.0091C75.1216 19.7429 74.5289 20.3357 73.7995 20.3357C73.0701 20.3357 72.4773 19.741 72.4773 19.0091C72.4773 18.2773 73.0701 17.6825 73.7995 17.6825C74.5289 17.6825 75.1216 18.2773 75.1216 19.0091Z" fill="#9F41EA"/>
<path d="M82.0001 19.0091C82.0001 19.7429 81.4073 20.3357 80.6779 20.3357C79.9485 20.3357 79.3557 19.741 79.3557 19.0091C79.3557 18.2773 79.9485 17.6825 80.6779 17.6825C81.4073 17.6825 82.0001 18.2773 82.0001 19.0091Z" fill="#9F41EA"/>
<path d="M1.32218 24.3175C2.0524 24.3175 2.64435 23.7236 2.64435 22.9909C2.64435 22.2583 2.0524 21.6643 1.32218 21.6643C0.591959 21.6643 0 22.2583 0 22.9909C0 23.7236 0.591959 24.3175 1.32218 24.3175Z" fill="#9F41EA"/>
<path d="M8.20059 24.3175C8.93081 24.3175 9.52277 23.7236 9.52277 22.9909C9.52277 22.2583 8.93081 21.6643 8.20059 21.6643C7.47038 21.6643 6.87842 22.2583 6.87842 22.9909C6.87842 23.7236 7.47038 24.3175 8.20059 24.3175Z" fill="#9F41EA"/>
<path d="M15.0771 24.3175C15.8073 24.3175 16.3992 23.7236 16.3992 22.9909C16.3992 22.2583 15.8073 21.6643 15.0771 21.6643C14.3468 21.6643 13.7549 22.2583 13.7549 22.9909C13.7549 23.7236 14.3468 24.3175 15.0771 24.3175Z" fill="#9F41EA"/>
<path d="M21.9555 24.3175C22.6857 24.3175 23.2777 23.7236 23.2777 22.9909C23.2777 22.2583 22.6857 21.6643 21.9555 21.6643C21.2253 21.6643 20.6333 22.2583 20.6333 22.9909C20.6333 23.7236 21.2253 24.3175 21.9555 24.3175Z" fill="#9F41EA"/>
<path d="M28.8319 24.3175C29.5622 24.3175 30.1541 23.7236 30.1541 22.9909C30.1541 22.2583 29.5622 21.6643 28.8319 21.6643C28.1017 21.6643 27.5098 22.2583 27.5098 22.9909C27.5098 23.7236 28.1017 24.3175 28.8319 24.3175Z" fill="#9F41EA"/>
<path d="M35.7084 24.3175C36.4386 24.3175 37.0306 23.7236 37.0306 22.9909C37.0306 22.2583 36.4386 21.6643 35.7084 21.6643C34.9782 21.6643 34.3862 22.2583 34.3862 22.9909C34.3862 23.7236 34.9782 24.3175 35.7084 24.3175Z" fill="#9F41EA"/>
<path d="M42.5868 24.3175C43.317 24.3175 43.909 23.7236 43.909 22.9909C43.909 22.2583 43.317 21.6643 42.5868 21.6643C41.8566 21.6643 41.2646 22.2583 41.2646 22.9909C41.2646 23.7236 41.8566 24.3175 42.5868 24.3175Z" fill="#9F41EA"/>
<path d="M49.4633 24.3175C50.1935 24.3175 50.7855 23.7236 50.7855 22.9909C50.7855 22.2583 50.1935 21.6643 49.4633 21.6643C48.7331 21.6643 48.1411 22.2583 48.1411 22.9909C48.1411 23.7236 48.7331 24.3175 49.4633 24.3175Z" fill="#9F41EA"/>
<path d="M57.6639 22.9909C57.6639 23.7228 57.0711 24.3175 56.3417 24.3175C55.6104 24.3175 55.0195 23.7228 55.0195 22.9909C55.0195 22.2591 55.6123 21.6643 56.3417 21.6643C57.0711 21.6643 57.6639 22.2571 57.6639 22.9909Z" fill="#9F41EA"/>
<path d="M64.5423 22.9909C64.5423 23.7228 63.9495 24.3175 63.2201 24.3175C62.4907 24.3175 61.8979 23.7228 61.8979 22.9909C61.8979 22.2591 62.4907 21.6643 63.2201 21.6643C63.9495 21.6643 64.5423 22.2571 64.5423 22.9909Z" fill="#9F41EA"/>
<path d="M71.4188 22.9909C71.4188 23.7228 70.826 24.3175 70.0966 24.3175C69.3653 24.3175 68.7744 23.7228 68.7744 22.9909C68.7744 22.2591 69.3672 21.6643 70.0966 21.6643C70.826 21.6643 71.4188 22.2571 71.4188 22.9909Z" fill="#9F41EA"/>
<path d="M76.9731 24.3175C77.7033 24.3175 78.2952 23.7236 78.2952 22.9909C78.2952 22.2583 77.7033 21.6643 76.9731 21.6643C76.2428 21.6643 75.6509 22.2583 75.6509 22.9909C75.6509 23.7236 76.2428 24.3175 76.9731 24.3175Z" fill="#9F41EA"/>
<path d="M6.34919 27.2373C6.34919 27.9711 5.75642 28.5639 5.02701 28.5639C4.2976 28.5639 3.70483 27.9691 3.70483 27.2373C3.70483 26.5054 4.2976 25.9106 5.02701 25.9106C5.75642 25.9106 6.34919 26.5035 6.34919 27.2373Z" fill="#9F41EA"/>
<path d="M13.2257 27.2373C13.2257 27.9711 12.6329 28.5639 11.9035 28.5639C11.1721 28.5639 10.5813 27.9691 10.5813 27.2373C10.5813 26.5054 11.1741 25.9106 11.9035 25.9106C12.6329 25.9106 13.2257 26.5035 13.2257 27.2373Z" fill="#9F41EA"/>
<path d="M20.1041 27.2373C20.1041 27.9711 19.5113 28.5639 18.7819 28.5639C18.0506 28.5639 17.4597 27.9691 17.4597 27.2373C17.4597 26.5054 18.0525 25.9106 18.7819 25.9106C19.5113 25.9106 20.1041 26.5035 20.1041 27.2373Z" fill="#9F41EA"/>
<path d="M26.9805 27.2373C26.9805 27.9711 26.3878 28.5639 25.6584 28.5639C24.929 28.5639 24.3362 27.9691 24.3362 27.2373C24.3362 26.5054 24.929 25.9106 25.6584 25.9106C26.3878 25.9106 26.9805 26.5035 26.9805 27.2373Z" fill="#9F41EA"/>
<path d="M33.857 27.2373C33.857 27.9711 33.2642 28.5639 32.5348 28.5639C31.8035 28.5639 31.2126 27.9691 31.2126 27.2373C31.2126 26.5054 31.8054 25.9106 32.5348 25.9106C33.2662 25.9106 33.857 26.5035 33.857 27.2373Z" fill="#9F41EA"/>
<path d="M40.7354 27.2373C40.7354 27.9711 40.1427 28.5639 39.4132 28.5639C38.6819 28.5639 38.0911 27.9691 38.0911 27.2373C38.0911 26.5054 38.6838 25.9106 39.4132 25.9106C40.1427 25.9106 40.7354 26.5035 40.7354 27.2373Z" fill="#9F41EA"/>
<path d="M47.6119 27.2373C47.6119 27.9711 47.0191 28.5639 46.2897 28.5639C45.5584 28.5639 44.9675 27.9691 44.9675 27.2373C44.9675 26.5054 45.5603 25.9106 46.2897 25.9106C47.021 25.9106 47.6119 26.5035 47.6119 27.2373Z" fill="#9F41EA"/>
<path d="M54.4903 27.2373C54.4903 27.9711 53.8975 28.5639 53.1681 28.5639C52.4368 28.5639 51.8459 27.9691 51.8459 27.2373C51.8459 26.5054 52.4387 25.9106 53.1681 25.9106C53.8975 25.9106 54.4903 26.5035 54.4903 27.2373Z" fill="#9F41EA"/>
<path d="M61.3668 27.2373C61.3668 27.9711 60.774 28.5639 60.0446 28.5639C59.3152 28.5639 58.7224 27.9691 58.7224 27.2373C58.7224 26.5054 59.3152 25.9106 60.0446 25.9106C60.7759 25.9106 61.3668 26.5035 61.3668 27.2373Z" fill="#9F41EA"/>
<path d="M68.2452 27.2373C68.2452 27.9711 67.6524 28.5639 66.923 28.5639C66.1936 28.5639 65.6008 27.9691 65.6008 27.2373C65.6008 26.5054 66.1936 25.9106 66.923 25.9106C67.6524 25.9106 68.2452 26.5035 68.2452 27.2373Z" fill="#9F41EA"/>
<path d="M75.1216 27.2373C75.1216 27.9711 74.5289 28.5639 73.7995 28.5639C73.0701 28.5639 72.4773 27.9691 72.4773 27.2373C72.4773 26.5054 73.0701 25.9106 73.7995 25.9106C74.5289 25.9106 75.1216 26.5035 75.1216 27.2373Z" fill="#9F41EA"/>
<path d="M82.0001 27.2373C82.0001 27.9711 81.4073 28.5639 80.6779 28.5639C79.9485 28.5639 79.3557 27.9691 79.3557 27.2373C79.3557 26.5054 79.9485 25.9106 80.6779 25.9106C81.4073 25.9106 82.0001 26.5035 82.0001 27.2373Z" fill="#9F41EA"/>
<path d="M2.64435 31.2171C2.64435 31.9509 2.05159 32.5437 1.32218 32.5437C0.592766 32.5437 0 31.9509 0 31.2171C0 30.4833 0.592766 29.8905 1.32218 29.8905C2.05159 29.8905 2.64435 30.4853 2.64435 31.2171Z" fill="#9F41EA"/>
<path d="M9.52277 31.2171C9.52277 31.9509 8.93001 32.5437 8.20059 32.5437C7.47118 32.5437 6.87842 31.949 6.87842 31.2171C6.87842 30.4833 7.47118 29.8905 8.20059 29.8905C8.93001 29.8905 9.52277 30.4853 9.52277 31.2171Z" fill="#9F41EA"/>
<path d="M16.3992 31.2171C16.3992 31.9509 15.8065 32.5437 15.0771 32.5437C14.3476 32.5437 13.7549 31.949 13.7549 31.2171C13.7549 30.4833 14.3476 29.8905 15.0771 29.8905C15.8065 29.8905 16.3992 30.4853 16.3992 31.2171Z" fill="#9F41EA"/>
<path d="M23.2777 31.2171C23.2777 31.9509 22.6849 32.5437 21.9555 32.5437C21.2241 32.5437 20.6333 31.949 20.6333 31.2171C20.6333 30.4833 21.2261 29.8905 21.9555 29.8905C22.6849 29.8905 23.2777 30.4853 23.2777 31.2171Z" fill="#9F41EA"/>
<path d="M30.1541 31.2171C30.1541 31.9509 29.5614 32.5437 28.8319 32.5437C28.1006 32.5437 27.5098 31.949 27.5098 31.2171C27.5098 30.4833 28.1025 29.8905 28.8319 29.8905C29.5633 29.8905 30.1541 30.4853 30.1541 31.2171Z" fill="#9F41EA"/>
<path d="M37.0325 31.2171C37.0325 31.9509 36.4398 32.5437 35.7104 32.5437C34.979 32.5437 34.3882 31.949 34.3882 31.2171C34.3882 30.4833 34.981 29.8905 35.7104 29.8905C36.4398 29.8905 37.0325 30.4853 37.0325 31.2171Z" fill="#9F41EA"/>
<path d="M43.909 31.2171C43.909 31.9509 43.3162 32.5437 42.5868 32.5437C41.8574 32.5437 41.2646 31.949 41.2646 31.2171C41.2646 30.4833 41.8574 29.8905 42.5868 29.8905C43.3162 29.8905 43.909 30.4853 43.909 31.2171Z" fill="#9F41EA"/>
<path d="M50.7874 31.2171C50.7874 31.9509 50.1947 32.5437 49.4652 32.5437C48.7358 32.5437 48.1431 31.949 48.1431 31.2171C48.1431 30.4833 48.7358 29.8905 49.4652 29.8905C50.1947 29.8905 50.7874 30.4853 50.7874 31.2171Z" fill="#9F41EA"/>
<path d="M57.6639 31.2171C57.6639 31.9509 57.0711 32.5437 56.3417 32.5437C55.6104 32.5437 55.0195 31.949 55.0195 31.2171C55.0195 30.4833 55.6123 29.8905 56.3417 29.8905C57.0711 29.8905 57.6639 30.4853 57.6639 31.2171Z" fill="#9F41EA"/>
<path d="M64.5423 31.2171C64.5423 31.9509 63.9495 32.5437 63.2201 32.5437C62.4907 32.5437 61.8979 31.949 61.8979 31.2171C61.8979 30.4833 62.4907 29.8905 63.2201 29.8905C63.9495 29.8905 64.5423 30.4853 64.5423 31.2171Z" fill="#9F41EA"/>
<path d="M71.4188 31.2171C71.4188 31.9509 70.826 32.5437 70.0966 32.5437C69.3653 32.5437 68.7744 31.949 68.7744 31.2171C68.7744 30.4833 69.3672 29.8905 70.0966 29.8905C70.826 29.8905 71.4188 30.4853 71.4188 31.2171Z" fill="#9F41EA"/>
<path d="M78.2952 31.2171C78.2952 31.9509 77.7025 32.5437 76.9731 32.5437C76.2437 32.5437 75.6509 31.949 75.6509 31.2171C75.6509 30.4833 76.2437 29.8905 76.9731 29.8905C77.7025 29.8905 78.2952 30.4853 78.2952 31.2171Z" fill="#9F41EA"/>
<path d="M6.34919 35.4654C6.34919 36.1973 5.75642 36.792 5.02701 36.792C4.2976 36.792 3.70483 36.1973 3.70483 35.4654C3.70483 34.7316 4.2976 34.1388 5.02701 34.1388C5.75642 34.1388 6.34919 34.7316 6.34919 35.4654Z" fill="#9F41EA"/>
<path d="M13.2257 35.4654C13.2257 36.1973 12.6329 36.792 11.9035 36.792C11.1721 36.792 10.5813 36.1973 10.5813 35.4654C10.5813 34.7316 11.1741 34.1388 11.9035 34.1388C12.6329 34.1369 13.2257 34.7316 13.2257 35.4654Z" fill="#9F41EA"/>
<path d="M20.1041 35.4654C20.1041 36.1973 19.5113 36.792 18.7819 36.792C18.0506 36.792 17.4597 36.1973 17.4597 35.4654C17.4597 34.7316 18.0525 34.1388 18.7819 34.1388C19.5113 34.1369 20.1041 34.7316 20.1041 35.4654Z" fill="#9F41EA"/>
<path d="M26.9805 35.4654C26.9805 36.1973 26.3878 36.792 25.6584 36.792C24.929 36.792 24.3362 36.1973 24.3362 35.4654C24.3362 34.7316 24.929 34.1388 25.6584 34.1388C26.3878 34.1388 26.9805 34.7316 26.9805 35.4654Z" fill="#9F41EA"/>
<path d="M33.857 35.4654C33.857 36.1973 33.2642 36.792 32.5348 36.792C31.8035 36.792 31.2126 36.1973 31.2126 35.4654C31.2126 34.7316 31.8054 34.1388 32.5348 34.1388C33.2662 34.1369 33.857 34.7316 33.857 35.4654Z" fill="#9F41EA"/>
<path d="M40.7354 35.4654C40.7354 36.1973 40.1427 36.792 39.4132 36.792C38.6819 36.792 38.0911 36.1973 38.0911 35.4654C38.0911 34.7316 38.6838 34.1388 39.4132 34.1388C40.1427 34.1369 40.7354 34.7316 40.7354 35.4654Z" fill="#9F41EA"/>
<path d="M47.6119 35.4654C47.6119 36.1973 47.0191 36.792 46.2897 36.792C45.5584 36.792 44.9675 36.1973 44.9675 35.4654C44.9675 34.7316 45.5603 34.1388 46.2897 34.1388C47.021 34.1369 47.6119 34.7316 47.6119 35.4654Z" fill="#9F41EA"/>
<path d="M54.4903 35.4654C54.4903 36.1973 53.8975 36.792 53.1681 36.792C52.4368 36.792 51.8459 36.1973 51.8459 35.4654C51.8459 34.7316 52.4387 34.1388 53.1681 34.1388C53.8975 34.1369 54.4903 34.7316 54.4903 35.4654Z" fill="#9F41EA"/>
<path d="M61.3668 35.4654C61.3668 36.1973 60.774 36.792 60.0446 36.792C59.3152 36.792 58.7224 36.1973 58.7224 35.4654C58.7224 34.7316 59.3152 34.1388 60.0446 34.1388C60.7759 34.1369 61.3668 34.7316 61.3668 35.4654Z" fill="#9F41EA"/>
<path d="M68.2452 35.4654C68.2452 36.1973 67.6524 36.792 66.923 36.792C66.1936 36.792 65.6008 36.1973 65.6008 35.4654C65.6008 34.7316 66.1936 34.1388 66.923 34.1388C67.6524 34.1388 68.2452 34.7316 68.2452 35.4654Z" fill="#9F41EA"/>
<path d="M75.1216 35.4654C75.1216 36.1973 74.5289 36.792 73.7995 36.792C73.0701 36.792 72.4773 36.1973 72.4773 35.4654C72.4773 34.7316 73.0701 34.1388 73.7995 34.1388C74.5289 34.1369 75.1216 34.7316 75.1216 35.4654Z" fill="#9F41EA"/>
<path d="M82.0001 35.4654C82.0001 36.1973 81.4073 36.792 80.6779 36.792C79.9485 36.792 79.3557 36.1973 79.3557 35.4654C79.3557 34.7316 79.9485 34.1388 80.6779 34.1388C81.4073 34.1369 82.0001 34.7316 82.0001 35.4654Z" fill="#9F41EA"/>
<path d="M2.64435 39.4453C2.64435 40.1791 2.05159 40.7719 1.32218 40.7719C0.592766 40.7719 0 40.1791 0 39.4453C0 38.7134 0.592766 38.1187 1.32218 38.1187C2.05159 38.1187 2.64435 38.7134 2.64435 39.4453Z" fill="#9F41EA"/>
<path d="M9.52277 39.4453C9.52277 40.1791 8.93001 40.7719 8.20059 40.7719C7.47118 40.7719 6.87842 40.1771 6.87842 39.4453C6.87842 38.7134 7.47118 38.1187 8.20059 38.1187C8.93001 38.1187 9.52277 38.7134 9.52277 39.4453Z" fill="#9F41EA"/>
<path d="M16.3992 39.4453C16.3992 40.1791 15.8065 40.7719 15.0771 40.7719C14.3476 40.7719 13.7549 40.1771 13.7549 39.4453C13.7549 38.7134 14.3476 38.1187 15.0771 38.1187C15.8065 38.1187 16.3992 38.7134 16.3992 39.4453Z" fill="#9F41EA"/>
<path d="M23.2777 39.4453C23.2777 40.1791 22.6849 40.7719 21.9555 40.7719C21.2241 40.7719 20.6333 40.1771 20.6333 39.4453C20.6333 38.7134 21.2261 38.1187 21.9555 38.1187C22.6849 38.1187 23.2777 38.7134 23.2777 39.4453Z" fill="#9F41EA"/>
<path d="M30.1541 39.4453C30.1541 40.1791 29.5614 40.7719 28.8319 40.7719C28.1006 40.7719 27.5098 40.1771 27.5098 39.4453C27.5098 38.7134 28.1025 38.1187 28.8319 38.1187C29.5633 38.1187 30.1541 38.7134 30.1541 39.4453Z" fill="#9F41EA"/>
<path d="M37.0325 39.4453C37.0325 40.1791 36.4398 40.7719 35.7104 40.7719C34.979 40.7719 34.3882 40.1771 34.3882 39.4453C34.3882 38.7134 34.981 38.1187 35.7104 38.1187C36.4398 38.1187 37.0325 38.7134 37.0325 39.4453Z" fill="#9F41EA"/>
<path d="M43.909 39.4453C43.909 40.1791 43.3162 40.7719 42.5868 40.7719C41.8574 40.7719 41.2646 40.1771 41.2646 39.4453C41.2646 38.7134 41.8574 38.1187 42.5868 38.1187C43.3162 38.1187 43.909 38.7134 43.909 39.4453Z" fill="#9F41EA"/>
<path d="M50.7874 39.4453C50.7874 40.1791 50.1947 40.7719 49.4652 40.7719C48.7358 40.7719 48.1431 40.1771 48.1431 39.4453C48.1431 38.7134 48.7358 38.1187 49.4652 38.1187C50.1947 38.1187 50.7874 38.7134 50.7874 39.4453Z" fill="#9F41EA"/>
<path d="M57.6639 39.4453C57.6639 40.1791 57.0711 40.7719 56.3417 40.7719C55.6104 40.7719 55.0195 40.1771 55.0195 39.4453C55.0195 38.7134 55.6123 38.1187 56.3417 38.1187C57.0711 38.1187 57.6639 38.7134 57.6639 39.4453Z" fill="#9F41EA"/>
<path d="M64.5423 39.4453C64.5423 40.1791 63.9495 40.7719 63.2201 40.7719C62.4907 40.7719 61.8979 40.1771 61.8979 39.4453C61.8979 38.7134 62.4907 38.1187 63.2201 38.1187C63.9495 38.1187 64.5423 38.7134 64.5423 39.4453Z" fill="#9F41EA"/>
<path d="M71.4188 39.4453C71.4188 40.1791 70.826 40.7719 70.0966 40.7719C69.3653 40.7719 68.7744 40.1771 68.7744 39.4453C68.7744 38.7134 69.3672 38.1187 70.0966 38.1187C70.826 38.1187 71.4188 38.7134 71.4188 39.4453Z" fill="#9F41EA"/>
<path d="M78.2952 39.4453C78.2952 40.1791 77.7025 40.7719 76.9731 40.7719C76.2437 40.7719 75.6509 40.1771 75.6509 39.4453C75.6509 38.7134 76.2437 38.1187 76.9731 38.1187C77.7025 38.1187 78.2952 38.7134 78.2952 39.4453Z" fill="#9F41EA"/>
<path d="M6.34919 43.6916C6.34919 44.4254 5.75642 45.0182 5.02701 45.0182C4.2976 45.0182 3.70483 44.4235 3.70483 43.6916C3.70483 42.9598 4.2976 42.365 5.02701 42.365C5.75642 42.365 6.34919 42.9598 6.34919 43.6916Z" fill="#9F41EA"/>
<path d="M13.2257 43.6916C13.2257 44.4254 12.6329 45.0182 11.9035 45.0182C11.1721 45.0182 10.5813 44.4235 10.5813 43.6916C10.5813 42.9598 11.1741 42.365 11.9035 42.365C12.6329 42.365 13.2257 42.9598 13.2257 43.6916Z" fill="#9F41EA"/>
<path d="M20.1041 43.6916C20.1041 44.4254 19.5113 45.0182 18.7819 45.0182C18.0506 45.0182 17.4597 44.4235 17.4597 43.6916C17.4597 42.9598 18.0525 42.365 18.7819 42.365C19.5113 42.365 20.1041 42.9598 20.1041 43.6916Z" fill="#9F41EA"/>
<path d="M26.9805 43.6916C26.9805 44.4254 26.3878 45.0182 25.6584 45.0182C24.929 45.0182 24.3362 44.4235 24.3362 43.6916C24.3362 42.9598 24.929 42.365 25.6584 42.365C26.3878 42.365 26.9805 42.9598 26.9805 43.6916Z" fill="#9F41EA"/>
<path d="M33.857 43.6916C33.857 44.4254 33.2642 45.0182 32.5348 45.0182C31.8035 45.0182 31.2126 44.4235 31.2126 43.6916C31.2126 42.9598 31.8054 42.365 32.5348 42.365C33.2662 42.365 33.857 42.9598 33.857 43.6916Z" fill="#9F41EA"/>
<path d="M40.7354 43.6916C40.7354 44.4254 40.1427 45.0182 39.4132 45.0182C38.6819 45.0182 38.0911 44.4235 38.0911 43.6916C38.0911 42.9598 38.6838 42.365 39.4132 42.365C40.1427 42.365 40.7354 42.9598 40.7354 43.6916Z" fill="#9F41EA"/>
<path d="M47.6119 43.6916C47.6119 44.4254 47.0191 45.0182 46.2897 45.0182C45.5584 45.0182 44.9675 44.4235 44.9675 43.6916C44.9675 42.9598 45.5603 42.365 46.2897 42.365C47.021 42.365 47.6119 42.9598 47.6119 43.6916Z" fill="#9F41EA"/>
<path d="M54.4903 43.6916C54.4903 44.4254 53.8975 45.0182 53.1681 45.0182C52.4368 45.0182 51.8459 44.4235 51.8459 43.6916C51.8459 42.9598 52.4387 42.365 53.1681 42.365C53.8975 42.365 54.4903 42.9598 54.4903 43.6916Z" fill="#9F41EA"/>
<path d="M61.3668 43.6916C61.3668 44.4254 60.774 45.0182 60.0446 45.0182C59.3152 45.0182 58.7224 44.4235 58.7224 43.6916C58.7224 42.9598 59.3152 42.365 60.0446 42.365C60.7759 42.365 61.3668 42.9598 61.3668 43.6916Z" fill="#9F41EA"/>
<path d="M68.2452 43.6916C68.2452 44.4254 67.6524 45.0182 66.923 45.0182C66.1936 45.0182 65.6008 44.4235 65.6008 43.6916C65.6008 42.9598 66.1936 42.365 66.923 42.365C67.6524 42.365 68.2452 42.9598 68.2452 43.6916Z" fill="#9F41EA"/>
<path d="M75.1216 43.6916C75.1216 44.4254 74.5289 45.0182 73.7995 45.0182C73.0701 45.0182 72.4773 44.4235 72.4773 43.6916C72.4773 42.9598 73.0701 42.365 73.7995 42.365C74.5289 42.365 75.1216 42.9598 75.1216 43.6916Z" fill="#9F41EA"/>
<path d="M82.0001 43.6916C82.0001 44.4254 81.4073 45.0182 80.6779 45.0182C79.9485 45.0182 79.3557 44.4235 79.3557 43.6916C79.3557 42.9598 79.9485 42.365 80.6779 42.365C81.4073 42.365 82.0001 42.9598 82.0001 43.6916Z" fill="#9F41EA"/>
<path d="M2.64435 47.6734C2.64435 48.4053 2.05159 49 1.32218 49C0.592766 49 0 48.4053 0 47.6734C0 46.9396 0.592766 46.3468 1.32218 46.3468C2.05159 46.3468 2.64435 46.9396 2.64435 47.6734Z" fill="#9F41EA"/>
<path d="M9.52277 47.6734C9.52277 48.4053 8.93001 49 8.20059 49C7.47118 49 6.87842 48.4053 6.87842 47.6734C6.87842 46.9396 7.47118 46.3468 8.20059 46.3468C8.93001 46.3468 9.52277 46.9396 9.52277 47.6734Z" fill="#9F41EA"/>
<path d="M16.3992 47.6734C16.3992 48.4053 15.8065 49 15.0771 49C14.3476 49 13.7549 48.4053 13.7549 47.6734C13.7549 46.9396 14.3476 46.3468 15.0771 46.3468C15.8065 46.3468 16.3992 46.9396 16.3992 47.6734Z" fill="#9F41EA"/>
<path d="M23.2777 47.6734C23.2777 48.4053 22.6849 49 21.9555 49C21.2241 49 20.6333 48.4053 20.6333 47.6734C20.6333 46.9396 21.2261 46.3468 21.9555 46.3468C22.6849 46.3468 23.2777 46.9396 23.2777 47.6734Z" fill="#9F41EA"/>
<path d="M30.1541 47.6734C30.1541 48.4053 29.5614 49 28.8319 49C28.1006 49 27.5098 48.4053 27.5098 47.6734C27.5098 46.9396 28.1025 46.3468 28.8319 46.3468C29.5633 46.3468 30.1541 46.9396 30.1541 47.6734Z" fill="#9F41EA"/>
<path d="M37.0325 47.6734C37.0325 48.4053 36.4398 49 35.7104 49C34.979 49 34.3882 48.4053 34.3882 47.6734C34.3882 46.9396 34.981 46.3468 35.7104 46.3468C36.4398 46.3468 37.0325 46.9396 37.0325 47.6734Z" fill="#9F41EA"/>
<path d="M43.909 47.6734C43.909 48.4053 43.3162 49 42.5868 49C41.8574 49 41.2646 48.4053 41.2646 47.6734C41.2646 46.9396 41.8574 46.3468 42.5868 46.3468C43.3162 46.3468 43.909 46.9396 43.909 47.6734Z" fill="#9F41EA"/>
<path d="M50.7874 47.6734C50.7874 48.4053 50.1947 49 49.4652 49C48.7358 49 48.1431 48.4053 48.1431 47.6734C48.1431 46.9396 48.7358 46.3468 49.4652 46.3468C50.1947 46.3468 50.7874 46.9396 50.7874 47.6734Z" fill="#9F41EA"/>
<path d="M57.6639 47.6734C57.6639 48.4053 57.0711 49 56.3417 49C55.6104 49 55.0195 48.4053 55.0195 47.6734C55.0195 46.9396 55.6123 46.3468 56.3417 46.3468C57.0711 46.3468 57.6639 46.9396 57.6639 47.6734Z" fill="#9F41EA"/>
<path d="M64.5423 47.6734C64.5423 48.4053 63.9495 49 63.2201 49C62.4907 49 61.8979 48.4053 61.8979 47.6734C61.8979 46.9396 62.4907 46.3468 63.2201 46.3468C63.9495 46.3468 64.5423 46.9396 64.5423 47.6734Z" fill="#9F41EA"/>
<path d="M71.4188 47.6734C71.4188 48.4053 70.826 49 70.0966 49C69.3653 49 68.7744 48.4053 68.7744 47.6734C68.7744 46.9396 69.3672 46.3468 70.0966 46.3468C70.826 46.3468 71.4188 46.9396 71.4188 47.6734Z" fill="#9F41EA"/>
<path d="M78.2952 47.6734C78.2952 48.4053 77.7025 49 76.9731 49C76.2437 49 75.6509 48.4053 75.6509 47.6734C75.6509 46.9396 76.2437 46.3468 76.9731 46.3468C77.7025 46.3468 78.2952 46.9396 78.2952 47.6734Z" fill="#9F41EA"/>
</g>
<defs>
<clipPath id="clip0_112_12914">
<rect width="82" height="56" fill="white" transform="translate(0 -7)"/>
</clipPath>
</defs>
</svg>
