<svg width="427" height="290" viewBox="0 0 427 290" fill="none" xmlns="http://www.w3.org/2000/svg">
<g clip-path="url(#clip0_116_16571)">
<path d="M32.99 6.87C32.99 10.67 29.91 13.74 26.12 13.74C22.33 13.74 19.25 10.66 19.25 6.87C19.25 3.08 22.32 0 26.11 0C29.9 0 32.99 3.08 32.99 6.87Z" fill="#9F41EA" fill-opacity="0.2"/>
<path d="M68.72 6.87C68.72 10.67 65.64 13.74 61.85 13.74C58.05 13.74 54.98 10.66 54.98 6.87C54.98 3.08 58.05 0 61.85 0C65.64 0 68.72 3.08 68.72 6.87Z" fill="#9F41EA" fill-opacity="0.2"/>
<path d="M104.46 6.87C104.46 10.67 101.38 13.74 97.59 13.74C93.79 13.74 90.72 10.66 90.72 6.87C90.72 3.08 93.79 0 97.58 0C101.38 0 104.46 3.08 104.46 6.87Z" fill="#9F41EA" fill-opacity="0.2"/>
<path d="M140.19 6.87C140.19 10.67 137.11 13.74 133.32 13.74C129.53 13.74 126.45 10.66 126.45 6.87C126.45 3.08 129.52 0 133.32 0C137.12 0 140.19 3.08 140.19 6.87Z" fill="#9F41EA" fill-opacity="0.2"/>
<path d="M175.92 6.87C175.92 10.67 172.84 13.74 169.05 13.74C165.25 13.74 162.18 10.66 162.18 6.87C162.18 3.08 165.26 0 169.05 0C172.85 0 175.92 3.08 175.92 6.87Z" fill="#9F41EA" fill-opacity="0.2"/>
<path d="M211.66 6.87C211.66 10.67 208.58 13.74 204.79 13.74C200.99 13.74 197.92 10.66 197.92 6.87C197.92 3.08 200.99 0 204.79 0C208.58 0 211.66 3.08 211.66 6.87Z" fill="#9F41EA" fill-opacity="0.2"/>
<path d="M247.39 6.87C247.39 10.67 244.31 13.74 240.52 13.74C236.72 13.74 233.65 10.66 233.65 6.87C233.65 3.08 236.73 0 240.52 0C244.32 0 247.39 3.08 247.39 6.87Z" fill="#9F41EA" fill-opacity="0.2"/>
<path d="M283.13 6.87C283.13 10.67 280.05 13.74 276.26 13.74C272.46 13.74 269.39 10.66 269.39 6.87C269.39 3.08 272.46 0 276.26 0C280.05 0 283.13 3.08 283.13 6.87Z" fill="#9F41EA" fill-opacity="0.2"/>
<path d="M318.86 6.87C318.86 10.67 315.78 13.74 311.99 13.74C308.2 13.74 305.12 10.66 305.12 6.87C305.12 3.08 308.2 0 311.99 0C315.79 0 318.86 3.08 318.86 6.87Z" fill="#9F41EA" fill-opacity="0.2"/>
<path d="M354.6 6.87C354.6 10.67 351.52 13.74 347.73 13.74C343.94 13.74 340.86 10.66 340.86 6.87C340.86 3.08 343.93 0 347.73 0C351.53 0 354.6 3.08 354.6 6.87Z" fill="#9F41EA" fill-opacity="0.2"/>
<path d="M390.33 6.87C390.33 10.67 387.25 13.74 383.46 13.74C379.67 13.74 376.59 10.66 376.59 6.87C376.59 3.08 379.66 0 383.46 0C387.25 0 390.33 3.08 390.33 6.87Z" fill="#9F41EA" fill-opacity="0.2"/>
<path d="M426.07 6.87C426.07 10.67 422.99 13.74 419.2 13.74C415.41 13.74 412.33 10.66 412.33 6.87C412.33 3.08 415.4 0 419.19 0C422.99 0 426.07 3.08 426.07 6.87Z" fill="#9F41EA" fill-opacity="0.2"/>
<path d="M13.74 27.49C13.74 31.29 10.66 34.36 6.87 34.36C3.08 34.36 0 31.28 0 27.49C0 23.7 3.08 20.62 6.87 20.62C10.66 20.62 13.74 23.69 13.74 27.49Z" fill="#9F41EA" fill-opacity="0.2"/>
<path d="M49.48 27.49C49.48 31.29 46.4 34.36 42.61 34.36C38.82 34.36 35.74 31.28 35.74 27.49C35.74 23.7 38.82 20.62 42.61 20.62C46.4 20.62 49.48 23.69 49.48 27.49Z" fill="#9F41EA" fill-opacity="0.2"/>
<path d="M85.21 27.49C85.21 31.29 82.13 34.36 78.34 34.36C74.55 34.36 71.47 31.28 71.47 27.49C71.47 23.7 74.55 20.62 78.34 20.62C82.13 20.62 85.21 23.69 85.21 27.49Z" fill="#9F41EA" fill-opacity="0.2"/>
<path d="M120.95 27.49C120.95 31.29 117.87 34.36 114.08 34.36C110.28 34.36 107.21 31.28 107.21 27.49C107.21 23.7 110.29 20.62 114.08 20.62C117.87 20.62 120.95 23.69 120.95 27.49Z" fill="#9F41EA" fill-opacity="0.2"/>
<path d="M156.68 27.49C156.68 31.29 153.6 34.36 149.81 34.36C146.01 34.36 142.94 31.28 142.94 27.49C142.94 23.7 146.02 20.62 149.81 20.62C153.61 20.62 156.68 23.69 156.68 27.49Z" fill="#9F41EA" fill-opacity="0.2"/>
<path d="M192.42 27.49C192.42 31.29 189.34 34.36 185.55 34.36C181.75 34.36 178.68 31.28 178.68 27.49C178.68 23.7 181.76 20.62 185.55 20.62C189.34 20.62 192.42 23.69 192.42 27.49Z" fill="#9F41EA" fill-opacity="0.2"/>
<path d="M228.15 27.49C228.15 31.29 225.07 34.36 221.28 34.36C217.49 34.36 214.41 31.28 214.41 27.49C214.41 23.7 217.49 20.62 221.28 20.62C225.07 20.62 228.15 23.69 228.15 27.49Z" fill="#9F41EA" fill-opacity="0.2"/>
<path d="M263.89 27.49C263.89 31.29 260.81 34.36 257.02 34.36C253.23 34.36 250.15 31.28 250.15 27.49C250.15 23.7 253.23 20.62 257.02 20.62C260.81 20.62 263.89 23.69 263.89 27.49Z" fill="#9F41EA" fill-opacity="0.2"/>
<path d="M299.62 27.49C299.62 31.29 296.54 34.36 292.75 34.36C288.95 34.36 285.88 31.28 285.88 27.49C285.88 23.7 288.96 20.62 292.75 20.62C296.54 20.62 299.62 23.69 299.62 27.49Z" fill="#9F41EA" fill-opacity="0.2"/>
<path d="M335.36 27.49C335.36 31.29 332.28 34.36 328.49 34.36C324.7 34.36 321.62 31.28 321.62 27.49C321.62 23.7 324.7 20.62 328.49 20.62C332.28 20.62 335.36 23.69 335.36 27.49Z" fill="#9F41EA" fill-opacity="0.2"/>
<path d="M371.09 27.49C371.09 31.29 368.01 34.36 364.22 34.36C360.42 34.36 357.35 31.28 357.35 27.49C357.35 23.7 360.43 20.62 364.22 20.62C368.01 20.62 371.09 23.69 371.09 27.49Z" fill="#9F41EA" fill-opacity="0.2"/>
<path d="M406.82 27.49C406.82 31.29 403.74 34.36 399.95 34.36C396.16 34.36 393.08 31.28 393.08 27.49C393.08 23.7 396.16 20.62 399.95 20.62C403.74 20.62 406.82 23.69 406.82 27.49Z" fill="#9F41EA" fill-opacity="0.2"/>
<path d="M26.11 56.35C29.9042 56.35 32.98 53.2742 32.98 49.48C32.98 45.6858 29.9042 42.61 26.11 42.61C22.3158 42.61 19.24 45.6858 19.24 49.48C19.24 53.2742 22.3158 56.35 26.11 56.35Z" fill="#9F41EA" fill-opacity="0.2"/>
<path d="M68.72 49.48C68.72 53.28 65.64 56.35 61.85 56.35C58.05 56.35 54.98 53.27 54.98 49.48C54.98 45.69 58.06 42.61 61.85 42.61C65.64 42.61 68.72 45.68 68.72 49.48Z" fill="#9F41EA" fill-opacity="0.2"/>
<path d="M97.58 56.35C101.374 56.35 104.45 53.2742 104.45 49.48C104.45 45.6858 101.374 42.61 97.58 42.61C93.7858 42.61 90.71 45.6858 90.71 49.48C90.71 53.2742 93.7858 56.35 97.58 56.35Z" fill="#9F41EA" fill-opacity="0.2"/>
<path d="M133.32 56.35C137.114 56.35 140.19 53.2742 140.19 49.48C140.19 45.6858 137.114 42.61 133.32 42.61C129.526 42.61 126.45 45.6858 126.45 49.48C126.45 53.2742 129.526 56.35 133.32 56.35Z" fill="#9F41EA" fill-opacity="0.2"/>
<path d="M169.05 56.35C172.844 56.35 175.92 53.2742 175.92 49.48C175.92 45.6858 172.844 42.61 169.05 42.61C165.256 42.61 162.18 45.6858 162.18 49.48C162.18 53.2742 165.256 56.35 169.05 56.35Z" fill="#9F41EA" fill-opacity="0.2"/>
<path d="M204.79 56.35C208.584 56.35 211.66 53.2742 211.66 49.48C211.66 45.6858 208.584 42.61 204.79 42.61C200.996 42.61 197.92 45.6858 197.92 49.48C197.92 53.2742 200.996 56.35 204.79 56.35Z" fill="#9F41EA" fill-opacity="0.2"/>
<path d="M247.39 49.48C247.39 53.28 244.31 56.35 240.52 56.35C236.72 56.35 233.65 53.27 233.65 49.48C233.65 45.69 236.73 42.61 240.52 42.61C244.32 42.61 247.39 45.68 247.39 49.48Z" fill="#9F41EA" fill-opacity="0.2"/>
<path d="M283.13 49.48C283.13 53.28 280.05 56.35 276.26 56.35C272.46 56.35 269.39 53.27 269.39 49.48C269.39 45.69 272.47 42.61 276.26 42.61C280.05 42.61 283.13 45.68 283.13 49.48Z" fill="#9F41EA" fill-opacity="0.2"/>
<path d="M311.99 56.35C315.784 56.35 318.86 53.2742 318.86 49.48C318.86 45.6858 315.784 42.61 311.99 42.61C308.196 42.61 305.12 45.6858 305.12 49.48C305.12 53.2742 308.196 56.35 311.99 56.35Z" fill="#9F41EA" fill-opacity="0.2"/>
<path d="M347.73 56.35C351.524 56.35 354.6 53.2742 354.6 49.48C354.6 45.6858 351.524 42.61 347.73 42.61C343.936 42.61 340.86 45.6858 340.86 49.48C340.86 53.2742 343.936 56.35 347.73 56.35Z" fill="#9F41EA" fill-opacity="0.2"/>
<path d="M390.33 49.48C390.33 53.28 387.25 56.35 383.46 56.35C379.67 56.35 376.59 53.27 376.59 49.48C376.59 45.69 379.67 42.61 383.46 42.61C387.25 42.61 390.33 45.68 390.33 49.48Z" fill="#9F41EA" fill-opacity="0.2"/>
<path d="M426.07 49.48C426.07 53.28 422.99 56.35 419.2 56.35C415.41 56.35 412.33 53.27 412.33 49.48C412.33 45.69 415.41 42.61 419.2 42.61C422.99 42.61 426.07 45.68 426.07 49.48Z" fill="#9F41EA" fill-opacity="0.2"/>
<path d="M13.74 70.09C13.74 73.89 10.66 76.96 6.87 76.96C3.08 76.96 0 73.89 0 70.09C0 66.29 3.08 63.22 6.87 63.22C10.66 63.22 13.74 66.3 13.74 70.09Z" fill="#9F41EA" fill-opacity="0.2"/>
<path d="M49.48 70.09C49.48 73.89 46.4 76.96 42.61 76.96C38.82 76.96 35.74 73.88 35.74 70.09C35.74 66.29 38.82 63.22 42.61 63.22C46.4 63.22 49.48 66.3 49.48 70.09Z" fill="#9F41EA" fill-opacity="0.2"/>
<path d="M85.21 70.09C85.21 73.89 82.13 76.96 78.34 76.96C74.55 76.96 71.47 73.88 71.47 70.09C71.47 66.29 74.55 63.22 78.34 63.22C82.13 63.22 85.21 66.3 85.21 70.09Z" fill="#9F41EA" fill-opacity="0.2"/>
<path d="M120.95 70.09C120.95 73.89 117.87 76.96 114.08 76.96C110.28 76.96 107.21 73.88 107.21 70.09C107.21 66.29 110.29 63.22 114.08 63.22C117.87 63.22 120.95 66.3 120.95 70.09Z" fill="#9F41EA" fill-opacity="0.2"/>
<path d="M156.68 70.09C156.68 73.89 153.6 76.96 149.81 76.96C146.01 76.96 142.94 73.88 142.94 70.09C142.94 66.29 146.02 63.22 149.81 63.22C153.61 63.22 156.68 66.3 156.68 70.09Z" fill="#9F41EA" fill-opacity="0.2"/>
<path d="M192.42 70.09C192.42 73.89 189.34 76.96 185.55 76.96C181.75 76.96 178.68 73.88 178.68 70.09C178.68 66.29 181.76 63.22 185.55 63.22C189.34 63.22 192.42 66.3 192.42 70.09Z" fill="#9F41EA" fill-opacity="0.2"/>
<path d="M228.15 70.09C228.15 73.89 225.07 76.96 221.28 76.96C217.49 76.96 214.41 73.88 214.41 70.09C214.41 66.29 217.49 63.22 221.28 63.22C225.07 63.22 228.15 66.3 228.15 70.09Z" fill="#9F41EA" fill-opacity="0.2"/>
<path d="M263.89 70.09C263.89 73.89 260.81 76.96 257.02 76.96C253.23 76.96 250.15 73.88 250.15 70.09C250.15 66.29 253.23 63.22 257.02 63.22C260.81 63.22 263.89 66.3 263.89 70.09Z" fill="#9F41EA" fill-opacity="0.2"/>
<path d="M299.62 70.09C299.62 73.89 296.54 76.96 292.75 76.96C288.95 76.96 285.88 73.88 285.88 70.09C285.88 66.29 288.96 63.22 292.75 63.22C296.54 63.22 299.62 66.3 299.62 70.09Z" fill="#9F41EA" fill-opacity="0.2"/>
<path d="M335.36 70.09C335.36 73.89 332.28 76.96 328.49 76.96C324.7 76.96 321.62 73.88 321.62 70.09C321.62 66.29 324.7 63.22 328.49 63.22C332.28 63.22 335.36 66.3 335.36 70.09Z" fill="#9F41EA" fill-opacity="0.2"/>
<path d="M371.09 70.09C371.09 73.89 368.01 76.96 364.22 76.96C360.42 76.96 357.35 73.88 357.35 70.09C357.35 66.29 360.43 63.22 364.22 63.22C368.01 63.22 371.09 66.3 371.09 70.09Z" fill="#9F41EA" fill-opacity="0.2"/>
<path d="M406.82 70.09C406.82 73.89 403.74 76.96 399.95 76.96C396.16 76.96 393.08 73.88 393.08 70.09C393.08 66.29 396.16 63.22 399.95 63.22C403.74 63.22 406.82 66.3 406.82 70.09Z" fill="#9F41EA" fill-opacity="0.2"/>
<path d="M32.99 92.09C32.99 95.89 29.91 98.96 26.12 98.96C22.33 98.96 19.25 95.88 19.25 92.09C19.25 88.29 22.33 85.22 26.12 85.22C29.91 85.22 32.99 88.29 32.99 92.09Z" fill="#9F41EA" fill-opacity="0.2"/>
<path d="M68.72 92.09C68.72 95.89 65.64 98.96 61.85 98.96C58.05 98.96 54.98 95.88 54.98 92.09C54.98 88.29 58.06 85.22 61.85 85.22C65.64 85.21 68.72 88.29 68.72 92.09Z" fill="#9F41EA" fill-opacity="0.2"/>
<path d="M104.46 92.09C104.46 95.89 101.38 98.96 97.59 98.96C93.79 98.96 90.72 95.88 90.72 92.09C90.72 88.29 93.8 85.22 97.59 85.22C101.38 85.21 104.46 88.29 104.46 92.09Z" fill="#9F41EA" fill-opacity="0.2"/>
<path d="M140.19 92.09C140.19 95.89 137.11 98.96 133.32 98.96C129.53 98.96 126.45 95.88 126.45 92.09C126.45 88.29 129.53 85.22 133.32 85.22C137.11 85.22 140.19 88.29 140.19 92.09Z" fill="#9F41EA" fill-opacity="0.2"/>
<path d="M175.92 92.09C175.92 95.89 172.84 98.96 169.05 98.96C165.25 98.96 162.18 95.88 162.18 92.09C162.18 88.29 165.26 85.22 169.05 85.22C172.85 85.21 175.92 88.29 175.92 92.09Z" fill="#9F41EA" fill-opacity="0.2"/>
<path d="M211.66 92.09C211.66 95.89 208.58 98.96 204.79 98.96C200.99 98.96 197.92 95.88 197.92 92.09C197.92 88.29 201 85.22 204.79 85.22C208.58 85.21 211.66 88.29 211.66 92.09Z" fill="#9F41EA" fill-opacity="0.2"/>
<path d="M247.39 92.09C247.39 95.89 244.31 98.96 240.52 98.96C236.72 98.96 233.65 95.88 233.65 92.09C233.65 88.29 236.73 85.22 240.52 85.22C244.32 85.21 247.39 88.29 247.39 92.09Z" fill="#9F41EA" fill-opacity="0.2"/>
<path d="M283.13 92.09C283.13 95.89 280.05 98.96 276.26 98.96C272.46 98.96 269.39 95.88 269.39 92.09C269.39 88.29 272.47 85.22 276.26 85.22C280.05 85.21 283.13 88.29 283.13 92.09Z" fill="#9F41EA" fill-opacity="0.2"/>
<path d="M318.86 92.09C318.86 95.89 315.78 98.96 311.99 98.96C308.2 98.96 305.12 95.88 305.12 92.09C305.12 88.29 308.2 85.22 311.99 85.22C315.79 85.21 318.86 88.29 318.86 92.09Z" fill="#9F41EA" fill-opacity="0.2"/>
<path d="M354.6 92.09C354.6 95.89 351.52 98.96 347.73 98.96C343.94 98.96 340.86 95.88 340.86 92.09C340.86 88.29 343.94 85.22 347.73 85.22C351.52 85.22 354.6 88.29 354.6 92.09Z" fill="#9F41EA" fill-opacity="0.2"/>
<path d="M390.33 92.09C390.33 95.89 387.25 98.96 383.46 98.96C379.67 98.96 376.59 95.88 376.59 92.09C376.59 88.29 379.67 85.22 383.46 85.22C387.25 85.21 390.33 88.29 390.33 92.09Z" fill="#9F41EA" fill-opacity="0.2"/>
<path d="M426.07 92.09C426.07 95.89 422.99 98.96 419.2 98.96C415.41 98.96 412.33 95.88 412.33 92.09C412.33 88.29 415.41 85.22 419.2 85.22C422.99 85.21 426.07 88.29 426.07 92.09Z" fill="#9F41EA" fill-opacity="0.2"/>
<path d="M13.74 112.7C13.74 116.49 10.66 119.57 6.87 119.57C3.08 119.57 0 116.5 0 112.7C0 108.9 3.08 105.83 6.87 105.83C10.66 105.83 13.74 108.91 13.74 112.7Z" fill="#9F41EA" fill-opacity="0.2"/>
<path d="M49.48 112.7C49.48 116.49 46.4 119.57 42.61 119.57C38.82 119.57 35.74 116.49 35.74 112.7C35.74 108.9 38.82 105.83 42.61 105.83C46.4 105.83 49.48 108.91 49.48 112.7Z" fill="#9F41EA" fill-opacity="0.2"/>
<path d="M85.21 112.7C85.21 116.49 82.13 119.57 78.34 119.57C74.55 119.57 71.47 116.49 71.47 112.7C71.47 108.9 74.55 105.83 78.34 105.83C82.13 105.83 85.21 108.91 85.21 112.7Z" fill="#9F41EA" fill-opacity="0.2"/>
<path d="M120.95 112.7C120.95 116.49 117.87 119.57 114.08 119.57C110.28 119.57 107.21 116.49 107.21 112.7C107.21 108.9 110.29 105.83 114.08 105.83C117.87 105.83 120.95 108.91 120.95 112.7Z" fill="#9F41EA" fill-opacity="0.2"/>
<path d="M156.68 112.7C156.68 116.49 153.6 119.57 149.81 119.57C146.01 119.57 142.94 116.49 142.94 112.7C142.94 108.9 146.02 105.83 149.81 105.83C153.61 105.83 156.68 108.91 156.68 112.7Z" fill="#9F41EA" fill-opacity="0.2"/>
<path d="M192.42 112.7C192.42 116.49 189.34 119.57 185.55 119.57C181.75 119.57 178.68 116.49 178.68 112.7C178.68 108.9 181.76 105.83 185.55 105.83C189.34 105.83 192.42 108.91 192.42 112.7Z" fill="#9F41EA" fill-opacity="0.2"/>
<path d="M228.15 112.7C228.15 116.49 225.07 119.57 221.28 119.57C217.49 119.57 214.41 116.49 214.41 112.7C214.41 108.9 217.49 105.83 221.28 105.83C225.07 105.83 228.15 108.91 228.15 112.7Z" fill="#9F41EA" fill-opacity="0.2"/>
<path d="M263.89 112.7C263.89 116.49 260.81 119.57 257.02 119.57C253.23 119.57 250.15 116.49 250.15 112.7C250.15 108.9 253.23 105.83 257.02 105.83C260.81 105.83 263.89 108.91 263.89 112.7Z" fill="#9F41EA" fill-opacity="0.2"/>
<path d="M299.62 112.7C299.62 116.49 296.54 119.57 292.75 119.57C288.95 119.57 285.88 116.49 285.88 112.7C285.88 108.9 288.96 105.83 292.75 105.83C296.54 105.83 299.62 108.91 299.62 112.7Z" fill="#9F41EA" fill-opacity="0.2"/>
<path d="M335.36 112.7C335.36 116.49 332.28 119.57 328.49 119.57C324.7 119.57 321.62 116.49 321.62 112.7C321.62 108.9 324.7 105.83 328.49 105.83C332.28 105.83 335.36 108.91 335.36 112.7Z" fill="#9F41EA" fill-opacity="0.2"/>
<path d="M371.09 112.7C371.09 116.49 368.01 119.57 364.22 119.57C360.42 119.57 357.35 116.49 357.35 112.7C357.35 108.9 360.43 105.83 364.22 105.83C368.01 105.83 371.09 108.91 371.09 112.7Z" fill="#9F41EA" fill-opacity="0.2"/>
<path d="M406.82 112.7C406.82 116.49 403.74 119.57 399.95 119.57C396.16 119.57 393.08 116.49 393.08 112.7C393.08 108.9 396.16 105.83 399.95 105.83C403.74 105.83 406.82 108.91 406.82 112.7Z" fill="#9F41EA" fill-opacity="0.2"/>
<path d="M26.11 141.56C29.9042 141.56 32.98 138.484 32.98 134.69C32.98 130.896 29.9042 127.82 26.11 127.82C22.3158 127.82 19.24 130.896 19.24 134.69C19.24 138.484 22.3158 141.56 26.11 141.56Z" fill="#9F41EA" fill-opacity="0.2"/>
<path d="M68.72 134.69C68.72 138.49 65.64 141.56 61.85 141.56C58.05 141.56 54.98 138.48 54.98 134.69C54.98 130.9 58.06 127.82 61.85 127.82C65.64 127.82 68.72 130.9 68.72 134.69Z" fill="#9F41EA" fill-opacity="0.2"/>
<path d="M97.58 141.56C101.374 141.56 104.45 138.484 104.45 134.69C104.45 130.896 101.374 127.82 97.58 127.82C93.7858 127.82 90.71 130.896 90.71 134.69C90.71 138.484 93.7858 141.56 97.58 141.56Z" fill="#9F41EA" fill-opacity="0.2"/>
<path d="M133.32 141.56C137.114 141.56 140.19 138.484 140.19 134.69C140.19 130.896 137.114 127.82 133.32 127.82C129.526 127.82 126.45 130.896 126.45 134.69C126.45 138.484 129.526 141.56 133.32 141.56Z" fill="#9F41EA" fill-opacity="0.2"/>
<path d="M169.05 141.56C172.844 141.56 175.92 138.484 175.92 134.69C175.92 130.896 172.844 127.82 169.05 127.82C165.256 127.82 162.18 130.896 162.18 134.69C162.18 138.484 165.256 141.56 169.05 141.56Z" fill="#9F41EA" fill-opacity="0.2"/>
<path d="M204.79 141.56C208.584 141.56 211.66 138.484 211.66 134.69C211.66 130.896 208.584 127.82 204.79 127.82C200.996 127.82 197.92 130.896 197.92 134.69C197.92 138.484 200.996 141.56 204.79 141.56Z" fill="#9F41EA" fill-opacity="0.2"/>
<path d="M247.39 134.69C247.39 138.49 244.31 141.56 240.52 141.56C236.72 141.56 233.65 138.48 233.65 134.69C233.65 130.9 236.73 127.82 240.52 127.82C244.32 127.82 247.39 130.9 247.39 134.69Z" fill="#9F41EA" fill-opacity="0.2"/>
<path d="M283.13 134.69C283.13 138.49 280.05 141.56 276.26 141.56C272.46 141.56 269.39 138.48 269.39 134.69C269.39 130.9 272.47 127.82 276.26 127.82C280.05 127.82 283.13 130.9 283.13 134.69Z" fill="#9F41EA" fill-opacity="0.2"/>
<path d="M311.99 141.56C315.784 141.56 318.86 138.484 318.86 134.69C318.86 130.896 315.784 127.82 311.99 127.82C308.196 127.82 305.12 130.896 305.12 134.69C305.12 138.484 308.196 141.56 311.99 141.56Z" fill="#9F41EA" fill-opacity="0.2"/>
<path d="M347.73 141.56C351.524 141.56 354.6 138.484 354.6 134.69C354.6 130.896 351.524 127.82 347.73 127.82C343.936 127.82 340.86 130.896 340.86 134.69C340.86 138.484 343.936 141.56 347.73 141.56Z" fill="#9F41EA" fill-opacity="0.2"/>
<path d="M390.33 134.69C390.33 138.49 387.25 141.56 383.46 141.56C379.67 141.56 376.59 138.48 376.59 134.69C376.59 130.9 379.67 127.82 383.46 127.82C387.25 127.82 390.33 130.9 390.33 134.69Z" fill="#9F41EA" fill-opacity="0.2"/>
<path d="M426.07 134.69C426.07 138.49 422.99 141.56 419.2 141.56C415.41 141.56 412.33 138.48 412.33 134.69C412.33 130.9 415.41 127.82 419.2 127.82C422.99 127.82 426.07 130.9 426.07 134.69Z" fill="#9F41EA" fill-opacity="0.2"/>
<path d="M6.87 162.18C10.6642 162.18 13.74 159.104 13.74 155.31C13.74 151.516 10.6642 148.44 6.87 148.44C3.0758 148.44 0 151.516 0 155.31C0 159.104 3.0758 162.18 6.87 162.18Z" fill="#9F41EA" fill-opacity="0.2"/>
<path d="M42.61 162.18C46.4042 162.18 49.48 159.104 49.48 155.31C49.48 151.516 46.4042 148.44 42.61 148.44C38.8158 148.44 35.74 151.516 35.74 155.31C35.74 159.104 38.8158 162.18 42.61 162.18Z" fill="#9F41EA" fill-opacity="0.2"/>
<path d="M78.34 162.18C82.1342 162.18 85.21 159.104 85.21 155.31C85.21 151.516 82.1342 148.44 78.34 148.44C74.5458 148.44 71.47 151.516 71.47 155.31C71.47 159.104 74.5458 162.18 78.34 162.18Z" fill="#9F41EA" fill-opacity="0.2"/>
<path d="M114.08 162.18C117.874 162.18 120.95 159.104 120.95 155.31C120.95 151.516 117.874 148.44 114.08 148.44C110.286 148.44 107.21 151.516 107.21 155.31C107.21 159.104 110.286 162.18 114.08 162.18Z" fill="#9F41EA" fill-opacity="0.2"/>
<path d="M149.81 162.18C153.604 162.18 156.68 159.104 156.68 155.31C156.68 151.516 153.604 148.44 149.81 148.44C146.016 148.44 142.94 151.516 142.94 155.31C142.94 159.104 146.016 162.18 149.81 162.18Z" fill="#9F41EA" fill-opacity="0.2"/>
<path d="M185.54 162.18C189.334 162.18 192.41 159.104 192.41 155.31C192.41 151.516 189.334 148.44 185.54 148.44C181.746 148.44 178.67 151.516 178.67 155.31C178.67 159.104 181.746 162.18 185.54 162.18Z" fill="#9F41EA" fill-opacity="0.2"/>
<path d="M221.28 162.18C225.074 162.18 228.15 159.104 228.15 155.31C228.15 151.516 225.074 148.44 221.28 148.44C217.486 148.44 214.41 151.516 214.41 155.31C214.41 159.104 217.486 162.18 221.28 162.18Z" fill="#9F41EA" fill-opacity="0.2"/>
<path d="M257.01 162.18C260.804 162.18 263.88 159.104 263.88 155.31C263.88 151.516 260.804 148.44 257.01 148.44C253.216 148.44 250.14 151.516 250.14 155.31C250.14 159.104 253.216 162.18 257.01 162.18Z" fill="#9F41EA" fill-opacity="0.2"/>
<path d="M299.62 155.31C299.62 159.1 296.54 162.18 292.75 162.18C288.95 162.18 285.88 159.1 285.88 155.31C285.88 151.52 288.96 148.44 292.75 148.44C296.54 148.44 299.62 151.51 299.62 155.31Z" fill="#9F41EA" fill-opacity="0.2"/>
<path d="M335.36 155.31C335.36 159.1 332.28 162.18 328.49 162.18C324.7 162.18 321.62 159.1 321.62 155.31C321.62 151.52 324.7 148.44 328.49 148.44C332.28 148.44 335.36 151.51 335.36 155.31Z" fill="#9F41EA" fill-opacity="0.2"/>
<path d="M371.09 155.31C371.09 159.1 368.01 162.18 364.22 162.18C360.42 162.18 357.35 159.1 357.35 155.31C357.35 151.52 360.43 148.44 364.22 148.44C368.01 148.44 371.09 151.51 371.09 155.31Z" fill="#9F41EA" fill-opacity="0.2"/>
<path d="M399.95 162.18C403.744 162.18 406.82 159.104 406.82 155.31C406.82 151.516 403.744 148.44 399.95 148.44C396.156 148.44 393.08 151.516 393.08 155.31C393.08 159.104 396.156 162.18 399.95 162.18Z" fill="#9F41EA" fill-opacity="0.2"/>
<path d="M32.99 177.3C32.99 181.1 29.91 184.17 26.12 184.17C22.33 184.17 19.25 181.09 19.25 177.3C19.25 173.51 22.33 170.43 26.12 170.43C29.91 170.43 32.99 173.5 32.99 177.3Z" fill="#9F41EA" fill-opacity="0.2"/>
<path d="M68.72 177.3C68.72 181.1 65.64 184.17 61.85 184.17C58.05 184.17 54.98 181.09 54.98 177.3C54.98 173.51 58.06 170.43 61.85 170.43C65.64 170.43 68.72 173.5 68.72 177.3Z" fill="#9F41EA" fill-opacity="0.2"/>
<path d="M104.46 177.3C104.46 181.1 101.38 184.17 97.59 184.17C93.79 184.17 90.72 181.09 90.72 177.3C90.72 173.51 93.8 170.43 97.59 170.43C101.38 170.43 104.46 173.5 104.46 177.3Z" fill="#9F41EA" fill-opacity="0.2"/>
<path d="M140.19 177.3C140.19 181.1 137.11 184.17 133.32 184.17C129.53 184.17 126.45 181.09 126.45 177.3C126.45 173.51 129.53 170.43 133.32 170.43C137.11 170.43 140.19 173.5 140.19 177.3Z" fill="#9F41EA" fill-opacity="0.2"/>
<path d="M175.92 177.3C175.92 181.1 172.84 184.17 169.05 184.17C165.25 184.17 162.18 181.09 162.18 177.3C162.18 173.51 165.26 170.43 169.05 170.43C172.85 170.43 175.92 173.5 175.92 177.3Z" fill="#9F41EA" fill-opacity="0.2"/>
<path d="M211.66 177.3C211.66 181.1 208.58 184.17 204.79 184.17C200.99 184.17 197.92 181.09 197.92 177.3C197.92 173.51 201 170.43 204.79 170.43C208.58 170.43 211.66 173.5 211.66 177.3Z" fill="#9F41EA" fill-opacity="0.2"/>
<path d="M247.39 177.3C247.39 181.1 244.31 184.17 240.52 184.17C236.72 184.17 233.65 181.09 233.65 177.3C233.65 173.51 236.73 170.43 240.52 170.43C244.32 170.43 247.39 173.5 247.39 177.3Z" fill="#9F41EA" fill-opacity="0.2"/>
<path d="M283.13 177.3C283.13 181.1 280.05 184.17 276.26 184.17C272.46 184.17 269.39 181.09 269.39 177.3C269.39 173.51 272.47 170.43 276.26 170.43C280.05 170.43 283.13 173.5 283.13 177.3Z" fill="#9F41EA" fill-opacity="0.2"/>
<path d="M318.86 177.3C318.86 181.1 315.78 184.17 311.99 184.17C308.2 184.17 305.12 181.09 305.12 177.3C305.12 173.51 308.2 170.43 311.99 170.43C315.79 170.43 318.86 173.5 318.86 177.3Z" fill="#9F41EA" fill-opacity="0.2"/>
<path d="M354.6 177.3C354.6 181.1 351.52 184.17 347.73 184.17C343.94 184.17 340.86 181.09 340.86 177.3C340.86 173.51 343.94 170.43 347.73 170.43C351.52 170.43 354.6 173.5 354.6 177.3Z" fill="#9F41EA" fill-opacity="0.2"/>
<path d="M390.33 177.3C390.33 181.1 387.25 184.17 383.46 184.17C379.67 184.17 376.59 181.09 376.59 177.3C376.59 173.51 379.67 170.43 383.46 170.43C387.25 170.43 390.33 173.5 390.33 177.3Z" fill="#9F41EA" fill-opacity="0.2"/>
<path d="M426.07 177.3C426.07 181.1 422.99 184.17 419.2 184.17C415.41 184.17 412.33 181.09 412.33 177.3C412.33 173.51 415.41 170.43 419.2 170.43C422.99 170.43 426.07 173.5 426.07 177.3Z" fill="#9F41EA" fill-opacity="0.2"/>
<path d="M13.74 197.91C13.74 201.71 10.66 204.78 6.87 204.78C3.08 204.78 0 201.71 0 197.91C0 194.11 3.08 191.04 6.87 191.04C10.66 191.04 13.74 194.12 13.74 197.91Z" fill="#9F41EA" fill-opacity="0.2"/>
<path d="M49.48 197.91C49.48 201.71 46.4 204.78 42.61 204.78C38.82 204.78 35.74 201.7 35.74 197.91C35.74 194.11 38.82 191.04 42.61 191.04C46.4 191.04 49.48 194.12 49.48 197.91Z" fill="#9F41EA" fill-opacity="0.2"/>
<path d="M85.21 197.91C85.21 201.71 82.13 204.78 78.34 204.78C74.55 204.78 71.47 201.7 71.47 197.91C71.47 194.11 74.55 191.04 78.34 191.04C82.13 191.04 85.21 194.12 85.21 197.91Z" fill="#9F41EA" fill-opacity="0.2"/>
<path d="M120.95 197.91C120.95 201.71 117.87 204.78 114.08 204.78C110.28 204.78 107.21 201.7 107.21 197.91C107.21 194.11 110.29 191.04 114.08 191.04C117.87 191.04 120.95 194.12 120.95 197.91Z" fill="#9F41EA" fill-opacity="0.2"/>
<path d="M156.68 197.91C156.68 201.71 153.6 204.78 149.81 204.78C146.01 204.78 142.94 201.7 142.94 197.91C142.94 194.11 146.02 191.04 149.81 191.04C153.61 191.04 156.68 194.12 156.68 197.91Z" fill="#9F41EA" fill-opacity="0.2"/>
<path d="M192.42 197.91C192.42 201.71 189.34 204.78 185.55 204.78C181.75 204.78 178.68 201.7 178.68 197.91C178.68 194.11 181.76 191.04 185.55 191.04C189.34 191.04 192.42 194.12 192.42 197.91Z" fill="#9F41EA" fill-opacity="0.2"/>
<path d="M228.15 197.91C228.15 201.71 225.07 204.78 221.28 204.78C217.49 204.78 214.41 201.7 214.41 197.91C214.41 194.11 217.49 191.04 221.28 191.04C225.07 191.04 228.15 194.12 228.15 197.91Z" fill="#9F41EA" fill-opacity="0.2"/>
<path d="M263.89 197.91C263.89 201.71 260.81 204.78 257.02 204.78C253.23 204.78 250.15 201.7 250.15 197.91C250.15 194.11 253.23 191.04 257.02 191.04C260.81 191.04 263.89 194.12 263.89 197.91Z" fill="#9F41EA" fill-opacity="0.2"/>
<path d="M299.62 197.91C299.62 201.71 296.54 204.78 292.75 204.78C288.95 204.78 285.88 201.7 285.88 197.91C285.88 194.11 288.96 191.04 292.75 191.04C296.54 191.04 299.62 194.12 299.62 197.91Z" fill="#9F41EA" fill-opacity="0.2"/>
<path d="M335.36 197.91C335.36 201.71 332.28 204.78 328.49 204.78C324.7 204.78 321.62 201.7 321.62 197.91C321.62 194.11 324.7 191.04 328.49 191.04C332.28 191.04 335.36 194.12 335.36 197.91Z" fill="#9F41EA" fill-opacity="0.2"/>
<path d="M371.09 197.91C371.09 201.71 368.01 204.78 364.22 204.78C360.42 204.78 357.35 201.7 357.35 197.91C357.35 194.11 360.43 191.04 364.22 191.04C368.01 191.04 371.09 194.12 371.09 197.91Z" fill="#9F41EA" fill-opacity="0.2"/>
<path d="M406.82 197.91C406.82 201.71 403.74 204.78 399.95 204.78C396.16 204.78 393.08 201.7 393.08 197.91C393.08 194.11 396.16 191.04 399.95 191.04C403.74 191.04 406.82 194.12 406.82 197.91Z" fill="#9F41EA" fill-opacity="0.2"/>
<path d="M32.99 219.91C32.99 223.7 29.91 226.78 26.12 226.78C22.33 226.78 19.25 223.7 19.25 219.91C19.25 216.11 22.33 213.04 26.12 213.04C29.91 213.04 32.99 216.11 32.99 219.91Z" fill="#9F41EA" fill-opacity="0.2"/>
<path d="M68.72 219.91C68.72 223.7 65.64 226.78 61.85 226.78C58.05 226.78 54.98 223.7 54.98 219.91C54.98 216.11 58.06 213.04 61.85 213.04C65.64 213.03 68.72 216.11 68.72 219.91Z" fill="#9F41EA" fill-opacity="0.2"/>
<path d="M104.46 219.91C104.46 223.7 101.38 226.78 97.59 226.78C93.79 226.78 90.72 223.7 90.72 219.91C90.72 216.11 93.8 213.04 97.59 213.04C101.38 213.03 104.46 216.11 104.46 219.91Z" fill="#9F41EA" fill-opacity="0.2"/>
<path d="M140.19 219.91C140.19 223.7 137.11 226.78 133.32 226.78C129.53 226.78 126.45 223.7 126.45 219.91C126.45 216.11 129.53 213.04 133.32 213.04C137.11 213.04 140.19 216.11 140.19 219.91Z" fill="#9F41EA" fill-opacity="0.2"/>
<path d="M175.92 219.91C175.92 223.7 172.84 226.78 169.05 226.78C165.25 226.78 162.18 223.7 162.18 219.91C162.18 216.11 165.26 213.04 169.05 213.04C172.85 213.03 175.92 216.11 175.92 219.91Z" fill="#9F41EA" fill-opacity="0.2"/>
<path d="M211.66 219.91C211.66 223.7 208.58 226.78 204.79 226.78C200.99 226.78 197.92 223.7 197.92 219.91C197.92 216.11 201 213.04 204.79 213.04C208.58 213.03 211.66 216.11 211.66 219.91Z" fill="#9F41EA" fill-opacity="0.2"/>
<path d="M247.39 219.91C247.39 223.7 244.31 226.78 240.52 226.78C236.72 226.78 233.65 223.7 233.65 219.91C233.65 216.11 236.73 213.04 240.52 213.04C244.32 213.03 247.39 216.11 247.39 219.91Z" fill="#9F41EA" fill-opacity="0.2"/>
<path d="M283.13 219.91C283.13 223.7 280.05 226.78 276.26 226.78C272.46 226.78 269.39 223.7 269.39 219.91C269.39 216.11 272.47 213.04 276.26 213.04C280.05 213.03 283.13 216.11 283.13 219.91Z" fill="#9F41EA" fill-opacity="0.2"/>
<path d="M318.86 219.91C318.86 223.7 315.78 226.78 311.99 226.78C308.2 226.78 305.12 223.7 305.12 219.91C305.12 216.11 308.2 213.04 311.99 213.04C315.79 213.03 318.86 216.11 318.86 219.91Z" fill="#9F41EA" fill-opacity="0.2"/>
<path d="M354.6 219.91C354.6 223.7 351.52 226.78 347.73 226.78C343.94 226.78 340.86 223.7 340.86 219.91C340.86 216.11 343.94 213.04 347.73 213.04C351.52 213.04 354.6 216.11 354.6 219.91Z" fill="#9F41EA" fill-opacity="0.2"/>
<path d="M390.33 219.91C390.33 223.7 387.25 226.78 383.46 226.78C379.67 226.78 376.59 223.7 376.59 219.91C376.59 216.11 379.67 213.04 383.46 213.04C387.25 213.03 390.33 216.11 390.33 219.91Z" fill="#9F41EA" fill-opacity="0.2"/>
<path d="M426.07 219.91C426.07 223.7 422.99 226.78 419.2 226.78C415.41 226.78 412.33 223.7 412.33 219.91C412.33 216.11 415.41 213.04 419.2 213.04C422.99 213.03 426.07 216.11 426.07 219.91Z" fill="#9F41EA" fill-opacity="0.2"/>
<path d="M13.74 240.52C13.74 244.32 10.66 247.39 6.87 247.39C3.08 247.39 0 244.32 0 240.52C0 236.73 3.08 233.65 6.87 233.65C10.66 233.65 13.74 236.73 13.74 240.52Z" fill="#9F41EA" fill-opacity="0.2"/>
<path d="M49.48 240.52C49.48 244.32 46.4 247.39 42.61 247.39C38.82 247.39 35.74 244.31 35.74 240.52C35.74 236.73 38.82 233.65 42.61 233.65C46.4 233.65 49.48 236.73 49.48 240.52Z" fill="#9F41EA" fill-opacity="0.2"/>
<path d="M85.21 240.52C85.21 244.32 82.13 247.39 78.34 247.39C74.55 247.39 71.47 244.31 71.47 240.52C71.47 236.73 74.55 233.65 78.34 233.65C82.13 233.65 85.21 236.73 85.21 240.52Z" fill="#9F41EA" fill-opacity="0.2"/>
<path d="M120.95 240.52C120.95 244.32 117.87 247.39 114.08 247.39C110.28 247.39 107.21 244.31 107.21 240.52C107.21 236.73 110.29 233.65 114.08 233.65C117.87 233.65 120.95 236.73 120.95 240.52Z" fill="#9F41EA" fill-opacity="0.2"/>
<path d="M156.68 240.52C156.68 244.32 153.6 247.39 149.81 247.39C146.01 247.39 142.94 244.31 142.94 240.52C142.94 236.73 146.02 233.65 149.81 233.65C153.61 233.65 156.68 236.73 156.68 240.52Z" fill="#9F41EA" fill-opacity="0.2"/>
<path d="M192.42 240.52C192.42 244.32 189.34 247.39 185.55 247.39C181.75 247.39 178.68 244.31 178.68 240.52C178.68 236.73 181.76 233.65 185.55 233.65C189.34 233.65 192.42 236.73 192.42 240.52Z" fill="#9F41EA" fill-opacity="0.2"/>
<path d="M228.15 240.52C228.15 244.32 225.07 247.39 221.28 247.39C217.49 247.39 214.41 244.31 214.41 240.52C214.41 236.73 217.49 233.65 221.28 233.65C225.07 233.65 228.15 236.73 228.15 240.52Z" fill="#9F41EA" fill-opacity="0.2"/>
<path d="M263.89 240.52C263.89 244.32 260.81 247.39 257.02 247.39C253.23 247.39 250.15 244.31 250.15 240.52C250.15 236.73 253.23 233.65 257.02 233.65C260.81 233.65 263.89 236.73 263.89 240.52Z" fill="#9F41EA" fill-opacity="0.2"/>
<path d="M299.62 240.52C299.62 244.32 296.54 247.39 292.75 247.39C288.95 247.39 285.88 244.31 285.88 240.52C285.88 236.73 288.96 233.65 292.75 233.65C296.54 233.65 299.62 236.73 299.62 240.52Z" fill="#9F41EA" fill-opacity="0.2"/>
<path d="M335.36 240.52C335.36 244.32 332.28 247.39 328.49 247.39C324.7 247.39 321.62 244.31 321.62 240.52C321.62 236.73 324.7 233.65 328.49 233.65C332.28 233.65 335.36 236.73 335.36 240.52Z" fill="#9F41EA" fill-opacity="0.2"/>
<path d="M371.09 240.52C371.09 244.32 368.01 247.39 364.22 247.39C360.42 247.39 357.35 244.31 357.35 240.52C357.35 236.73 360.43 233.65 364.22 233.65C368.01 233.65 371.09 236.73 371.09 240.52Z" fill="#9F41EA" fill-opacity="0.2"/>
<path d="M406.82 240.52C406.82 244.32 403.74 247.39 399.95 247.39C396.16 247.39 393.08 244.31 393.08 240.52C393.08 236.73 396.16 233.65 399.95 233.65C403.74 233.65 406.82 236.73 406.82 240.52Z" fill="#9F41EA" fill-opacity="0.2"/>
<path d="M32.99 262.51C32.99 266.31 29.91 269.38 26.12 269.38C22.33 269.38 19.25 266.3 19.25 262.51C19.25 258.72 22.33 255.64 26.12 255.64C29.91 255.64 32.99 258.72 32.99 262.51Z" fill="#9F41EA" fill-opacity="0.2"/>
<path d="M68.72 262.51C68.72 266.31 65.64 269.38 61.85 269.38C58.05 269.38 54.98 266.3 54.98 262.51C54.98 258.72 58.06 255.64 61.85 255.64C65.64 255.64 68.72 258.72 68.72 262.51Z" fill="#9F41EA" fill-opacity="0.2"/>
<path d="M104.46 262.51C104.46 266.31 101.38 269.38 97.59 269.38C93.79 269.38 90.72 266.3 90.72 262.51C90.72 258.72 93.8 255.64 97.59 255.64C101.38 255.64 104.46 258.72 104.46 262.51Z" fill="#9F41EA" fill-opacity="0.2"/>
<path d="M140.19 262.51C140.19 266.31 137.11 269.38 133.32 269.38C129.53 269.38 126.45 266.3 126.45 262.51C126.45 258.72 129.53 255.64 133.32 255.64C137.11 255.64 140.19 258.72 140.19 262.51Z" fill="#9F41EA" fill-opacity="0.2"/>
<path d="M175.92 262.51C175.92 266.31 172.84 269.38 169.05 269.38C165.25 269.38 162.18 266.3 162.18 262.51C162.18 258.72 165.26 255.64 169.05 255.64C172.85 255.64 175.92 258.72 175.92 262.51Z" fill="#9F41EA" fill-opacity="0.2"/>
<path d="M211.66 262.51C211.66 266.31 208.58 269.38 204.79 269.38C200.99 269.38 197.92 266.3 197.92 262.51C197.92 258.72 201 255.64 204.79 255.64C208.58 255.64 211.66 258.72 211.66 262.51Z" fill="#9F41EA" fill-opacity="0.2"/>
<path d="M247.39 262.51C247.39 266.31 244.31 269.38 240.52 269.38C236.72 269.38 233.65 266.3 233.65 262.51C233.65 258.72 236.73 255.64 240.52 255.64C244.32 255.64 247.39 258.72 247.39 262.51Z" fill="#9F41EA" fill-opacity="0.2"/>
<path d="M283.13 262.51C283.13 266.31 280.05 269.38 276.26 269.38C272.46 269.38 269.39 266.3 269.39 262.51C269.39 258.72 272.47 255.64 276.26 255.64C280.05 255.64 283.13 258.72 283.13 262.51Z" fill="#9F41EA" fill-opacity="0.2"/>
<path d="M318.86 262.51C318.86 266.31 315.78 269.38 311.99 269.38C308.2 269.38 305.12 266.3 305.12 262.51C305.12 258.72 308.2 255.64 311.99 255.64C315.79 255.64 318.86 258.72 318.86 262.51Z" fill="#9F41EA" fill-opacity="0.2"/>
<path d="M354.6 262.51C354.6 266.31 351.52 269.38 347.73 269.38C343.94 269.38 340.86 266.3 340.86 262.51C340.86 258.72 343.94 255.64 347.73 255.64C351.52 255.64 354.6 258.72 354.6 262.51Z" fill="#9F41EA" fill-opacity="0.2"/>
<path d="M390.33 262.51C390.33 266.31 387.25 269.38 383.46 269.38C379.67 269.38 376.59 266.3 376.59 262.51C376.59 258.72 379.67 255.64 383.46 255.64C387.25 255.64 390.33 258.72 390.33 262.51Z" fill="#9F41EA" fill-opacity="0.2"/>
<path d="M426.07 262.51C426.07 266.31 422.99 269.38 419.2 269.38C415.41 269.38 412.33 266.3 412.33 262.51C412.33 258.72 415.41 255.64 419.2 255.64C422.99 255.64 426.07 258.72 426.07 262.51Z" fill="#9F41EA" fill-opacity="0.2"/>
<path d="M13.74 283.13C13.74 286.92 10.66 290 6.87 290C3.08 290 0 286.92 0 283.13C0 279.33 3.08 276.26 6.87 276.26C10.66 276.26 13.74 279.33 13.74 283.13Z" fill="#9F41EA" fill-opacity="0.2"/>
<path d="M49.48 283.13C49.48 286.92 46.4 290 42.61 290C38.82 290 35.74 286.92 35.74 283.13C35.74 279.33 38.82 276.26 42.61 276.26C46.4 276.26 49.48 279.33 49.48 283.13Z" fill="#9F41EA" fill-opacity="0.2"/>
<path d="M85.21 283.13C85.21 286.92 82.13 290 78.34 290C74.55 290 71.47 286.92 71.47 283.13C71.47 279.33 74.55 276.26 78.34 276.26C82.13 276.26 85.21 279.33 85.21 283.13Z" fill="#9F41EA" fill-opacity="0.2"/>
<path d="M120.95 283.13C120.95 286.92 117.87 290 114.08 290C110.28 290 107.21 286.92 107.21 283.13C107.21 279.33 110.29 276.26 114.08 276.26C117.87 276.26 120.95 279.33 120.95 283.13Z" fill="#9F41EA" fill-opacity="0.2"/>
<path d="M156.68 283.13C156.68 286.92 153.6 290 149.81 290C146.01 290 142.94 286.92 142.94 283.13C142.94 279.33 146.02 276.26 149.81 276.26C153.61 276.26 156.68 279.33 156.68 283.13Z" fill="#9F41EA" fill-opacity="0.2"/>
<path d="M192.42 283.13C192.42 286.92 189.34 290 185.55 290C181.75 290 178.68 286.92 178.68 283.13C178.68 279.33 181.76 276.26 185.55 276.26C189.34 276.26 192.42 279.33 192.42 283.13Z" fill="#9F41EA" fill-opacity="0.2"/>
<path d="M228.15 283.13C228.15 286.92 225.07 290 221.28 290C217.49 290 214.41 286.92 214.41 283.13C214.41 279.33 217.49 276.26 221.28 276.26C225.07 276.26 228.15 279.33 228.15 283.13Z" fill="#9F41EA" fill-opacity="0.2"/>
<path d="M263.89 283.13C263.89 286.92 260.81 290 257.02 290C253.23 290 250.15 286.92 250.15 283.13C250.15 279.33 253.23 276.26 257.02 276.26C260.81 276.26 263.89 279.33 263.89 283.13Z" fill="#9F41EA" fill-opacity="0.2"/>
<path d="M299.62 283.13C299.62 286.92 296.54 290 292.75 290C288.95 290 285.88 286.92 285.88 283.13C285.88 279.33 288.96 276.26 292.75 276.26C296.54 276.26 299.62 279.33 299.62 283.13Z" fill="#9F41EA" fill-opacity="0.2"/>
<path d="M335.36 283.13C335.36 286.92 332.28 290 328.49 290C324.7 290 321.62 286.92 321.62 283.13C321.62 279.33 324.7 276.26 328.49 276.26C332.28 276.26 335.36 279.33 335.36 283.13Z" fill="#9F41EA" fill-opacity="0.2"/>
<path d="M371.09 283.13C371.09 286.92 368.01 290 364.22 290C360.42 290 357.35 286.92 357.35 283.13C357.35 279.33 360.43 276.26 364.22 276.26C368.01 276.26 371.09 279.33 371.09 283.13Z" fill="#9F41EA" fill-opacity="0.2"/>
<path d="M406.82 283.13C406.82 286.92 403.74 290 399.95 290C396.16 290 393.08 286.92 393.08 283.13C393.08 279.33 396.16 276.26 399.95 276.26C403.74 276.26 406.82 279.33 406.82 283.13Z" fill="#9F41EA" fill-opacity="0.2"/>
</g>
<defs>
<clipPath id="clip0_116_16571">
<rect width="426.07" height="290" fill="white"/>
</clipPath>
</defs>
</svg>
