<svg width="132" height="129" viewBox="0 0 132 129" fill="none" xmlns="http://www.w3.org/2000/svg">
<g clip-path="url(#clip0_149_2759)">
<path d="M14.634 3.05597C14.634 4.74631 13.2677 6.11193 11.5865 6.11193C9.90532 6.11193 8.53906 4.74186 8.53906 3.05597C8.53906 1.37007 9.90088 0 11.5821 0C13.2633 0 14.634 1.37007 14.634 3.05597Z" fill="#F4C918"/>
<path d="M30.4834 3.05597C30.4834 4.74631 29.1171 6.11193 27.4359 6.11193C25.7503 6.11193 24.3885 4.74186 24.3885 3.05597C24.3885 1.37007 25.7503 0 27.4359 0C29.1171 0 30.4834 1.37007 30.4834 3.05597Z" fill="#F4C918"/>
<path d="M46.3373 3.05597C46.3373 4.74631 44.971 6.11193 43.2898 6.11193C41.6042 6.11193 40.2424 4.74186 40.2424 3.05597C40.2424 1.37007 41.6042 0 43.2854 0C44.971 0 46.3373 1.37007 46.3373 3.05597Z" fill="#F4C918"/>
<path d="M62.1867 3.05597C62.1867 4.74631 60.8205 6.11193 59.1393 6.11193C57.4581 6.11193 56.0918 4.74186 56.0918 3.05597C56.0918 1.37007 57.4536 0 59.1393 0C60.8249 0 62.1867 1.37007 62.1867 3.05597Z" fill="#F4C918"/>
<path d="M78.0361 3.05597C78.0361 4.74631 76.6699 6.11193 74.9887 6.11193C73.303 6.11193 71.9412 4.74186 71.9412 3.05597C71.9412 1.37007 73.3075 0 74.9887 0C76.6743 0 78.0361 1.37007 78.0361 3.05597Z" fill="#F4C918"/>
<path d="M93.89 3.05597C93.89 4.74631 92.5238 6.11193 90.8426 6.11193C89.1569 6.11193 87.7951 4.74186 87.7951 3.05597C87.7951 1.37007 89.1569 0 90.8426 0C92.5238 0 93.89 1.37007 93.89 3.05597Z" fill="#F4C918"/>
<path d="M109.739 3.05597C109.739 4.74631 108.373 6.11193 106.692 6.11193C105.006 6.11193 103.645 4.74186 103.645 3.05597C103.645 1.37007 105.011 0 106.692 0C108.378 0 109.739 1.37007 109.739 3.05597Z" fill="#F4C918"/>
<path d="M125.593 3.05597C125.593 4.74631 124.227 6.11193 122.546 6.11193C120.86 6.11193 119.498 4.74186 119.498 3.05597C119.498 1.37007 120.86 0 122.546 0C124.227 0 125.593 1.37007 125.593 3.05597Z" fill="#F4C918"/>
<path d="M6.09491 12.2278C6.09491 13.9182 4.72866 15.2838 3.04746 15.2838C1.36625 15.2838 0 13.9137 0 12.2278C0 10.5419 1.36625 9.17188 3.04746 9.17188C4.72866 9.17188 6.09491 10.5375 6.09491 12.2278Z" fill="#F4C918"/>
<path d="M21.9488 12.2278C21.9488 13.9182 20.5825 15.2838 18.9013 15.2838C17.2201 15.2838 15.8539 13.9137 15.8539 12.2278C15.8539 10.5419 17.2201 9.17188 18.9013 9.17188C20.5825 9.17188 21.9488 10.5375 21.9488 12.2278Z" fill="#F4C918"/>
<path d="M37.7982 12.2278C37.7982 13.9182 36.432 15.2838 34.7508 15.2838C33.0696 15.2838 31.7033 13.9137 31.7033 12.2278C31.7033 10.5419 33.0696 9.17188 34.7508 9.17188C36.432 9.17188 37.7982 10.5375 37.7982 12.2278Z" fill="#F4C918"/>
<path d="M53.6521 12.2278C53.6521 13.9182 52.2859 15.2838 50.6046 15.2838C48.919 15.2838 47.5572 13.9137 47.5572 12.2278C47.5572 10.5419 48.9234 9.17188 50.6046 9.17188C52.2859 9.17188 53.6521 10.5375 53.6521 12.2278Z" fill="#F4C918"/>
<path d="M69.5015 12.2278C69.5015 13.9182 68.1353 15.2838 66.4541 15.2838C64.7684 15.2838 63.4066 13.9137 63.4066 12.2278C63.4066 10.5419 64.7729 9.17188 66.4541 9.17188C68.1397 9.17188 69.5015 10.5375 69.5015 12.2278Z" fill="#F4C918"/>
<path d="M85.3554 12.2278C85.3554 13.9182 83.9892 15.2838 82.308 15.2838C80.6223 15.2838 79.2605 13.9137 79.2605 12.2278C79.2605 10.5419 80.6268 9.17188 82.308 9.17188C83.9892 9.17188 85.3554 10.5375 85.3554 12.2278Z" fill="#F4C918"/>
<path d="M101.205 12.2278C101.205 13.9182 99.8386 15.2838 98.1574 15.2838C96.4762 15.2838 95.1099 13.9137 95.1099 12.2278C95.1099 10.5419 96.4762 9.17188 98.1574 9.17188C99.8386 9.17188 101.205 10.5375 101.205 12.2278Z" fill="#F4C918"/>
<path d="M117.059 12.2278C117.059 13.9182 115.692 15.2838 114.011 15.2838C112.33 15.2838 110.964 13.9137 110.964 12.2278C110.964 10.5419 112.33 9.17188 114.011 9.17188C115.692 9.17188 117.059 10.5375 117.059 12.2278Z" fill="#F4C918"/>
<path d="M132.908 12.2278C132.908 13.9182 131.542 15.2838 129.861 15.2838C128.175 15.2838 126.813 13.9137 126.813 12.2278C126.813 10.5419 128.179 9.17188 129.861 9.17188C131.542 9.17188 132.908 10.5375 132.908 12.2278Z" fill="#F4C918"/>
<path d="M11.5821 25.067C13.2652 25.067 14.6296 23.6988 14.6296 22.011C14.6296 20.3233 13.2652 18.9551 11.5821 18.9551C9.89906 18.9551 8.53467 20.3233 8.53467 22.011C8.53467 23.6988 9.89906 25.067 11.5821 25.067Z" fill="#F4C918"/>
<path d="M30.4835 22.011C30.4835 23.7014 29.1172 25.067 27.436 25.067C25.7504 25.067 24.3885 23.6969 24.3885 22.011C24.3885 20.3251 25.7548 18.9551 27.436 18.9551C29.1172 18.9551 30.4835 20.3207 30.4835 22.011Z" fill="#F4C918"/>
<path d="M43.2854 25.067C44.9685 25.067 46.3329 23.6988 46.3329 22.011C46.3329 20.3233 44.9685 18.9551 43.2854 18.9551C41.6024 18.9551 40.238 20.3233 40.238 22.011C40.238 23.6988 41.6024 25.067 43.2854 25.067Z" fill="#F4C918"/>
<path d="M59.1393 25.067C60.8224 25.067 62.1868 23.6988 62.1868 22.011C62.1868 20.3233 60.8224 18.9551 59.1393 18.9551C57.4563 18.9551 56.0919 20.3233 56.0919 22.011C56.0919 23.6988 57.4563 25.067 59.1393 25.067Z" fill="#F4C918"/>
<path d="M74.9887 25.067C76.6718 25.067 78.0362 23.6988 78.0362 22.011C78.0362 20.3233 76.6718 18.9551 74.9887 18.9551C73.3057 18.9551 71.9413 20.3233 71.9413 22.011C71.9413 23.6988 73.3057 25.067 74.9887 25.067Z" fill="#F4C918"/>
<path d="M90.8426 25.067C92.5257 25.067 93.8901 23.6988 93.8901 22.011C93.8901 20.3233 92.5257 18.9551 90.8426 18.9551C89.1596 18.9551 87.7952 20.3233 87.7952 22.011C87.7952 23.6988 89.1596 25.067 90.8426 25.067Z" fill="#F4C918"/>
<path d="M109.74 22.011C109.74 23.7014 108.373 25.067 106.692 25.067C105.006 25.067 103.645 23.6969 103.645 22.011C103.645 20.3251 105.011 18.9551 106.692 18.9551C108.378 18.9551 109.74 20.3207 109.74 22.011Z" fill="#F4C918"/>
<path d="M125.593 22.011C125.593 23.7014 124.227 25.067 122.546 25.067C120.86 25.067 119.498 23.6969 119.498 22.011C119.498 20.3251 120.865 18.9551 122.546 18.9551C124.227 18.9551 125.593 20.3207 125.593 22.011Z" fill="#F4C918"/>
<path d="M6.09491 31.1771C6.09491 32.8674 4.72866 34.233 3.04746 34.233C1.36625 34.233 0 32.8674 0 31.1771C0 29.4867 1.36625 28.1211 3.04746 28.1211C4.72866 28.1211 6.09491 29.4912 6.09491 31.1771Z" fill="#F4C918"/>
<path d="M21.9488 31.1771C21.9488 32.8674 20.5825 34.233 18.9013 34.233C17.2201 34.233 15.8539 32.863 15.8539 31.1771C15.8539 29.4867 17.2201 28.1211 18.9013 28.1211C20.5825 28.1211 21.9488 29.4912 21.9488 31.1771Z" fill="#F4C918"/>
<path d="M37.7982 31.1771C37.7982 32.8674 36.432 34.233 34.7508 34.233C33.0696 34.233 31.7033 32.863 31.7033 31.1771C31.7033 29.4867 33.0696 28.1211 34.7508 28.1211C36.432 28.1211 37.7982 29.4912 37.7982 31.1771Z" fill="#F4C918"/>
<path d="M53.6521 31.1771C53.6521 32.8674 52.2859 34.233 50.6046 34.233C48.919 34.233 47.5572 32.863 47.5572 31.1771C47.5572 29.4867 48.9234 28.1211 50.6046 28.1211C52.2859 28.1211 53.6521 29.4912 53.6521 31.1771Z" fill="#F4C918"/>
<path d="M69.5015 31.1771C69.5015 32.8674 68.1353 34.233 66.4541 34.233C64.7684 34.233 63.4066 32.863 63.4066 31.1771C63.4066 29.4867 64.7729 28.1211 66.4541 28.1211C68.1397 28.1211 69.5015 29.4912 69.5015 31.1771Z" fill="#F4C918"/>
<path d="M85.3554 31.1771C85.3554 32.8674 83.9892 34.233 82.308 34.233C80.6223 34.233 79.2605 32.863 79.2605 31.1771C79.2605 29.4867 80.6268 28.1211 82.308 28.1211C83.9892 28.1211 85.3554 29.4912 85.3554 31.1771Z" fill="#F4C918"/>
<path d="M101.205 31.1771C101.205 32.8674 99.8386 34.233 98.1574 34.233C96.4762 34.233 95.1099 32.863 95.1099 31.1771C95.1099 29.4867 96.4762 28.1211 98.1574 28.1211C99.8386 28.1211 101.205 29.4912 101.205 31.1771Z" fill="#F4C918"/>
<path d="M117.059 31.1771C117.059 32.8674 115.692 34.233 114.011 34.233C112.33 34.233 110.964 32.863 110.964 31.1771C110.964 29.4867 112.33 28.1211 114.011 28.1211C115.692 28.1211 117.059 29.4912 117.059 31.1771Z" fill="#F4C918"/>
<path d="M132.908 31.1771C132.908 32.8674 131.542 34.233 129.861 34.233C128.175 34.233 126.813 32.863 126.813 31.1771C126.813 29.4867 128.179 28.1211 129.861 28.1211C131.542 28.1211 132.908 29.4912 132.908 31.1771Z" fill="#F4C918"/>
<path d="M14.634 40.9642C14.634 42.6545 13.2677 44.0201 11.5865 44.0201C9.90532 44.0201 8.53906 42.6501 8.53906 40.9642C8.53906 39.2738 9.90532 37.9082 11.5865 37.9082C13.2677 37.9082 14.634 39.2738 14.634 40.9642Z" fill="#F4C918"/>
<path d="M30.4834 40.9642C30.4834 42.6545 29.1171 44.0201 27.4359 44.0201C25.7503 44.0201 24.3885 42.6501 24.3885 40.9642C24.3885 39.2738 25.7547 37.9082 27.4359 37.9082C29.1171 37.9038 30.4834 39.2738 30.4834 40.9642Z" fill="#F4C918"/>
<path d="M46.3373 40.9642C46.3373 42.6545 44.971 44.0201 43.2898 44.0201C41.6042 44.0201 40.2424 42.6501 40.2424 40.9642C40.2424 39.2738 41.6086 37.9082 43.2898 37.9082C44.971 37.9038 46.3373 39.2738 46.3373 40.9642Z" fill="#F4C918"/>
<path d="M62.1867 40.9642C62.1867 42.6545 60.8205 44.0201 59.1393 44.0201C57.4581 44.0201 56.0918 42.6501 56.0918 40.9642C56.0918 39.2738 57.4581 37.9082 59.1393 37.9082C60.8205 37.9082 62.1867 39.2738 62.1867 40.9642Z" fill="#F4C918"/>
<path d="M78.0361 40.9642C78.0361 42.6545 76.6699 44.0201 74.9887 44.0201C73.303 44.0201 71.9412 42.6501 71.9412 40.9642C71.9412 39.2738 73.3075 37.9082 74.9887 37.9082C76.6743 37.9038 78.0361 39.2738 78.0361 40.9642Z" fill="#F4C918"/>
<path d="M93.89 40.9642C93.89 42.6545 92.5238 44.0201 90.8426 44.0201C89.1569 44.0201 87.7951 42.6501 87.7951 40.9642C87.7951 39.2738 89.1614 37.9082 90.8426 37.9082C92.5238 37.9038 93.89 39.2738 93.89 40.9642Z" fill="#F4C918"/>
<path d="M109.739 40.9642C109.739 42.6545 108.373 44.0201 106.692 44.0201C105.006 44.0201 103.645 42.6501 103.645 40.9642C103.645 39.2738 105.011 37.9082 106.692 37.9082C108.378 37.9038 109.739 39.2738 109.739 40.9642Z" fill="#F4C918"/>
<path d="M125.593 40.9642C125.593 42.6545 124.227 44.0201 122.546 44.0201C120.86 44.0201 119.498 42.6501 119.498 40.9642C119.498 39.2738 120.865 37.9082 122.546 37.9082C124.227 37.9038 125.593 39.2738 125.593 40.9642Z" fill="#F4C918"/>
<path d="M6.09491 50.1321C6.09491 51.818 4.72866 53.1881 3.04746 53.1881C1.36625 53.1881 0 51.8225 0 50.1321C0 48.4418 1.36625 47.0762 3.04746 47.0762C4.72866 47.0762 6.09491 48.4462 6.09491 50.1321Z" fill="#F4C918"/>
<path d="M21.9488 50.1321C21.9488 51.818 20.5825 53.1881 18.9013 53.1881C17.2201 53.1881 15.8539 51.818 15.8539 50.1321C15.8539 48.4418 17.2201 47.0762 18.9013 47.0762C20.5825 47.0762 21.9488 48.4462 21.9488 50.1321Z" fill="#F4C918"/>
<path d="M37.7982 50.1321C37.7982 51.818 36.432 53.1881 34.7508 53.1881C33.0696 53.1881 31.7033 51.818 31.7033 50.1321C31.7033 48.4418 33.0696 47.0762 34.7508 47.0762C36.432 47.0762 37.7982 48.4462 37.7982 50.1321Z" fill="#F4C918"/>
<path d="M53.6521 50.1321C53.6521 51.818 52.2859 53.1881 50.6046 53.1881C48.919 53.1881 47.5572 51.818 47.5572 50.1321C47.5572 48.4418 48.9234 47.0762 50.6046 47.0762C52.2859 47.0762 53.6521 48.4462 53.6521 50.1321Z" fill="#F4C918"/>
<path d="M69.5015 50.1321C69.5015 51.818 68.1353 53.1881 66.4541 53.1881C64.7684 53.1881 63.4066 51.818 63.4066 50.1321C63.4066 48.4418 64.7729 47.0762 66.4541 47.0762C68.1397 47.0762 69.5015 48.4462 69.5015 50.1321Z" fill="#F4C918"/>
<path d="M85.3554 50.1321C85.3554 51.818 83.9892 53.1881 82.308 53.1881C80.6223 53.1881 79.2605 51.818 79.2605 50.1321C79.2605 48.4418 80.6268 47.0762 82.308 47.0762C83.9892 47.0762 85.3554 48.4462 85.3554 50.1321Z" fill="#F4C918"/>
<path d="M101.205 50.1321C101.205 51.818 99.8386 53.1881 98.1574 53.1881C96.4762 53.1881 95.1099 51.818 95.1099 50.1321C95.1099 48.4418 96.4762 47.0762 98.1574 47.0762C99.8386 47.0762 101.205 48.4462 101.205 50.1321Z" fill="#F4C918"/>
<path d="M117.059 50.1321C117.059 51.818 115.692 53.1881 114.011 53.1881C112.33 53.1881 110.964 51.818 110.964 50.1321C110.964 48.4418 112.33 47.0762 114.011 47.0762C115.692 47.0762 117.059 48.4462 117.059 50.1321Z" fill="#F4C918"/>
<path d="M132.908 50.1321C132.908 51.818 131.542 53.1881 129.861 53.1881C128.175 53.1881 126.813 51.818 126.813 50.1321C126.813 48.4418 128.179 47.0762 129.861 47.0762C131.542 47.0762 132.908 48.4462 132.908 50.1321Z" fill="#F4C918"/>
<path d="M11.5821 62.9694C13.2652 62.9694 14.6296 61.6012 14.6296 59.9134C14.6296 58.2256 13.2652 56.8574 11.5821 56.8574C9.89906 56.8574 8.53467 58.2256 8.53467 59.9134C8.53467 61.6012 9.89906 62.9694 11.5821 62.9694Z" fill="#F4C918"/>
<path d="M30.4835 59.9134C30.4835 61.6037 29.1172 62.9694 27.436 62.9694C25.7504 62.9694 24.3885 61.5993 24.3885 59.9134C24.3885 58.2275 25.7548 56.8574 27.436 56.8574C29.1172 56.8574 30.4835 58.2275 30.4835 59.9134Z" fill="#F4C918"/>
<path d="M43.2854 62.9694C44.9685 62.9694 46.3329 61.6012 46.3329 59.9134C46.3329 58.2256 44.9685 56.8574 43.2854 56.8574C41.6024 56.8574 40.238 58.2256 40.238 59.9134C40.238 61.6012 41.6024 62.9694 43.2854 62.9694Z" fill="#F4C918"/>
<path d="M59.1393 62.9694C60.8224 62.9694 62.1868 61.6012 62.1868 59.9134C62.1868 58.2256 60.8224 56.8574 59.1393 56.8574C57.4563 56.8574 56.0919 58.2256 56.0919 59.9134C56.0919 61.6012 57.4563 62.9694 59.1393 62.9694Z" fill="#F4C918"/>
<path d="M74.9887 62.9694C76.6718 62.9694 78.0362 61.6012 78.0362 59.9134C78.0362 58.2256 76.6718 56.8574 74.9887 56.8574C73.3057 56.8574 71.9413 58.2256 71.9413 59.9134C71.9413 61.6012 73.3057 62.9694 74.9887 62.9694Z" fill="#F4C918"/>
<path d="M90.8426 62.9694C92.5257 62.9694 93.8901 61.6012 93.8901 59.9134C93.8901 58.2256 92.5257 56.8574 90.8426 56.8574C89.1596 56.8574 87.7952 58.2256 87.7952 59.9134C87.7952 61.6012 89.1596 62.9694 90.8426 62.9694Z" fill="#F4C918"/>
<path d="M109.74 59.9134C109.74 61.6037 108.373 62.9694 106.692 62.9694C105.006 62.9694 103.645 61.5993 103.645 59.9134C103.645 58.2275 105.011 56.8574 106.692 56.8574C108.378 56.8574 109.74 58.2275 109.74 59.9134Z" fill="#F4C918"/>
<path d="M125.593 59.9134C125.593 61.6037 124.227 62.9694 122.546 62.9694C120.86 62.9694 119.498 61.5993 119.498 59.9134C119.498 58.2275 120.865 56.8574 122.546 56.8574C124.227 56.8574 125.593 58.2275 125.593 59.9134Z" fill="#F4C918"/>
<path d="M3.04746 72.1412C4.73052 72.1412 6.09491 70.773 6.09491 69.0853C6.09491 67.3975 4.73052 66.0293 3.04746 66.0293C1.36439 66.0293 0 67.3975 0 69.0853C0 70.773 1.36439 72.1412 3.04746 72.1412Z" fill="#F4C918"/>
<path d="M18.9013 72.1412C20.5844 72.1412 21.9488 70.773 21.9488 69.0853C21.9488 67.3975 20.5844 66.0293 18.9013 66.0293C17.2183 66.0293 15.8539 67.3975 15.8539 69.0853C15.8539 70.773 17.2183 72.1412 18.9013 72.1412Z" fill="#F4C918"/>
<path d="M34.7508 72.1412C36.4338 72.1412 37.7982 70.773 37.7982 69.0853C37.7982 67.3975 36.4338 66.0293 34.7508 66.0293C33.0677 66.0293 31.7033 67.3975 31.7033 69.0853C31.7033 70.773 33.0677 72.1412 34.7508 72.1412Z" fill="#F4C918"/>
<path d="M50.6046 72.1412C52.2877 72.1412 53.6521 70.773 53.6521 69.0853C53.6521 67.3975 52.2877 66.0293 50.6046 66.0293C48.9216 66.0293 47.5572 67.3975 47.5572 69.0853C47.5572 70.773 48.9216 72.1412 50.6046 72.1412Z" fill="#F4C918"/>
<path d="M66.4541 72.1412C68.1371 72.1412 69.5015 70.773 69.5015 69.0853C69.5015 67.3975 68.1371 66.0293 66.4541 66.0293C64.771 66.0293 63.4066 67.3975 63.4066 69.0853C63.4066 70.773 64.771 72.1412 66.4541 72.1412Z" fill="#F4C918"/>
<path d="M82.3035 72.1412C83.9866 72.1412 85.351 70.773 85.351 69.0853C85.351 67.3975 83.9866 66.0293 82.3035 66.0293C80.6204 66.0293 79.256 67.3975 79.256 69.0853C79.256 70.773 80.6204 72.1412 82.3035 72.1412Z" fill="#F4C918"/>
<path d="M98.1574 72.1412C99.8404 72.1412 101.205 70.773 101.205 69.0853C101.205 67.3975 99.8404 66.0293 98.1574 66.0293C96.4743 66.0293 95.1099 67.3975 95.1099 69.0853C95.1099 70.773 96.4743 72.1412 98.1574 72.1412Z" fill="#F4C918"/>
<path d="M114.007 72.1412C115.69 72.1412 117.054 70.773 117.054 69.0853C117.054 67.3975 115.69 66.0293 114.007 66.0293C112.324 66.0293 110.959 67.3975 110.959 69.0853C110.959 70.773 112.324 72.1412 114.007 72.1412Z" fill="#F4C918"/>
<path d="M132.908 69.0853C132.908 70.7712 131.542 72.1412 129.861 72.1412C128.175 72.1412 126.813 70.7712 126.813 69.0853C126.813 67.3994 128.179 66.0293 129.861 66.0293C131.542 66.0293 132.908 67.3949 132.908 69.0853Z" fill="#F4C918"/>
<path d="M14.634 78.8685C14.634 80.5588 13.2677 81.9244 11.5865 81.9244C9.90532 81.9244 8.53906 80.5544 8.53906 78.8685C8.53906 77.1826 9.90532 75.8125 11.5865 75.8125C13.2677 75.8125 14.634 77.1781 14.634 78.8685Z" fill="#F4C918"/>
<path d="M30.4834 78.8685C30.4834 80.5588 29.1171 81.9244 27.4359 81.9244C25.7503 81.9244 24.3885 80.5544 24.3885 78.8685C24.3885 77.1826 25.7547 75.8125 27.4359 75.8125C29.1171 75.8125 30.4834 77.1781 30.4834 78.8685Z" fill="#F4C918"/>
<path d="M46.3373 78.8685C46.3373 80.5588 44.971 81.9244 43.2898 81.9244C41.6042 81.9244 40.2424 80.5544 40.2424 78.8685C40.2424 77.1826 41.6086 75.8125 43.2898 75.8125C44.971 75.8125 46.3373 77.1781 46.3373 78.8685Z" fill="#F4C918"/>
<path d="M62.1867 78.8685C62.1867 80.5588 60.8205 81.9244 59.1393 81.9244C57.4581 81.9244 56.0918 80.5544 56.0918 78.8685C56.0918 77.1826 57.4581 75.8125 59.1393 75.8125C60.8205 75.8125 62.1867 77.1781 62.1867 78.8685Z" fill="#F4C918"/>
<path d="M78.0361 78.8685C78.0361 80.5588 76.6699 81.9244 74.9887 81.9244C73.303 81.9244 71.9412 80.5544 71.9412 78.8685C71.9412 77.1826 73.3075 75.8125 74.9887 75.8125C76.6743 75.8125 78.0361 77.1781 78.0361 78.8685Z" fill="#F4C918"/>
<path d="M93.89 78.8685C93.89 80.5588 92.5238 81.9244 90.8426 81.9244C89.1569 81.9244 87.7951 80.5544 87.7951 78.8685C87.7951 77.1826 89.1614 75.8125 90.8426 75.8125C92.5238 75.8125 93.89 77.1781 93.89 78.8685Z" fill="#F4C918"/>
<path d="M109.739 78.8685C109.739 80.5588 108.373 81.9244 106.692 81.9244C105.006 81.9244 103.645 80.5544 103.645 78.8685C103.645 77.1826 105.011 75.8125 106.692 75.8125C108.378 75.8125 109.739 77.1781 109.739 78.8685Z" fill="#F4C918"/>
<path d="M125.593 78.8685C125.593 80.5588 124.227 81.9244 122.546 81.9244C120.86 81.9244 119.498 80.5544 119.498 78.8685C119.498 77.1826 120.865 75.8125 122.546 75.8125C124.227 75.8125 125.593 77.1781 125.593 78.8685Z" fill="#F4C918"/>
<path d="M6.09491 88.0364C6.09491 89.7268 4.72866 91.0924 3.04746 91.0924C1.36625 91.0924 0 89.7268 0 88.0364C0 86.3461 1.36625 84.9805 3.04746 84.9805C4.72866 84.9805 6.09491 86.3505 6.09491 88.0364Z" fill="#F4C918"/>
<path d="M21.9488 88.0364C21.9488 89.7268 20.5825 91.0924 18.9013 91.0924C17.2201 91.0924 15.8539 89.7223 15.8539 88.0364C15.8539 86.3461 17.2201 84.9805 18.9013 84.9805C20.5825 84.9805 21.9488 86.3505 21.9488 88.0364Z" fill="#F4C918"/>
<path d="M37.7982 88.0364C37.7982 89.7268 36.432 91.0924 34.7508 91.0924C33.0696 91.0924 31.7033 89.7223 31.7033 88.0364C31.7033 86.3461 33.0696 84.9805 34.7508 84.9805C36.432 84.9805 37.7982 86.3505 37.7982 88.0364Z" fill="#F4C918"/>
<path d="M53.6521 88.0364C53.6521 89.7268 52.2859 91.0924 50.6046 91.0924C48.919 91.0924 47.5572 89.7223 47.5572 88.0364C47.5572 86.3461 48.9234 84.9805 50.6046 84.9805C52.2859 84.9805 53.6521 86.3505 53.6521 88.0364Z" fill="#F4C918"/>
<path d="M69.5015 88.0364C69.5015 89.7268 68.1353 91.0924 66.4541 91.0924C64.7684 91.0924 63.4066 89.7223 63.4066 88.0364C63.4066 86.3461 64.7729 84.9805 66.4541 84.9805C68.1397 84.9805 69.5015 86.3505 69.5015 88.0364Z" fill="#F4C918"/>
<path d="M85.3554 88.0364C85.3554 89.7268 83.9892 91.0924 82.308 91.0924C80.6223 91.0924 79.2605 89.7223 79.2605 88.0364C79.2605 86.3461 80.6268 84.9805 82.308 84.9805C83.9892 84.9805 85.3554 86.3505 85.3554 88.0364Z" fill="#F4C918"/>
<path d="M101.205 88.0364C101.205 89.7268 99.8386 91.0924 98.1574 91.0924C96.4762 91.0924 95.1099 89.7223 95.1099 88.0364C95.1099 86.3461 96.4762 84.9805 98.1574 84.9805C99.8386 84.9805 101.205 86.3505 101.205 88.0364Z" fill="#F4C918"/>
<path d="M117.059 88.0364C117.059 89.7268 115.692 91.0924 114.011 91.0924C112.33 91.0924 110.964 89.7223 110.964 88.0364C110.964 86.3461 112.33 84.9805 114.011 84.9805C115.692 84.9805 117.059 86.3505 117.059 88.0364Z" fill="#F4C918"/>
<path d="M132.908 88.0364C132.908 89.7268 131.542 91.0924 129.861 91.0924C128.175 91.0924 126.813 89.7223 126.813 88.0364C126.813 86.3461 128.179 84.9805 129.861 84.9805C131.542 84.9805 132.908 86.3505 132.908 88.0364Z" fill="#F4C918"/>
<path d="M14.634 97.8216C14.634 99.5075 13.2677 100.878 11.5865 100.878C9.90532 100.878 8.53906 99.5075 8.53906 97.8216C8.53906 96.1313 9.90532 94.7656 11.5865 94.7656C13.2677 94.7656 14.634 96.1313 14.634 97.8216Z" fill="#F4C918"/>
<path d="M30.4834 97.8216C30.4834 99.5075 29.1171 100.878 27.4359 100.878C25.7503 100.878 24.3885 99.5075 24.3885 97.8216C24.3885 96.1313 25.7547 94.7656 27.4359 94.7656C29.1171 94.7612 30.4834 96.1313 30.4834 97.8216Z" fill="#F4C918"/>
<path d="M46.3373 97.8216C46.3373 99.5075 44.971 100.878 43.2898 100.878C41.6042 100.878 40.2424 99.5075 40.2424 97.8216C40.2424 96.1313 41.6086 94.7656 43.2898 94.7656C44.971 94.7612 46.3373 96.1313 46.3373 97.8216Z" fill="#F4C918"/>
<path d="M62.1867 97.8216C62.1867 99.5075 60.8205 100.878 59.1393 100.878C57.4581 100.878 56.0918 99.5075 56.0918 97.8216C56.0918 96.1313 57.4581 94.7656 59.1393 94.7656C60.8205 94.7656 62.1867 96.1313 62.1867 97.8216Z" fill="#F4C918"/>
<path d="M78.0361 97.8216C78.0361 99.5075 76.6699 100.878 74.9887 100.878C73.303 100.878 71.9412 99.5075 71.9412 97.8216C71.9412 96.1313 73.3075 94.7656 74.9887 94.7656C76.6743 94.7612 78.0361 96.1313 78.0361 97.8216Z" fill="#F4C918"/>
<path d="M93.89 97.8216C93.89 99.5075 92.5238 100.878 90.8426 100.878C89.1569 100.878 87.7951 99.5075 87.7951 97.8216C87.7951 96.1313 89.1614 94.7656 90.8426 94.7656C92.5238 94.7612 93.89 96.1313 93.89 97.8216Z" fill="#F4C918"/>
<path d="M109.739 97.8216C109.739 99.5075 108.373 100.878 106.692 100.878C105.006 100.878 103.645 99.5075 103.645 97.8216C103.645 96.1313 105.011 94.7656 106.692 94.7656C108.378 94.7612 109.739 96.1313 109.739 97.8216Z" fill="#F4C918"/>
<path d="M125.593 97.8216C125.593 99.5075 124.227 100.878 122.546 100.878C120.86 100.878 119.498 99.5075 119.498 97.8216C119.498 96.1313 120.865 94.7656 122.546 94.7656C124.227 94.7612 125.593 96.1313 125.593 97.8216Z" fill="#F4C918"/>
<path d="M6.09491 106.99C6.09491 108.68 4.72866 110.046 3.04746 110.046C1.36625 110.046 0 108.68 0 106.99C0 105.304 1.36625 103.934 3.04746 103.934C4.72866 103.934 6.09491 105.304 6.09491 106.99Z" fill="#F4C918"/>
<path d="M21.9488 106.99C21.9488 108.68 20.5825 110.046 18.9013 110.046C17.2201 110.046 15.8539 108.675 15.8539 106.99C15.8539 105.304 17.2201 103.934 18.9013 103.934C20.5825 103.934 21.9488 105.304 21.9488 106.99Z" fill="#F4C918"/>
<path d="M37.7982 106.99C37.7982 108.68 36.432 110.046 34.7508 110.046C33.0696 110.046 31.7033 108.675 31.7033 106.99C31.7033 105.304 33.0696 103.934 34.7508 103.934C36.432 103.934 37.7982 105.304 37.7982 106.99Z" fill="#F4C918"/>
<path d="M53.6521 106.99C53.6521 108.68 52.2859 110.046 50.6046 110.046C48.919 110.046 47.5572 108.675 47.5572 106.99C47.5572 105.304 48.9234 103.934 50.6046 103.934C52.2859 103.934 53.6521 105.304 53.6521 106.99Z" fill="#F4C918"/>
<path d="M69.5015 106.99C69.5015 108.68 68.1353 110.046 66.4541 110.046C64.7684 110.046 63.4066 108.675 63.4066 106.99C63.4066 105.304 64.7729 103.934 66.4541 103.934C68.1397 103.934 69.5015 105.304 69.5015 106.99Z" fill="#F4C918"/>
<path d="M85.3554 106.99C85.3554 108.68 83.9892 110.046 82.308 110.046C80.6223 110.046 79.2605 108.675 79.2605 106.99C79.2605 105.304 80.6268 103.934 82.308 103.934C83.9892 103.934 85.3554 105.304 85.3554 106.99Z" fill="#F4C918"/>
<path d="M101.205 106.99C101.205 108.68 99.8386 110.046 98.1574 110.046C96.4762 110.046 95.1099 108.675 95.1099 106.99C95.1099 105.304 96.4762 103.934 98.1574 103.934C99.8386 103.934 101.205 105.304 101.205 106.99Z" fill="#F4C918"/>
<path d="M117.059 106.99C117.059 108.68 115.692 110.046 114.011 110.046C112.33 110.046 110.964 108.675 110.964 106.99C110.964 105.304 112.33 103.934 114.011 103.934C115.692 103.934 117.059 105.304 117.059 106.99Z" fill="#F4C918"/>
<path d="M132.908 106.99C132.908 108.68 131.542 110.046 129.861 110.046C128.175 110.046 126.813 108.675 126.813 106.99C126.813 105.304 128.179 103.934 129.861 103.934C131.542 103.934 132.908 105.304 132.908 106.99Z" fill="#F4C918"/>
<path d="M14.634 116.771C14.634 118.461 13.2677 119.827 11.5865 119.827C9.90532 119.827 8.53906 118.457 8.53906 116.771C8.53906 115.085 9.90532 113.715 11.5865 113.715C13.2677 113.715 14.634 115.085 14.634 116.771Z" fill="#F4C918"/>
<path d="M30.4834 116.771C30.4834 118.461 29.1171 119.827 27.4359 119.827C25.7503 119.827 24.3885 118.457 24.3885 116.771C24.3885 115.085 25.7547 113.715 27.4359 113.715C29.1171 113.715 30.4834 115.085 30.4834 116.771Z" fill="#F4C918"/>
<path d="M46.3373 116.771C46.3373 118.461 44.971 119.827 43.2898 119.827C41.6042 119.827 40.2424 118.457 40.2424 116.771C40.2424 115.085 41.6086 113.715 43.2898 113.715C44.971 113.715 46.3373 115.085 46.3373 116.771Z" fill="#F4C918"/>
<path d="M62.1867 116.771C62.1867 118.461 60.8205 119.827 59.1393 119.827C57.4581 119.827 56.0918 118.457 56.0918 116.771C56.0918 115.085 57.4581 113.715 59.1393 113.715C60.8205 113.715 62.1867 115.085 62.1867 116.771Z" fill="#F4C918"/>
<path d="M78.0361 116.771C78.0361 118.461 76.6699 119.827 74.9887 119.827C73.303 119.827 71.9412 118.457 71.9412 116.771C71.9412 115.085 73.3075 113.715 74.9887 113.715C76.6743 113.715 78.0361 115.085 78.0361 116.771Z" fill="#F4C918"/>
<path d="M93.89 116.771C93.89 118.461 92.5238 119.827 90.8426 119.827C89.1569 119.827 87.7951 118.457 87.7951 116.771C87.7951 115.085 89.1614 113.715 90.8426 113.715C92.5238 113.715 93.89 115.085 93.89 116.771Z" fill="#F4C918"/>
<path d="M109.739 116.771C109.739 118.461 108.373 119.827 106.692 119.827C105.006 119.827 103.645 118.457 103.645 116.771C103.645 115.085 105.011 113.715 106.692 113.715C108.378 113.715 109.739 115.085 109.739 116.771Z" fill="#F4C918"/>
<path d="M125.593 116.771C125.593 118.461 124.227 119.827 122.546 119.827C120.86 119.827 119.498 118.457 119.498 116.771C119.498 115.085 120.865 113.715 122.546 113.715C124.227 113.715 125.593 115.085 125.593 116.771Z" fill="#F4C918"/>
<path d="M6.09491 125.945C6.09491 127.631 4.72866 129.001 3.04746 129.001C1.36625 129.001 0 127.631 0 125.945C0 124.254 1.36625 122.889 3.04746 122.889C4.72866 122.889 6.09491 124.254 6.09491 125.945Z" fill="#F4C918"/>
<path d="M21.9488 125.945C21.9488 127.631 20.5825 129.001 18.9013 129.001C17.2201 129.001 15.8539 127.631 15.8539 125.945C15.8539 124.254 17.2201 122.889 18.9013 122.889C20.5825 122.889 21.9488 124.254 21.9488 125.945Z" fill="#F4C918"/>
<path d="M37.7982 125.945C37.7982 127.631 36.432 129.001 34.7508 129.001C33.0696 129.001 31.7033 127.631 31.7033 125.945C31.7033 124.254 33.0696 122.889 34.7508 122.889C36.432 122.889 37.7982 124.254 37.7982 125.945Z" fill="#F4C918"/>
<path d="M53.6521 125.945C53.6521 127.631 52.2859 129.001 50.6046 129.001C48.919 129.001 47.5572 127.631 47.5572 125.945C47.5572 124.254 48.9234 122.889 50.6046 122.889C52.2859 122.889 53.6521 124.254 53.6521 125.945Z" fill="#F4C918"/>
<path d="M69.5015 125.945C69.5015 127.631 68.1353 129.001 66.4541 129.001C64.7684 129.001 63.4066 127.631 63.4066 125.945C63.4066 124.254 64.7729 122.889 66.4541 122.889C68.1397 122.889 69.5015 124.254 69.5015 125.945Z" fill="#F4C918"/>
<path d="M85.3554 125.945C85.3554 127.631 83.9892 129.001 82.308 129.001C80.6223 129.001 79.2605 127.631 79.2605 125.945C79.2605 124.254 80.6268 122.889 82.308 122.889C83.9892 122.889 85.3554 124.254 85.3554 125.945Z" fill="#F4C918"/>
<path d="M101.205 125.945C101.205 127.631 99.8386 129.001 98.1574 129.001C96.4762 129.001 95.1099 127.631 95.1099 125.945C95.1099 124.254 96.4762 122.889 98.1574 122.889C99.8386 122.889 101.205 124.254 101.205 125.945Z" fill="#F4C918"/>
<path d="M117.059 125.945C117.059 127.631 115.692 129.001 114.011 129.001C112.33 129.001 110.964 127.631 110.964 125.945C110.964 124.254 112.33 122.889 114.011 122.889C115.692 122.889 117.059 124.254 117.059 125.945Z" fill="#F4C918"/>
<path d="M132.908 125.945C132.908 127.631 131.542 129.001 129.861 129.001C128.175 129.001 126.813 127.631 126.813 125.945C126.813 124.254 128.179 122.889 129.861 122.889C131.542 122.889 132.908 124.254 132.908 125.945Z" fill="#F4C918"/>
</g>
<defs>
<clipPath id="clip0_149_2759">
<rect width="189" height="129" fill="white"/>
</clipPath>
</defs>
</svg>
