<svg width="284" height="283" viewBox="0 0 284 283" fill="none" xmlns="http://www.w3.org/2000/svg">
<path fill-rule="evenodd" clip-rule="evenodd" d="M88.7139 0H194.839C243.674 0 283.276 39.6023 283.276 88.4375V194.562C283.276 243.398 243.674 283 194.839 283H88.7139C39.8787 283 0.276367 243.398 0.276367 194.562V88.4375C0.276367 39.6023 39.8787 0 88.7139 0ZM194.839 256.469C228.976 256.469 256.745 228.699 256.745 194.562V88.4375C256.745 54.3006 228.976 26.5312 194.839 26.5312H88.7139C54.577 26.5312 26.8076 54.3006 26.8076 88.4375V194.562C26.8076 228.699 54.577 256.469 88.7139 256.469H194.839Z" fill="white"/>
<path fill-rule="evenodd" clip-rule="evenodd" d="M71.0264 141.5C71.0264 102.428 102.705 70.75 141.776 70.75C180.848 70.75 212.526 102.428 212.526 141.5C212.526 180.572 180.848 212.25 141.776 212.25C102.705 212.25 71.0264 180.572 71.0264 141.5ZM97.5576 141.5C97.5576 165.873 117.403 185.719 141.776 185.719C166.15 185.719 185.995 165.873 185.995 141.5C185.995 117.109 166.15 97.2812 141.776 97.2812C117.403 97.2812 97.5576 117.109 97.5576 141.5Z" fill="white"/>
<circle cx="217.833" cy="65.445" r="9.42744" fill="white"/>
</svg>
