<svg width="47" height="47" viewBox="0 0 47 47" fill="none" xmlns="http://www.w3.org/2000/svg">
<path d="M36.496 36.4337C39.9529 32.9996 41.8908 28.348 41.8841 23.5007C41.8804 23.2016 41.7579 22.9158 41.5427 22.7056C41.3276 22.4952 41.0375 22.3774 40.7352 22.3774C40.4328 22.3774 40.1427 22.4952 39.9276 22.7056C39.7124 22.9158 39.5899 23.2016 39.5862 23.5007C39.5911 27.7486 37.8919 31.8249 34.8621 34.8339C33.3913 36.3283 31.633 37.5161 29.6907 38.3272C27.7485 39.1381 25.6619 39.5559 23.554 39.5559C21.446 39.5559 19.3593 39.1381 17.4172 38.3272C15.475 37.5161 13.7166 36.3283 12.2458 34.8339C9.22008 31.8219 7.52175 27.7473 7.52175 23.5001C7.52175 19.2528 9.22008 15.1781 12.2458 12.1661C13.7081 10.6832 15.4532 9.50228 17.3801 8.69189C19.307 7.8815 21.3773 7.45771 23.471 7.4451C23.918 7.45896 24.3418 7.64512 24.6522 7.96386C24.9625 8.28258 25.1347 8.70869 25.1321 9.1513C25.1295 9.59391 24.9523 10.018 24.6383 10.3332C24.3242 10.6483 23.8982 10.8295 23.451 10.8383C23.4096 10.8383 23.3682 10.8406 23.3271 10.8451C20.1418 10.9466 17.1195 12.2628 14.8921 14.5185C12.5399 16.8619 11.2197 20.031 11.2197 23.3341C11.2197 26.6374 12.5399 29.8064 14.8921 32.1498C16.0413 33.3148 17.4143 34.2406 18.9304 34.8726C20.4464 35.5046 22.0749 35.8302 23.7199 35.8302C25.365 35.8302 26.9935 35.5046 28.5096 34.8726C30.0255 34.2406 31.3985 33.3148 32.5478 32.1498C34.9037 29.8088 36.2244 26.6382 36.2197 23.3341C36.2246 22.8138 36.1252 22.2974 35.9273 21.8152C35.7293 21.3331 35.4369 20.8945 35.0667 20.5248C34.6964 20.155 34.256 19.8616 33.7706 19.6613C33.2852 19.461 32.7646 19.3579 32.2386 19.3579C31.7126 19.3579 31.192 19.461 30.7066 19.6613C30.2212 19.8616 29.7807 20.155 29.4105 20.5248C29.0403 20.8945 28.7479 21.3331 28.5498 21.8152C28.352 22.2974 28.2526 22.8138 28.2574 23.3341C28.2574 23.3673 28.2596 23.3985 28.2623 23.4304C28.2596 23.4622 28.2574 23.4941 28.2574 23.5266C28.265 24.434 27.9999 25.323 27.4959 26.0812C26.992 26.8391 26.2719 27.4319 25.427 27.7843C24.5821 28.1366 23.6504 28.2326 22.7503 28.0602C21.8501 27.8877 21.022 27.4546 20.371 26.8156C19.7201 26.1766 19.2756 25.3607 19.0939 24.4713C18.9123 23.5819 19.0017 22.6591 19.3508 21.8202C19.7 20.9811 20.293 20.2636 21.0549 19.7587C21.8167 19.2538 22.7129 18.9843 23.6297 18.9842C23.7818 18.986 23.9327 18.958 24.0737 18.9017C24.2147 18.8453 24.343 18.7619 24.4512 18.6561C24.5593 18.5503 24.6453 18.4244 24.7038 18.2855C24.7625 18.1466 24.7927 17.9977 24.7927 17.8472C24.7927 17.6967 24.7625 17.5477 24.7038 17.4088C24.6453 17.27 24.5593 17.144 24.4512 17.0382C24.343 16.9325 24.2147 16.849 24.0737 16.7927C23.9327 16.7364 23.7818 16.7083 23.6297 16.7101C22.2691 16.7176 20.9411 17.1237 19.8134 17.8773C18.6857 18.6309 17.8088 19.6981 17.2933 20.9443C16.7779 22.1905 16.6469 23.56 16.917 24.8798C17.1871 26.1996 17.8461 27.4106 18.8109 28.3602C19.7758 29.3097 21.0032 29.9552 22.3384 30.2152C23.6733 30.4751 25.0564 30.3378 26.3128 29.8208C27.5691 29.3037 28.6427 28.4301 29.3979 27.3099C30.1531 26.1897 30.556 24.8732 30.556 23.5266C30.556 23.4934 30.5538 23.4622 30.5511 23.4304C30.5538 23.3985 30.556 23.3667 30.556 23.3341C30.5515 23.1126 30.5917 22.8924 30.6744 22.6863C30.7569 22.4804 30.8803 22.2928 31.0369 22.1346C31.1937 21.9763 31.3808 21.8505 31.5872 21.7648C31.7936 21.679 32.0154 21.6348 32.2392 21.6348C32.4631 21.6348 32.6849 21.679 32.8913 21.7648C33.0977 21.8505 33.2848 21.9763 33.4416 22.1346C33.5982 22.2928 33.7216 22.4804 33.8041 22.6863C33.8868 22.8924 33.927 23.1126 33.9225 23.3341C33.9255 26.0392 32.8435 28.6347 30.9142 30.5507C29.9787 31.5019 28.8602 32.2577 27.6246 32.7739C26.3891 33.2901 25.0615 33.5559 23.7203 33.5559C22.3793 33.5559 21.0517 33.2901 19.8161 32.7739C18.5806 32.2577 17.462 31.5019 16.5266 30.5507C14.5998 28.633 13.5183 26.0385 13.5183 23.3341C13.5183 20.6298 14.5998 18.0353 16.5266 16.1176C17.4628 15.1677 18.5813 14.4125 19.8166 13.8964C21.0518 13.3804 22.3788 13.1138 23.7196 13.1124C23.8227 13.1121 23.9253 13.098 24.0248 13.0706C25.003 12.9221 25.8911 12.4215 26.5192 11.6647C27.1473 10.9079 27.4709 9.94833 27.428 8.96997C27.385 7.9916 26.9784 7.06337 26.2865 6.36335C25.5945 5.66332 24.6658 5.24079 23.6784 5.1768C23.6371 5.17236 23.5955 5.17008 23.554 5.17C23.5308 5.17 23.5078 5.17 23.4847 5.17C23.4733 5.17 23.4622 5.17 23.4512 5.17C23.4401 5.17 23.4287 5.17132 23.4176 5.17166C21.029 5.19025 18.6677 5.67657 16.4699 6.6026C14.2721 7.52861 12.2813 8.87602 10.6122 10.5671C7.16106 14.0049 5.22412 18.6541 5.22412 23.5001C5.22412 28.346 7.16106 32.9951 10.6122 36.4329C12.2967 38.1411 14.3096 39.4988 16.5322 40.4255C18.7548 41.3524 21.1424 41.83 23.5543 41.83C25.9662 41.83 28.3537 41.3524 30.5765 40.4255C32.7991 39.4988 34.8118 38.1411 36.4964 36.4329L36.496 36.4337Z" fill="white"/>
</svg>
