<svg width="240" height="64" viewBox="0 0 240 64" fill="none" xmlns="http://www.w3.org/2000/svg">
<path d="M54.0716 54.0574C60.0488 48.1195 63.3996 40.0766 63.388 31.6953C63.3817 31.178 63.1697 30.684 62.7978 30.3205C62.4258 29.9566 61.9243 29.7529 61.4015 29.7529C60.8785 29.7529 60.377 29.9566 60.005 30.3205C59.6331 30.684 59.4211 31.178 59.4148 31.6953C59.4232 39.0402 56.4852 46.0885 51.2464 51.2913C48.7033 53.8753 45.663 55.929 42.3046 57.3314C38.9465 58.7335 35.3385 59.456 31.6937 59.456C28.0489 59.456 24.4409 58.7335 21.0828 57.3314C17.7246 55.929 14.6842 53.8753 12.1411 51.2913C6.90933 46.0833 3.97278 39.0379 3.97278 31.6942C3.97278 24.3502 6.90933 17.3049 12.1411 12.0967C14.6694 9.5327 17.687 7.49087 21.0187 6.08962C24.3505 4.68841 27.9302 3.95564 31.5502 3.93383C32.3232 3.95779 33.0561 4.27968 33.5927 4.8308C34.1293 5.3819 34.4271 6.11869 34.4224 6.88399C34.4181 7.6493 34.1116 8.38259 33.5686 8.92752C33.0256 9.47242 32.2889 9.78581 31.5157 9.80087C31.4441 9.80102 31.3725 9.80495 31.3015 9.81264C25.7939 9.98817 20.5681 12.264 16.7168 16.1643C12.6495 20.2163 10.3668 25.6958 10.3668 31.4073C10.3668 37.1188 12.6495 42.5982 16.7168 46.6503C18.7038 48.6647 21.0778 50.2653 23.6992 51.3582C26.3205 52.451 29.1364 53.0139 31.9808 53.0139C34.8251 53.0139 37.641 52.451 40.2625 51.3582C42.8836 50.2653 45.2577 48.6647 47.2447 46.6503C51.3183 42.6025 53.602 37.1202 53.5939 31.4073C53.6023 30.5075 53.4304 29.6146 53.0883 28.7809C52.7459 27.9473 52.2403 27.1888 51.6001 26.5496C50.96 25.9103 50.1984 25.4029 49.3591 25.0566C48.5198 24.7103 47.6196 24.5321 46.7101 24.5321C45.8007 24.5321 44.9005 24.7103 44.0612 25.0566C43.2219 25.4029 42.4603 25.9103 41.8202 26.5496C41.18 27.1888 40.6744 27.9473 40.332 28.7809C39.9899 29.6146 39.818 30.5075 39.8264 31.4073C39.8264 31.4646 39.8302 31.5186 39.8348 31.5737C39.8302 31.6288 39.8264 31.6839 39.8264 31.7401C39.8395 33.3089 39.3811 34.8462 38.5096 36.1571C37.6384 37.4677 36.3933 38.4925 34.9324 39.1019C33.4715 39.711 31.8604 39.8772 30.3042 39.5791C28.7477 39.2807 27.3158 38.5318 26.1902 37.4269C25.0647 36.322 24.2961 34.9113 23.982 33.3735C23.6679 31.8356 23.8225 30.2401 24.4262 28.7895C25.0299 27.3386 26.0554 26.0981 27.3726 25.2251C28.6899 24.352 30.2395 23.886 31.8248 23.8859C32.0877 23.8891 32.3487 23.8405 32.5925 23.7431C32.8363 23.6457 33.0581 23.5014 33.2451 23.3185C33.4321 23.1357 33.5808 22.9179 33.682 22.6777C33.7834 22.4377 33.8356 22.18 33.8356 21.9198C33.8356 21.6596 33.7834 21.402 33.682 21.1619C33.5808 20.9218 33.4321 20.704 33.2451 20.5212C33.0581 20.3383 32.8363 20.194 32.5925 20.0966C32.3487 19.9992 32.0877 19.9506 31.8248 19.9538C29.4721 19.9667 27.1759 20.669 25.226 21.9719C23.2762 23.2749 21.7599 25.1202 20.8686 27.2751C19.9773 29.4299 19.7509 31.7978 20.2179 34.0798C20.6849 36.3619 21.8244 38.4558 23.4927 40.0978C25.161 41.7395 27.2833 42.8556 29.5919 43.3052C31.9002 43.7545 34.2917 43.5172 36.464 42.6232C38.6363 41.7292 40.4926 40.2186 41.7984 38.2816C43.1042 36.3447 43.8009 34.0684 43.8009 31.7401C43.8009 31.6827 43.7971 31.6288 43.7924 31.5737C43.7971 31.5186 43.8009 31.4635 43.8009 31.4073C43.793 31.0242 43.8626 30.6435 44.0055 30.2872C44.1482 29.9311 44.3615 29.6066 44.6323 29.3332C44.9034 29.0595 45.2269 28.842 45.5838 28.6937C45.9407 28.5453 46.3243 28.4689 46.7113 28.4689C47.0983 28.4689 47.4819 28.5453 47.8388 28.6937C48.1957 28.842 48.5192 29.0595 48.7903 29.3332C49.0611 29.6066 49.2744 29.9311 49.4171 30.2872C49.56 30.6435 49.6296 31.0242 49.6218 31.4073C49.627 36.0845 47.7562 40.5723 44.4201 43.8853C42.8027 45.5299 40.8687 46.8368 38.7323 47.7293C36.5959 48.6219 34.3004 49.0815 31.9813 49.0815C29.6626 49.0815 27.3672 48.6219 25.2307 47.7293C23.0944 46.8368 21.1604 45.5299 19.5429 43.8853C16.2113 40.5695 14.3413 36.0833 14.3413 31.4073C14.3413 26.7312 16.2113 22.2451 19.5429 18.9292C21.1616 17.2868 23.0957 15.981 25.2315 15.0887C27.3674 14.1964 29.6617 13.7355 31.9802 13.733C32.1585 13.7325 32.3359 13.7082 32.5078 13.6607C34.1992 13.404 35.7349 12.5383 36.8209 11.2299C37.9069 9.92135 38.4664 8.26211 38.3922 6.57046C38.318 4.87877 37.615 3.2738 36.4185 2.0634C35.222 0.852997 33.6162 0.122399 31.9089 0.0117634C31.8375 0.00407569 31.7656 0.000148935 31.6937 0C31.6537 0 31.614 0 31.574 0C31.5543 0 31.5352 0 31.516 0C31.4969 0 31.4772 0.00229371 31.458 0.00286753C27.3279 0.0350118 23.2451 0.875909 19.4449 2.47708C15.6447 4.07824 12.2024 6.40801 9.31643 9.33206C3.34912 15.2762 0 23.315 0 31.6942C0 40.0731 3.34912 48.1118 9.31643 54.056C12.2291 57.0098 15.7094 59.3573 19.5525 60.9597C23.3957 62.5623 27.5239 63.3881 31.6943 63.3881C35.8647 63.3881 39.9928 62.5623 43.8362 60.9597C47.6793 59.3573 51.1589 57.0112 54.0716 54.0574Z" fill="#9F41EA"/>
<path d="M84.2682 46.6333C83.655 46.6333 83.2354 46.6171 83.0095 46.5849C83.2354 44.7129 84.2198 39.9683 85.9627 32.3511C87.7379 24.7016 88.6255 19.8602 88.6255 17.8268C88.6255 17.4395 88.3996 16.9392 87.9477 16.326C87.4958 15.6804 87.044 15.1479 86.5921 14.7283L85.9627 14.0505L86.108 13.2759C90.5298 12.4367 95.2098 12.0171 100.148 12.0171C106.087 12.0171 109.056 14.3571 109.056 19.0372C109.056 21.3288 108.475 23.4267 107.313 25.331C106.184 27.203 104.409 28.6716 101.988 29.7367C103.795 35.7724 105.345 39.6778 106.636 41.453C107.217 42.1953 107.668 42.5665 107.991 42.5665C108.572 42.5665 109.476 42.276 110.702 41.695L111.283 41.4045L112.397 43.1959C111.203 44.2933 109.815 45.197 108.233 45.9071C106.684 46.6171 105.215 46.9722 103.828 46.9722C102.472 46.9722 101.342 46.3912 100.439 45.2293C99.5671 44.0351 98.7602 42.2921 98.0179 40.0005C97.3078 37.7089 96.5816 34.7718 95.8392 31.1891C94.8064 31.2537 94.0156 31.286 93.4669 31.286C91.8209 38.3544 90.9171 43.1313 90.7557 45.6166C89.3679 46.2944 87.2054 46.6333 84.2682 46.6333ZM95.3551 27.9938C97.2917 27.9938 98.8086 27.1385 99.906 25.4278C101.036 23.6849 101.601 21.6193 101.601 19.2308C101.601 17.9721 101.375 16.9554 100.923 16.1807C100.471 15.4061 99.7931 15.0188 98.8893 15.0188C98.502 15.0188 98.034 15.0833 97.4853 15.2124C96.9689 15.3093 96.7107 15.3738 96.7107 15.4061C96.1943 18.7305 95.3551 22.9264 94.1931 27.9938H95.3551Z" fill="#9F41EA"/>
<path d="M113.356 42.7601C113.356 41.3723 113.776 39.0161 114.615 35.6917C115.454 32.3349 115.874 30.2854 115.874 29.5431C115.874 28.7684 115.293 27.7517 114.131 26.493L114.179 25.8636C116.374 25.4117 119.263 25.1858 122.845 25.1858C123.007 25.6054 123.087 26.3639 123.087 27.4612C123.087 28.5586 122.636 30.8987 121.732 34.4813C120.828 38.064 120.376 40.291 120.376 41.1625C120.376 42.0339 120.699 42.4697 121.344 42.4697C122.28 42.4697 123.362 42.1308 124.588 41.453C124.717 40.6783 125.04 39.1936 125.556 36.9988C126.718 31.8347 127.299 28.139 127.299 25.912C128.429 25.4601 130.462 25.2342 133.4 25.2342H134.319C134.319 26.7512 133.868 29.7206 132.964 34.1424C132.06 38.532 131.608 41.1141 131.608 41.8887C131.608 42.631 131.77 43.0022 132.092 43.0022C132.286 43.0022 133.206 42.6149 134.852 41.8403L135.772 43.3895C132.899 45.778 130.382 46.9722 128.219 46.9722C127.186 46.9722 126.299 46.6817 125.556 46.1007C124.846 45.5198 124.443 44.7613 124.346 43.8253C121.732 45.9555 119.359 47.0206 117.229 47.0206C116.1 47.0206 115.164 46.6494 114.421 45.9071C113.711 45.1647 113.356 44.1157 113.356 42.7601Z" fill="#9F41EA"/>
<path d="M152.089 40.0489C152.089 42.0823 151.185 43.7446 149.377 45.0356C147.602 46.3267 145.569 46.9722 143.277 46.9722C140.986 46.9722 139.162 46.488 137.806 45.5198C136.483 44.5515 135.821 43.6962 135.821 42.9538C135.821 42.5019 136.386 41.7757 137.516 40.7752C138.646 39.7423 139.598 39.1129 140.372 38.887C141.986 40.0812 143.31 41.9694 144.342 44.5515C145.537 44.4546 146.134 43.8898 146.134 42.857C146.134 41.3723 144.826 39.2743 142.212 36.5631C139.598 33.8196 138.291 31.641 138.291 30.0272C138.291 28.4134 139.017 27.1708 140.469 26.2993C141.922 25.3956 143.665 24.9437 145.698 24.9437C147.764 24.9437 149.313 25.3149 150.346 26.0572C151.379 26.7673 151.895 27.7517 151.895 29.0105C151.895 30.237 150.911 31.9476 148.942 34.1424C149.168 34.3683 149.458 34.675 149.813 35.0623C150.168 35.4173 150.636 36.1113 151.217 37.1441C151.798 38.1769 152.089 39.1452 152.089 40.0489ZM147.441 32.4479C148.796 31.286 149.474 30.1402 149.474 29.0105C149.474 27.8808 148.7 27.316 147.15 27.316C146.408 27.316 145.795 27.4774 145.311 27.8001C144.826 28.0906 144.584 28.4295 144.584 28.8168C144.584 29.5269 145.295 30.5275 146.715 31.8185L147.441 32.4479Z" fill="#9F41EA"/>
<path d="M165.764 46.9722C162.762 46.9722 160.277 45.7618 158.308 43.3411C156.34 40.8881 155.355 37.6928 155.355 33.7551C155.355 29.8174 156.033 26.2348 157.388 23.0071C158.744 19.7472 160.681 17.1006 163.198 15.0672C165.716 13.0338 168.395 12.0171 171.235 12.0171C174.108 12.0171 176.415 12.6626 178.158 13.9537C179.933 15.2447 180.821 16.794 180.821 18.6014C180.821 20.3766 180.288 21.8936 179.223 23.1524C178.19 23.1524 177.029 22.9264 175.737 22.4746C174.446 22.0227 173.478 21.474 172.833 20.8285L173.752 15.9387C172.978 15.4545 171.961 15.2124 170.702 15.2124C168.734 15.2124 166.991 16.9069 165.474 20.2959C163.957 23.6527 163.198 27.8001 163.198 32.7384C163.198 35.9983 163.731 38.3706 164.796 39.8553C165.893 41.3077 167.217 42.0339 168.766 42.0339C171.316 42.0339 173.769 40.8397 176.125 38.4513L178.11 40.2426C177.755 40.759 177.109 41.4691 176.173 42.3728C175.237 43.2766 174.317 44.0351 173.414 44.6483C172.51 45.2293 171.364 45.7618 169.976 46.246C168.588 46.7301 167.184 46.9722 165.764 46.9722Z" fill="#9F41EA"/>
<path d="M195.006 26.3477C195.071 26.2832 195.248 25.8636 195.539 25.0889C197.055 25.0889 199.089 25.5408 201.639 26.4445C200.832 29.1235 200.186 31.9315 199.702 34.8686C199.218 37.7735 198.976 39.8553 198.976 41.1141C198.976 42.3406 199.105 42.9538 199.363 42.9538C199.557 42.9538 200.267 42.6472 201.493 42.0339L202.074 41.7434L202.946 43.4379C202.655 43.6962 202.268 44.0189 201.784 44.4062C201.332 44.7935 200.461 45.3261 199.17 46.0039C197.879 46.6494 196.717 46.9722 195.684 46.9722C193.683 46.9722 192.521 46.0684 192.198 44.261C190.132 46.0684 188.26 46.9722 186.582 46.9722C184.936 46.9722 183.532 46.3267 182.37 45.0356C181.24 43.7446 180.675 41.7112 180.675 38.9354C180.675 34.6104 181.563 31.2053 183.338 28.72C185.113 26.2025 187.26 24.9437 189.777 24.9437C191.585 24.9437 193.328 25.4117 195.006 26.3477ZM189.487 42.857C190.261 42.857 191.133 42.5503 192.101 41.9371C192.327 37.3862 193.086 32.8836 194.377 28.4295C193.408 28.0099 192.585 27.8001 191.907 27.8001C190.746 27.8001 189.745 28.9459 188.906 31.2376C188.099 33.4969 187.695 35.9983 187.695 38.7418C187.695 41.4852 188.293 42.857 189.487 42.857Z" fill="#9F41EA"/>
<path d="M204.808 46.5365H204.469C204.405 46.2782 204.373 45.6973 204.373 44.7935C204.373 43.8575 204.808 41.3723 205.68 37.3377C206.551 33.3032 206.987 30.9955 206.987 30.4145C206.987 29.414 206.535 28.3166 205.631 27.1223L205.196 26.5414L205.244 25.912C206.987 25.4278 209.779 25.1858 213.62 25.1858C214.007 26.025 214.201 27.203 214.201 28.72C214.556 28.139 215.298 27.3644 216.428 26.3961C217.557 25.4278 218.719 24.9437 219.914 24.9437C221.656 24.9437 222.528 26.4607 222.528 29.4946C222.367 29.6883 222.141 29.9465 221.85 30.2693C221.592 30.5598 221.043 30.9793 220.204 31.528C219.397 32.0767 218.606 32.4156 217.832 32.5447C217.799 32.5447 217.525 32.109 217.009 31.2376C216.492 30.3661 216.105 29.9304 215.847 29.9304C215.04 30.2209 214.33 30.705 213.717 31.3828C212.232 38.064 211.489 42.389 211.489 44.3578C211.489 45.0679 211.506 45.5682 211.538 45.8587C210.408 46.3105 208.165 46.5365 204.808 46.5365Z" fill="#9F41EA"/>
<path d="M221.282 38.0155C221.282 33.981 222.492 30.8018 224.913 28.4779C227.366 26.1218 230.141 24.9437 233.24 24.9437C235.144 24.9437 236.71 25.4117 237.936 26.3477C239.163 27.2837 239.776 28.5425 239.776 30.124C239.776 31.6733 239.372 32.9805 238.566 34.0456C237.791 35.1107 236.839 35.9337 235.709 36.5147C233.417 37.6444 231.32 38.3544 229.415 38.6449L228.253 38.7902C228.479 41.8241 229.722 43.3411 231.981 43.3411C232.756 43.3411 233.579 43.1475 234.45 42.7601C235.322 42.3728 236 41.9855 236.484 41.5982L237.21 41.0172L238.372 42.5665C238.114 42.9215 237.597 43.3895 236.823 43.9705C236.048 44.5515 235.322 45.0356 234.644 45.4229C232.772 46.4558 230.722 46.9722 228.495 46.9722C226.268 46.9722 224.509 46.1814 223.218 44.5999C221.927 43.0184 221.282 40.8236 221.282 38.0155ZM228.205 36.4179C229.851 36.1274 231.158 35.4335 232.126 34.3361C233.095 33.2387 233.579 31.8185 233.579 30.0756C233.579 28.3327 233.062 27.4612 232.03 27.4612C230.803 27.4612 229.851 28.5102 229.173 30.6082C228.528 32.6738 228.205 34.6104 228.205 36.4179Z" fill="#9F41EA"/>
</svg>
