<svg width="64" height="56" viewBox="0 0 64 56" fill="none" xmlns="http://www.w3.org/2000/svg">
<path d="M22.8606 2.42858L27.3823 12.7419C27.5524 13.13 27.8235 13.4654 28.1674 13.713C28.5113 13.9605 28.9154 14.1113 29.3374 14.1494L40.3528 15.1371C41.5991 15.3185 42.0963 16.847 41.1927 17.7272L32.895 24.6979C32.2231 25.2623 31.9174 26.1491 32.1022 27.0058L34.5142 38.2966C34.7259 39.5362 33.4258 40.4836 32.3105 39.8957L22.6959 34.2654C22.3333 34.0525 21.9205 33.9403 21.5 33.9403C21.0795 33.9403 20.6667 34.0525 20.3041 34.2654L10.6895 39.8923C9.57758 40.4769 8.27415 39.5329 8.48579 38.2933L10.8978 27.0024C11.0792 26.1458 10.7769 25.2589 10.105 24.6945L1.80399 17.7305C0.903678 16.8537 1.40087 15.3219 2.64383 15.1405L13.6592 14.1528C14.0813 14.1146 14.4853 13.9639 14.8292 13.7163C15.1732 13.4687 15.4443 13.1334 15.6144 12.7452L20.1361 2.43194C20.6971 1.30319 22.3029 1.30319 22.8606 2.42858Z" fill="#FDD835"/>
<path d="M22.5314 13.3601L21.7654 5.76121C21.7352 5.33793 21.6478 4.6123 22.3264 4.6123C22.8639 4.6123 23.1562 5.73098 23.1562 5.73098L25.454 11.8316C26.3207 14.1529 25.9646 14.9491 25.1281 15.4194C24.1674 15.9569 22.7497 15.537 22.5314 13.3601Z" fill="#FFFF8D"/>
<path d="M32.0081 24.0232L38.5992 18.88C38.9251 18.6079 39.5129 18.1745 39.0426 17.6807C38.6697 17.291 37.6619 17.852 37.6619 17.852L31.8939 20.1062C30.1739 20.7008 29.0317 21.5809 28.9309 22.6895C28.7999 24.1677 30.1268 25.3065 32.0081 24.0232Z" fill="#F4B400"/>
<path d="M53.2277 25.2989L55.6463 30.8153C55.7373 31.0229 55.8823 31.2023 56.0663 31.3347C56.2503 31.4672 56.4664 31.5478 56.6921 31.5682L62.5841 32.0965C63.2507 32.1935 63.5167 33.0111 63.0333 33.4819L58.595 37.2104C58.2356 37.5123 58.0721 37.9866 58.171 38.4448L59.4611 44.4841C59.5743 45.1472 58.8789 45.6539 58.2824 45.3394L53.1397 42.3279C52.9457 42.214 52.7249 42.154 52.5 42.154C52.2751 42.154 52.0543 42.214 51.8603 42.3279L46.7177 45.3376C46.1229 45.6503 45.4257 45.1454 45.5389 44.4823L46.8291 38.443C46.9261 37.9848 46.7644 37.5105 46.405 37.2086L41.9649 33.4837C41.4834 33.0147 41.7493 32.1953 42.4142 32.0983L48.3061 31.57C48.5319 31.5496 48.748 31.469 48.9319 31.3365C49.1159 31.2041 49.2609 31.0247 49.3519 30.8171L51.7705 25.3007C52.0706 24.6969 52.9295 24.6969 53.2277 25.2989Z" fill="#FDD835"/>
<path d="M53.0517 31.1459L52.642 27.0813C52.6258 26.8549 52.5791 26.4668 52.9421 26.4668C53.2296 26.4668 53.3859 27.0652 53.3859 27.0652L54.6149 30.3283C55.0785 31.5699 54.8881 31.9958 54.4406 32.2473C53.9267 32.5348 53.1685 32.3102 53.0517 31.1459Z" fill="#FFFF8D"/>
<path d="M58.1206 36.849L61.6461 34.098C61.8204 33.9524 62.1348 33.7206 61.8833 33.4565C61.6838 33.248 61.1448 33.5481 61.1448 33.5481L58.0595 34.7538C57.1395 35.0719 56.5286 35.5427 56.4747 36.1356C56.4046 36.9262 57.1144 37.5354 58.1206 36.849Z" fill="#F4B400"/>
<g clip-path="url(#clip0_145_2374)">
<path d="M20.3164 46.5644L21.368 48.9628C21.4075 49.0531 21.4706 49.131 21.5506 49.1886C21.6305 49.2462 21.7245 49.2813 21.8227 49.2901L24.3844 49.5198C24.6742 49.562 24.7898 49.9175 24.5797 50.1222L22.65 51.7433C22.4937 51.8745 22.4227 52.0808 22.4656 52.28L23.0266 54.9058C23.0758 55.194 22.7734 55.4144 22.5141 55.2776L20.2781 53.9683C20.1938 53.9188 20.0978 53.8927 20 53.8927C19.9022 53.8927 19.8062 53.9188 19.7219 53.9683L17.4859 55.2769C17.2273 55.4128 16.9242 55.1933 16.9734 54.905L17.5344 52.2792C17.5766 52.08 17.5062 51.8737 17.35 51.7425L15.4195 50.1229C15.2102 49.919 15.3258 49.5628 15.6148 49.5206L18.1766 49.2909C18.2747 49.282 18.3687 49.247 18.4487 49.1894C18.5286 49.1318 18.5917 49.0538 18.6312 48.9636L19.6828 46.5651C19.8133 46.3026 20.1867 46.3026 20.3164 46.5644Z" fill="#FDD835"/>
<path d="M20.2398 49.1066L20.0617 47.3395C20.0547 47.241 20.0344 47.0723 20.1922 47.0723C20.3172 47.0723 20.3852 47.3324 20.3852 47.3324L20.9195 48.7512C21.1211 49.291 21.0383 49.4762 20.8437 49.5855C20.6203 49.7105 20.2906 49.6129 20.2398 49.1066Z" fill="#FFFF8D"/>
<path d="M22.4438 51.5871L23.9766 50.391C24.0524 50.3277 24.1891 50.227 24.0797 50.1121C23.993 50.0215 23.7586 50.152 23.7586 50.152L22.4172 50.6762C22.0172 50.8145 21.7516 51.0191 21.7281 51.277C21.6977 51.6207 22.0063 51.8855 22.4438 51.5871Z" fill="#F4B400"/>
</g>
<defs>
<clipPath id="clip0_145_2374">
<rect width="10" height="10" fill="white" transform="translate(15 46)"/>
</clipPath>
</defs>
</svg>
