<svg width="284" height="231" viewBox="0 0 284 231" fill="none" xmlns="http://www.w3.org/2000/svg">
<path d="M283.73 27.9481C273.206 32.5646 261.993 35.6245 250.301 37.1102C262.329 29.9291 271.508 18.6445 275.824 5.0428C264.61 11.7287 252.229 16.4512 239.034 19.0867C228.386 7.74899 213.21 0.727051 196.655 0.727051C164.534 0.727051 138.675 26.7984 138.675 58.7597C138.675 63.3585 139.064 67.7804 140.02 71.99C91.7857 69.6375 49.1058 46.52 20.4343 11.3042C15.4288 19.9887 12.4927 29.9291 12.4927 40.63C12.4927 60.723 22.8398 78.5344 38.2633 88.8462C28.942 88.6693 19.7976 85.9631 12.0505 81.7004C12.0505 81.8773 12.0505 82.1072 12.0505 82.3372C12.0505 110.531 32.1612 133.949 58.5332 139.344C53.8107 140.635 48.6636 141.254 43.322 141.254C39.6076 141.254 35.8578 141.042 32.338 140.264C39.8552 163.24 61.1863 180.131 86.5502 180.68C66.811 196.121 41.7478 205.424 14.6152 205.424C9.85722 205.424 5.29384 205.212 0.730469 204.629C26.4304 221.202 56.8883 230.665 89.734 230.665C196.496 230.665 254.864 142.227 254.864 65.5694C254.864 63.0047 254.776 60.5285 254.652 58.0699C266.167 49.8983 275.842 39.6926 283.73 27.9481Z" fill="white"/>
</svg>
