<svg width="41" height="41" viewBox="0 0 41 41" fill="none" xmlns="http://www.w3.org/2000/svg">
<path d="M40.5964 34.2864C34.5822 23.2997 28.5655 12.313 22.55 1.32625C22.3494 0.946019 22.0488 0.62775 21.6807 0.405742C21.3126 0.183733 20.8908 0.0664062 20.4609 0.0664062C20.031 0.0664063 19.6093 0.183733 19.2411 0.405742C18.873 0.62775 18.5724 0.946019 18.3718 1.32625C12.357 12.313 6.33706 23.2997 0.325439 34.2864C-0.605389 35.9834 0.581049 38.1833 2.4126 38.1833H38.5118C39.5266 38.1833 40.2082 37.6369 40.5637 36.8957C41.0109 36.1897 41.1307 35.2525 40.599 34.2851" fill="#FFDD15"/>
<path d="M18.525 22.0878L17.9554 13.5918C17.8491 11.937 17.7978 10.748 17.7978 10.0267C17.7978 9.04398 18.0541 8.27972 18.5679 7.72814C19.0836 7.17977 19.7614 6.9043 20.6019 6.9043C21.616 6.9043 22.297 7.25728 22.6378 7.95877C22.9818 8.66473 23.156 9.6782 23.156 11.0024C23.156 11.7807 23.1138 12.5738 23.0292 13.3778L22.2668 22.1217C22.1842 23.1634 22.008 23.9616 21.737 24.517C21.4641 25.075 21.0144 25.3505 20.386 25.3505C19.7505 25.3505 19.3033 25.082 19.0586 24.5452C18.8068 24.0064 18.6307 23.1871 18.525 22.0878ZM20.493 33.758C19.7723 33.758 19.1438 33.5261 18.605 33.0578C18.0663 32.5914 17.7978 31.938 17.7978 31.0988C17.7978 30.3665 18.0541 29.7407 18.5679 29.2275C19.0836 28.7112 19.712 28.4549 20.4584 28.4549C21.2047 28.4549 21.8376 28.7112 22.3655 29.2275C22.8876 29.7407 23.156 30.3665 23.156 31.0988C23.156 31.9252 22.8876 32.5773 22.3578 33.0488C21.8485 33.513 21.182 33.7664 20.493 33.758Z" fill="#1F2E35"/>
</svg>
