<svg width="1440" height="324" viewBox="0 0 1440 324" fill="none" xmlns="http://www.w3.org/2000/svg">
<path fill-rule="evenodd" clip-rule="evenodd" d="M0 0L21.6 36C43.2 72 87.6 144 130.8 174C174 204 218.4 192 261.6 198C306 204 349.2 228 392.4 240C436.8 252 480 252 523.2 216C567.6 180 610.8 108 654 90C698.4 72 741.6 108 786 120C829.2 132 872.4 120 916.8 150C960 180 1003.2 252 1047.6 276C1090.8 300 1134 276 1178.4 216C1221.6 156 1266 60 1309.2 42C1352.4 24 1396.8 84 1418.4 114L1440 144V324H1418.4C1396.8 324 1352.4 324 1309.2 324C1266 324 1221.6 324 1178.4 324C1134 324 1090.8 324 1047.6 324C1003.2 324 960 324 916.8 324C872.4 324 829.2 324 786 324C741.6 324 698.4 324 654 324C610.8 324 567.6 324 523.2 324C480 324 436.8 324 392.4 324C349.2 324 306 324 261.6 324C218.4 324 174 324 130.8 324C87.6 324 43.2 324 21.6 324H0V0Z" fill="#913BD7"/>
</svg>
